<svg width="348" height="348" viewBox="0 0 348 348" fill="none" xmlns="http://www.w3.org/2000/svg">
<rect width="348" height="348" rx="64" fill="white" fill-opacity="0.05"/>
<rect x="111.297" y="177.289" width="185.239" height="81.0288" rx="8.63399" fill="#F4DC0B"/>
<rect x="111.548" y="177.54" width="184.737" height="80.5264" rx="8.38279" stroke="black" stroke-opacity="0.2" stroke-width="0.502392"/>
<path d="M158.184 208.279C157.683 207.576 156.869 207.156 156.006 207.156H144.787C143.925 207.156 143.11 207.576 142.554 208.361L137.195 217.177C136.888 217.682 136.947 218.329 137.344 218.769L149.401 232.166C149.654 232.45 150.018 232.611 150.397 232.611C150.776 232.611 151.139 232.45 151.392 232.167L163.449 218.77C163.846 218.331 163.906 217.682 163.598 217.179L158.184 208.279ZM150.397 229.268L141.347 219.214H159.445L150.397 229.268ZM140.72 216.534L144.787 209.836L155.95 209.753L160.072 216.534H140.72Z" fill="black"/>
<path d="M175.874 205.432H180.167C181.517 205.432 182.541 205.812 183.237 206.573C183.923 207.324 184.266 208.235 184.266 209.306C184.266 210.4 183.907 211.305 183.189 212.023C182.482 212.752 181.415 213.117 179.99 213.117H178.061V217.312H175.874V205.432ZM178.061 211.107H180.054C180.676 211.107 181.158 210.935 181.501 210.593C181.855 210.239 182.032 209.799 182.032 209.274C182.032 208.749 181.866 208.32 181.533 207.988C181.212 207.645 180.772 207.474 180.215 207.474H178.061V211.107ZM187.013 217.312H184.923V208.583H186.932V209.789C187.468 208.835 188.277 208.358 189.36 208.358C189.724 208.358 190.073 208.417 190.405 208.535L190.228 210.544C189.853 210.426 189.515 210.367 189.215 210.367C188.54 210.367 188.004 210.598 187.608 211.059C187.211 211.509 187.013 212.173 187.013 213.052V217.312ZM189.964 212.94C189.964 211.654 190.398 210.571 191.266 209.692C192.155 208.803 193.275 208.358 194.626 208.358C195.987 208.358 197.102 208.803 197.97 209.692C198.849 210.571 199.288 211.654 199.288 212.94C199.288 214.247 198.849 215.34 197.97 216.219C197.102 217.098 195.987 217.538 194.626 217.538C193.265 217.538 192.145 217.098 191.266 216.219C190.398 215.34 189.964 214.247 189.964 212.94ZM197.182 212.94C197.182 212.2 196.936 211.579 196.443 211.075C195.939 210.56 195.333 210.303 194.626 210.303C193.918 210.303 193.313 210.56 192.809 211.075C192.316 211.579 192.07 212.2 192.07 212.94C192.07 213.69 192.316 214.317 192.809 214.821C193.313 215.335 193.918 215.592 194.626 215.592C195.333 215.592 195.939 215.335 196.443 214.821C196.936 214.317 197.182 213.69 197.182 212.94Z" fill="black"/>
<path opacity="0.5" d="M176.871 231.393C176.416 231.393 175.995 231.297 175.609 231.104C175.223 230.906 174.912 230.624 174.677 230.26L175.336 229.504C175.716 230.078 176.231 230.364 176.879 230.364C177.147 230.364 177.364 230.3 177.53 230.172C177.702 230.038 177.787 229.871 177.787 229.673C177.787 229.405 177.603 229.18 177.233 228.998C177.142 228.955 176.946 228.875 176.646 228.757C176.346 228.634 176.113 228.524 175.947 228.427C175.325 228.063 175.014 227.575 175.014 226.964C175.014 226.477 175.196 226.072 175.561 225.75C175.92 225.424 176.394 225.26 176.984 225.26C177.755 225.26 178.39 225.533 178.889 226.08L178.278 226.868C178.117 226.686 177.919 226.544 177.683 226.442C177.453 226.34 177.225 226.289 177 226.289C176.759 226.289 176.563 226.348 176.413 226.466C176.268 226.578 176.196 226.728 176.196 226.916C176.196 227.168 176.359 227.377 176.686 227.543L177.313 227.832C177.565 227.934 177.801 228.041 178.021 228.154C178.674 228.486 179.001 228.971 179.001 229.609C179.001 230.134 178.803 230.563 178.406 230.895C178.01 231.227 177.498 231.393 176.871 231.393ZM182.049 230.22L182.378 231.04C182.035 231.281 181.614 231.401 181.116 231.401C180.119 231.401 179.621 230.833 179.621 229.697V227.816H178.898V226.932H179.637V225.389H180.674V226.932H182.137V227.816H180.674V229.657C180.674 230.182 180.886 230.445 181.309 230.445C181.556 230.445 181.802 230.37 182.049 230.22ZM186.665 229.022C186.665 229.161 186.654 229.317 186.633 229.488H183.305C183.375 229.799 183.522 230.046 183.747 230.228C183.978 230.405 184.275 230.493 184.639 230.493C185.17 230.493 185.65 230.343 186.078 230.043L186.496 230.79C185.955 231.192 185.323 231.393 184.599 231.393C184.203 231.393 183.849 231.329 183.538 231.2C183.233 231.072 182.986 230.9 182.799 230.686C182.611 230.466 182.469 230.225 182.373 229.963C182.281 229.695 182.236 229.411 182.236 229.11C182.236 228.446 182.445 227.902 182.863 227.479C183.286 227.045 183.833 226.828 184.503 226.828C185.13 226.828 185.647 227.026 186.054 227.422C186.461 227.814 186.665 228.347 186.665 229.022ZM184.503 227.704C184.197 227.704 183.937 227.792 183.723 227.969C183.514 228.146 183.375 228.387 183.305 228.692H185.636C185.593 228.387 185.467 228.146 185.258 227.969C185.055 227.792 184.803 227.704 184.503 227.704ZM189.543 226.828C190.159 226.828 190.674 227.05 191.086 227.495C191.494 227.934 191.697 228.473 191.697 229.11C191.697 229.754 191.491 230.297 191.078 230.742C190.671 231.182 190.157 231.401 189.535 231.401C188.978 231.401 188.509 231.184 188.128 230.75V233.089H187.075V226.932H188.12V227.511C188.495 227.055 188.97 226.828 189.543 226.828ZM188.104 229.119C188.104 229.488 188.222 229.804 188.458 230.067C188.694 230.319 188.999 230.445 189.374 230.445C189.749 230.445 190.055 230.319 190.291 230.067C190.526 229.804 190.644 229.488 190.644 229.119C190.644 228.743 190.526 228.43 190.291 228.178C190.055 227.921 189.749 227.792 189.374 227.792C188.999 227.792 188.694 227.921 188.458 228.178C188.222 228.441 188.104 228.754 188.104 229.119ZM195.618 231.401C195.008 231.401 194.525 231.233 194.172 230.895C193.823 230.552 193.649 230.078 193.649 229.472V226.932H194.702V229.472C194.702 229.767 194.782 230.003 194.943 230.18C195.109 230.356 195.334 230.445 195.618 230.445C195.908 230.445 196.133 230.356 196.294 230.18C196.46 230.003 196.543 229.767 196.543 229.472V226.932H197.596V229.472C197.596 230.078 197.419 230.552 197.065 230.895C196.717 231.233 196.235 231.401 195.618 231.401ZM200.67 226.828C201.286 226.828 201.8 227.05 202.213 227.495C202.62 227.934 202.824 228.473 202.824 229.11C202.824 229.754 202.617 230.297 202.205 230.742C201.798 231.182 201.283 231.401 200.661 231.401C200.104 231.401 199.635 231.184 199.255 230.75V233.089H198.202V226.932H199.247V227.511C199.622 227.055 200.096 226.828 200.67 226.828ZM199.231 229.119C199.231 229.488 199.349 229.804 199.584 230.067C199.82 230.319 200.126 230.445 200.501 230.445C200.876 230.445 201.181 230.319 201.417 230.067C201.653 229.804 201.771 229.488 201.771 229.119C201.771 228.743 201.653 228.43 201.417 228.178C201.181 227.921 200.876 227.792 200.501 227.792C200.126 227.792 199.82 227.921 199.584 228.178C199.349 228.441 199.231 228.754 199.231 229.119ZM206.62 229.882L207.657 226.932H208.798L207.03 231.578C206.815 232.119 206.566 232.516 206.282 232.768C206.004 233.025 205.661 233.154 205.253 233.154C204.921 233.154 204.653 233.084 204.45 232.945L204.618 232.061C204.822 232.157 205.007 232.205 205.173 232.205C205.527 232.205 205.811 231.969 206.025 231.498L206.13 231.257L204.224 226.932H205.438L206.62 229.882ZM208.577 229.11C208.577 228.467 208.794 227.926 209.228 227.487C209.673 227.042 210.233 226.82 210.908 226.82C211.588 226.82 212.146 227.042 212.58 227.487C213.019 227.926 213.239 228.467 213.239 229.11C213.239 229.764 213.019 230.311 212.58 230.75C212.146 231.19 211.588 231.409 210.908 231.409C210.227 231.409 209.667 231.19 209.228 230.75C208.794 230.311 208.577 229.764 208.577 229.11ZM212.186 229.11C212.186 228.741 212.063 228.43 211.816 228.178C211.564 227.921 211.262 227.792 210.908 227.792C210.554 227.792 210.251 227.921 210 228.178C209.753 228.43 209.63 228.741 209.63 229.11C209.63 229.486 209.753 229.799 210 230.051C210.251 230.308 210.554 230.437 210.908 230.437C211.262 230.437 211.564 230.308 211.816 230.051C212.063 229.799 212.186 229.486 212.186 229.11ZM215.573 231.401C214.962 231.401 214.48 231.233 214.126 230.895C213.778 230.552 213.603 230.078 213.603 229.472V226.932H214.656V229.472C214.656 229.767 214.737 230.003 214.898 230.18C215.064 230.356 215.289 230.445 215.573 230.445C215.862 230.445 216.087 230.356 216.248 230.18C216.414 230.003 216.497 229.767 216.497 229.472V226.932H217.55V229.472C217.55 230.078 217.373 230.552 217.02 230.895C216.671 231.233 216.189 231.401 215.573 231.401ZM219.201 231.297H218.156V226.932H219.161V227.535C219.429 227.058 219.833 226.82 220.375 226.82C220.557 226.82 220.731 226.849 220.897 226.908L220.809 227.913C220.621 227.854 220.452 227.824 220.302 227.824C219.965 227.824 219.697 227.94 219.499 228.17C219.3 228.395 219.201 228.727 219.201 229.167V231.297ZM224.907 226.828C225.523 226.828 226.038 227.05 226.45 227.495C226.857 227.934 227.061 228.473 227.061 229.11C227.061 229.754 226.855 230.297 226.442 230.742C226.035 231.182 225.52 231.401 224.899 231.401C224.341 231.401 223.873 231.184 223.492 230.75V233.089H222.439V226.932H223.484V227.511C223.859 227.055 224.333 226.828 224.907 226.828ZM223.468 229.119C223.468 229.488 223.586 229.804 223.822 230.067C224.057 230.319 224.363 230.445 224.738 230.445C225.113 230.445 225.419 230.319 225.654 230.067C225.89 229.804 226.008 229.488 226.008 229.119C226.008 228.743 225.89 228.43 225.654 228.178C225.419 227.921 225.113 227.792 224.738 227.792C224.363 227.792 224.057 227.921 223.822 228.178C223.586 228.441 223.468 228.754 223.468 229.119ZM228.53 231.297H227.485V226.932H228.49V227.535C228.758 227.058 229.162 226.82 229.703 226.82C229.886 226.82 230.06 226.849 230.226 226.908L230.138 227.913C229.95 227.854 229.781 227.824 229.631 227.824C229.294 227.824 229.026 227.94 228.827 228.17C228.629 228.395 228.53 228.727 228.53 229.167V231.297ZM230.005 229.11C230.005 228.467 230.222 227.926 230.656 227.487C231.101 227.042 231.661 226.82 232.336 226.82C233.017 226.82 233.574 227.042 234.008 227.487C234.448 227.926 234.668 228.467 234.668 229.11C234.668 229.764 234.448 230.311 234.008 230.75C233.574 231.19 233.017 231.409 232.336 231.409C231.656 231.409 231.096 231.19 230.656 230.75C230.222 230.311 230.005 229.764 230.005 229.11ZM233.615 229.11C233.615 228.741 233.491 228.43 233.245 228.178C232.993 227.921 232.69 227.792 232.336 227.792C231.983 227.792 231.68 227.921 231.428 228.178C231.182 228.43 231.058 228.741 231.058 229.11C231.058 229.486 231.182 229.799 231.428 230.051C231.68 230.308 231.983 230.437 232.336 230.437C232.69 230.437 232.993 230.308 233.245 230.051C233.491 229.799 233.615 229.486 233.615 229.11ZM237.775 230.22L238.104 231.04C237.761 231.281 237.341 231.401 236.842 231.401C235.846 231.401 235.347 230.833 235.347 229.697V227.816H234.624V226.932H235.363V225.389H236.4V226.932H237.863V227.816H236.4V229.657C236.4 230.182 236.612 230.445 237.035 230.445C237.282 230.445 237.528 230.37 237.775 230.22ZM242.391 229.022C242.391 229.161 242.381 229.317 242.359 229.488H239.031C239.101 229.799 239.248 230.046 239.473 230.228C239.704 230.405 240.001 230.493 240.366 230.493C240.896 230.493 241.376 230.343 241.804 230.043L242.222 230.79C241.681 231.192 241.049 231.393 240.325 231.393C239.929 231.393 239.575 231.329 239.264 231.2C238.959 231.072 238.712 230.9 238.525 230.686C238.337 230.466 238.195 230.225 238.099 229.963C238.008 229.695 237.962 229.411 237.962 229.11C237.962 228.446 238.171 227.902 238.589 227.479C239.013 227.045 239.559 226.828 240.229 226.828C240.856 226.828 241.373 227.026 241.78 227.422C242.188 227.814 242.391 228.347 242.391 229.022ZM240.229 227.704C239.924 227.704 239.664 227.792 239.449 227.969C239.24 228.146 239.101 228.387 239.031 228.692H241.362C241.32 228.387 241.194 228.146 240.985 227.969C240.781 227.792 240.529 227.704 240.229 227.704ZM243.356 226.41C243.163 226.41 243.003 226.348 242.874 226.225C242.745 226.101 242.681 225.943 242.681 225.75C242.681 225.563 242.745 225.407 242.874 225.284C243.008 225.156 243.169 225.091 243.356 225.091C243.544 225.091 243.699 225.156 243.822 225.284C243.951 225.407 244.015 225.563 244.015 225.75C244.015 225.943 243.951 226.101 243.822 226.225C243.699 226.348 243.544 226.41 243.356 226.41ZM243.871 226.932V231.297H242.818V226.932H243.871ZM245.556 231.297H244.511V226.932H245.54V227.543C245.658 227.318 245.838 227.141 246.079 227.012C246.32 226.884 246.599 226.82 246.915 226.82C247.392 226.82 247.796 226.978 248.129 227.294C248.461 227.61 248.627 228.057 248.627 228.636V231.297H247.574V228.926C247.574 228.567 247.488 228.285 247.317 228.082C247.145 227.878 246.912 227.776 246.617 227.776C246.307 227.776 246.052 227.886 245.854 228.106C245.655 228.32 245.556 228.599 245.556 228.942V231.297ZM254.18 227.455V226.932H255.16V230.863C255.16 231.559 254.938 232.114 254.493 232.527C254.048 232.939 253.47 233.146 252.757 233.146C252.017 233.146 251.356 232.937 250.771 232.519L251.197 231.723C251.685 232.066 252.197 232.237 252.733 232.237C253.172 232.237 253.518 232.119 253.77 231.884C254.022 231.653 254.148 231.348 254.148 230.967V230.71C253.794 231.107 253.33 231.305 252.757 231.305C252.119 231.305 251.597 231.093 251.189 230.67C250.782 230.247 250.579 229.713 250.579 229.07C250.579 228.416 250.79 227.881 251.214 227.463C251.637 227.039 252.165 226.828 252.797 226.828C253.354 226.828 253.815 227.037 254.18 227.455ZM252.91 230.389C253.274 230.389 253.577 230.265 253.818 230.019C254.059 229.767 254.18 229.453 254.18 229.078C254.18 228.703 254.059 228.395 253.818 228.154C253.577 227.907 253.274 227.784 252.91 227.784C252.54 227.784 252.234 227.907 251.993 228.154C251.752 228.395 251.632 228.703 251.632 229.078C251.632 229.453 251.752 229.767 251.993 230.019C252.234 230.265 252.54 230.389 252.91 230.389ZM259.17 227.487V226.932H260.167V231.297H259.17V230.758C258.79 231.187 258.316 231.401 257.747 231.401C257.12 231.401 256.603 231.182 256.196 230.742C255.789 230.303 255.585 229.754 255.585 229.094C255.585 228.435 255.789 227.894 256.196 227.471C256.609 227.042 257.126 226.828 257.747 226.828C258.305 226.828 258.779 227.047 259.17 227.487ZM259.194 229.11C259.194 228.741 259.074 228.427 258.833 228.17C258.591 227.913 258.283 227.784 257.908 227.784C257.533 227.784 257.225 227.913 256.984 228.17C256.748 228.433 256.63 228.746 256.63 229.11C256.63 229.48 256.748 229.796 256.984 230.059C257.225 230.316 257.533 230.445 257.908 230.445C258.283 230.445 258.591 230.316 258.833 230.059C259.074 229.802 259.194 229.486 259.194 229.11ZM266.058 226.812C266.572 226.812 266.995 226.978 267.328 227.31C267.66 227.642 267.826 228.095 267.826 228.668V231.297H266.773V228.861C266.773 228.513 266.69 228.245 266.524 228.057C266.363 227.87 266.143 227.776 265.865 227.776C265.57 227.776 265.329 227.878 265.141 228.082C264.954 228.285 264.86 228.556 264.86 228.893V231.297H263.815V228.869C263.815 228.532 263.729 228.266 263.558 228.074C263.392 227.875 263.169 227.776 262.891 227.776C262.596 227.776 262.352 227.881 262.159 228.09C261.972 228.293 261.878 228.564 261.878 228.901V231.297H260.833V226.932H261.862V227.559C261.985 227.329 262.164 227.146 262.4 227.012C262.641 226.879 262.904 226.812 263.188 226.812C263.483 226.817 263.745 226.887 263.976 227.021C264.206 227.154 264.378 227.345 264.49 227.591C264.646 227.345 264.863 227.154 265.141 227.021C265.42 226.881 265.725 226.812 266.058 226.812ZM272.634 229.022C272.634 229.161 272.623 229.317 272.602 229.488H269.274C269.343 229.799 269.491 230.046 269.716 230.228C269.946 230.405 270.244 230.493 270.608 230.493C271.139 230.493 271.618 230.343 272.047 230.043L272.465 230.79C271.924 231.192 271.291 231.393 270.568 231.393C270.171 231.393 269.818 231.329 269.507 231.2C269.201 231.072 268.955 230.9 268.767 230.686C268.58 230.466 268.438 230.225 268.341 229.963C268.25 229.695 268.205 229.411 268.205 229.11C268.205 228.446 268.414 227.902 268.832 227.479C269.255 227.045 269.802 226.828 270.471 226.828C271.098 226.828 271.616 227.026 272.023 227.422C272.43 227.814 272.634 228.347 272.634 229.022ZM270.471 227.704C270.166 227.704 269.906 227.792 269.692 227.969C269.483 228.146 269.343 228.387 269.274 228.692H271.605C271.562 228.387 271.436 228.146 271.227 227.969C271.023 227.792 270.772 227.704 270.471 227.704Z" fill="black"/>
<rect x="50.2512" y="80.2512" width="173.737" height="80.5264" rx="8.38279" stroke="white" stroke-opacity="0.2" stroke-width="0.502392"/>
<path d="M96.8875 110.99C96.3865 110.287 95.5719 109.867 94.7092 109.867H83.4904C82.6276 109.867 81.8131 110.287 81.2571 111.072L75.8983 119.888C75.5915 120.393 75.6504 121.04 76.047 121.48L88.1044 134.877C88.3576 135.161 88.7206 135.322 89.0998 135.322C89.4789 135.322 89.842 135.161 90.0952 134.878L102.153 121.481C102.549 121.042 102.609 120.393 102.301 119.89L96.8875 110.99ZM89.0998 131.979L80.05 121.925H98.1482L89.0998 131.979ZM79.423 119.245L83.4904 112.547L94.6529 112.464L98.7752 119.245H79.423Z" fill="white"/>
<path d="M123.484 120.023H120.879L118.227 115.57H116.764V120.023H114.577V108.143H118.998C120.285 108.143 121.271 108.502 121.957 109.22C122.643 109.938 122.985 110.817 122.985 111.857C122.985 112.66 122.771 113.373 122.342 113.995C121.914 114.616 121.297 115.056 120.494 115.313L123.484 120.023ZM118.998 110.185H116.764V113.593H118.757C119.4 113.593 119.888 113.432 120.22 113.111C120.563 112.789 120.735 112.376 120.735 111.873C120.735 111.38 120.579 110.978 120.269 110.667C119.958 110.345 119.534 110.185 118.998 110.185ZM132.3 115.474C132.3 115.752 132.279 116.063 132.236 116.406H125.58C125.72 117.028 126.015 117.521 126.465 117.885C126.926 118.239 127.52 118.416 128.249 118.416C129.31 118.416 130.269 118.116 131.127 117.515L131.963 119.011C130.88 119.814 129.616 120.216 128.169 120.216C127.376 120.216 126.668 120.088 126.047 119.831C125.436 119.573 124.943 119.23 124.568 118.802C124.193 118.362 123.908 117.88 123.716 117.355C123.533 116.819 123.442 116.251 123.442 115.651C123.442 114.322 123.86 113.234 124.696 112.387C125.543 111.519 126.636 111.085 127.976 111.085C129.23 111.085 130.264 111.481 131.079 112.275C131.893 113.057 132.3 114.123 132.3 115.474ZM127.976 112.837C127.365 112.837 126.845 113.014 126.416 113.368C125.998 113.721 125.72 114.204 125.58 114.815H130.243C130.157 114.204 129.905 113.721 129.487 113.368C129.08 113.014 128.576 112.837 127.976 112.837ZM139.857 112.339V111.294H141.819V119.155C141.819 120.549 141.374 121.658 140.484 122.483C139.595 123.308 138.437 123.721 137.012 123.721C135.533 123.721 134.209 123.303 133.041 122.467L133.893 120.875C134.868 121.561 135.892 121.904 136.963 121.904C137.842 121.904 138.534 121.669 139.037 121.197C139.541 120.736 139.793 120.125 139.793 119.364V118.85C139.086 119.643 138.158 120.04 137.012 120.04C135.736 120.04 134.691 119.616 133.877 118.769C133.062 117.923 132.655 116.856 132.655 115.57C132.655 114.263 133.078 113.191 133.925 112.355C134.772 111.508 135.827 111.085 137.092 111.085C138.207 111.085 139.128 111.503 139.857 112.339ZM137.317 118.207C138.046 118.207 138.651 117.96 139.134 117.467C139.616 116.964 139.857 116.337 139.857 115.586C139.857 114.836 139.616 114.22 139.134 113.738C138.651 113.244 138.046 112.998 137.317 112.998C136.578 112.998 135.967 113.244 135.484 113.738C135.002 114.22 134.761 114.836 134.761 115.586C134.761 116.337 135.002 116.964 135.484 117.467C135.967 117.96 136.578 118.207 137.317 118.207ZM146.961 120.232C145.739 120.232 144.774 119.895 144.067 119.22C143.37 118.534 143.022 117.585 143.022 116.374V111.294H145.128V116.374C145.128 116.964 145.289 117.435 145.61 117.789C145.942 118.142 146.393 118.319 146.961 118.319C147.539 118.319 147.99 118.142 148.311 117.789C148.643 117.435 148.809 116.964 148.809 116.374V111.294H150.915V116.374C150.915 117.585 150.562 118.534 149.854 119.22C149.158 119.895 148.193 120.232 146.961 120.232ZM154.217 107.805V120.023H152.127V107.805H154.217ZM162.251 112.403V111.294H164.244V120.023H162.251V118.946C161.49 119.804 160.541 120.232 159.405 120.232C158.151 120.232 157.117 119.793 156.302 118.914C155.488 118.035 155.08 116.937 155.08 115.618C155.08 114.3 155.488 113.218 156.302 112.371C157.128 111.514 158.162 111.085 159.405 111.085C160.52 111.085 161.468 111.524 162.251 112.403ZM162.299 115.651C162.299 114.911 162.058 114.284 161.575 113.77C161.093 113.255 160.477 112.998 159.727 112.998C158.976 112.998 158.36 113.255 157.878 113.77C157.406 114.295 157.17 114.922 157.17 115.651C157.17 116.39 157.406 117.022 157.878 117.548C158.36 118.062 158.976 118.319 159.727 118.319C160.477 118.319 161.093 118.062 161.575 117.548C162.058 117.033 162.299 116.401 162.299 115.651ZM167.666 120.023H165.576V111.294H167.585V112.5C168.121 111.546 168.93 111.069 170.013 111.069C170.377 111.069 170.725 111.128 171.058 111.246L170.881 113.255C170.506 113.137 170.168 113.078 169.868 113.078C169.193 113.078 168.657 113.309 168.26 113.77C167.864 114.22 167.666 114.884 167.666 115.763V120.023Z" fill="white"/>
<path opacity="0.5" d="M117.286 130.752C117.645 130.849 117.921 131.036 118.114 131.315C118.313 131.588 118.412 131.91 118.412 132.28C118.412 132.762 118.243 133.172 117.905 133.509C117.562 133.842 117.107 134.008 116.539 134.008H113.894V128.068H116.418C116.949 128.068 117.361 128.215 117.656 128.51C117.951 128.804 118.098 129.15 118.098 129.547C118.098 129.82 118.023 130.069 117.873 130.294C117.723 130.514 117.527 130.667 117.286 130.752ZM116.241 129.04H114.979V130.415H116.201C116.448 130.415 116.641 130.348 116.78 130.214C116.925 130.08 116.997 129.911 116.997 129.707C116.997 129.52 116.927 129.362 116.788 129.233C116.654 129.104 116.472 129.04 116.241 129.04ZM114.979 133.027H116.33C116.619 133.027 116.85 132.947 117.021 132.786C117.193 132.625 117.278 132.43 117.278 132.199C117.278 131.953 117.193 131.749 117.021 131.588C116.855 131.428 116.625 131.347 116.33 131.347H114.979V133.027ZM123.054 131.733C123.054 131.872 123.043 132.028 123.022 132.199H119.694C119.764 132.51 119.911 132.757 120.136 132.939C120.367 133.116 120.664 133.204 121.028 133.204C121.559 133.204 122.038 133.054 122.467 132.754L122.885 133.501C122.344 133.903 121.712 134.104 120.988 134.104C120.592 134.104 120.238 134.04 119.927 133.911C119.622 133.783 119.375 133.611 119.188 133.397C119 133.177 118.858 132.936 118.762 132.673C118.67 132.406 118.625 132.121 118.625 131.821C118.625 131.157 118.834 130.613 119.252 130.19C119.675 129.756 120.222 129.539 120.892 129.539C121.519 129.539 122.036 129.737 122.443 130.133C122.85 130.525 123.054 131.058 123.054 131.733ZM120.892 130.415C120.586 130.415 120.326 130.503 120.112 130.68C119.903 130.857 119.764 131.098 119.694 131.403H122.025C121.982 131.098 121.856 130.857 121.647 130.68C121.444 130.503 121.192 130.415 120.892 130.415ZM124.855 134.12C124.1 134.12 123.513 133.831 123.095 133.252L123.69 132.609C123.834 132.802 124.011 132.955 124.22 133.067C124.435 133.175 124.649 133.228 124.863 133.228C125.051 133.228 125.204 133.185 125.322 133.099C125.445 133.008 125.506 132.899 125.506 132.77C125.506 132.598 125.397 132.459 125.177 132.352C125.107 132.309 124.93 132.237 124.646 132.135C124.394 132.038 124.21 131.961 124.092 131.902C123.604 131.661 123.36 131.291 123.36 130.793C123.36 130.412 123.505 130.101 123.794 129.86C124.084 129.619 124.467 129.498 124.944 129.498C125.56 129.498 126.058 129.713 126.439 130.141L125.892 130.809C125.608 130.508 125.281 130.358 124.912 130.358C124.751 130.358 124.622 130.399 124.526 130.479C124.429 130.554 124.381 130.65 124.381 130.768C124.381 130.961 124.507 131.103 124.759 131.194C125.397 131.446 125.748 131.591 125.812 131.628C126.305 131.896 126.551 132.266 126.551 132.738C126.551 133.134 126.396 133.464 126.085 133.726C125.774 133.989 125.364 134.12 124.855 134.12ZM129.65 132.931L129.98 133.751C129.637 133.992 129.216 134.112 128.718 134.112C127.721 134.112 127.223 133.544 127.223 132.408V130.527H126.499V129.643H127.239V128.1H128.276V129.643H129.739V130.527H128.276V132.368C128.276 132.893 128.487 133.156 128.911 133.156C129.157 133.156 129.404 133.081 129.65 132.931ZM133.608 134H132.699L131.212 129.643H132.306L133.222 132.601L134.259 129.643H134.99L136.051 132.601L136.944 129.643H138.037L136.574 134H135.666L134.629 131.146L133.608 134ZM141.474 130.198V129.643H142.47V134.008H141.474V133.469C141.093 133.898 140.619 134.112 140.051 134.112C139.424 134.112 138.907 133.893 138.499 133.453C138.092 133.014 137.889 132.464 137.889 131.805C137.889 131.146 138.092 130.605 138.499 130.182C138.912 129.753 139.429 129.539 140.051 129.539C140.608 129.539 141.082 129.758 141.474 130.198ZM141.498 131.821C141.498 131.452 141.377 131.138 141.136 130.881C140.895 130.624 140.587 130.495 140.212 130.495C139.836 130.495 139.528 130.624 139.287 130.881C139.051 131.144 138.933 131.457 138.933 131.821C138.933 132.191 139.051 132.507 139.287 132.77C139.528 133.027 139.836 133.156 140.212 133.156C140.587 133.156 140.895 133.027 141.136 132.77C141.377 132.513 141.498 132.197 141.498 131.821ZM145.073 132.593L146.11 129.643H147.252L145.483 134.289C145.269 134.83 145.02 135.227 144.736 135.479C144.457 135.736 144.114 135.865 143.707 135.865C143.375 135.865 143.107 135.795 142.903 135.656L143.072 134.771C143.275 134.868 143.46 134.916 143.626 134.916C143.98 134.916 144.264 134.68 144.479 134.209L144.583 133.968L142.678 129.643H143.892L145.073 132.593ZM151.668 132.931L151.997 133.751C151.654 133.992 151.234 134.112 150.735 134.112C149.738 134.112 149.24 133.544 149.24 132.408V130.527H148.517V129.643H149.256V128.1H150.293V129.643H151.756V130.527H150.293V132.368C150.293 132.893 150.505 133.156 150.928 133.156C151.175 133.156 151.421 133.081 151.668 132.931ZM151.847 131.821C151.847 131.178 152.064 130.637 152.498 130.198C152.943 129.753 153.503 129.53 154.178 129.53C154.859 129.53 155.416 129.753 155.85 130.198C156.289 130.637 156.509 131.178 156.509 131.821C156.509 132.475 156.289 133.022 155.85 133.461C155.416 133.901 154.859 134.12 154.178 134.12C153.497 134.12 152.937 133.901 152.498 133.461C152.064 133.022 151.847 132.475 151.847 131.821ZM155.456 131.821C155.456 131.452 155.333 131.141 155.086 130.889C154.835 130.632 154.532 130.503 154.178 130.503C153.824 130.503 153.522 130.632 153.27 130.889C153.023 131.141 152.9 131.452 152.9 131.821C152.9 132.197 153.023 132.51 153.27 132.762C153.522 133.019 153.824 133.148 154.178 133.148C154.532 133.148 154.835 133.019 155.086 132.762C155.333 132.51 155.456 132.197 155.456 131.821ZM161.882 130.166V129.643H162.863V133.574C162.863 134.27 162.64 134.825 162.196 135.238C161.751 135.65 161.172 135.857 160.459 135.857C159.72 135.857 159.058 135.648 158.474 135.23L158.9 134.434C159.388 134.777 159.899 134.948 160.435 134.948C160.875 134.948 161.22 134.83 161.472 134.595C161.724 134.364 161.85 134.059 161.85 133.678V133.421C161.496 133.818 161.033 134.016 160.459 134.016C159.822 134.016 159.299 133.804 158.892 133.381C158.485 132.957 158.281 132.424 158.281 131.781C158.281 131.127 158.493 130.592 158.916 130.174C159.339 129.75 159.867 129.539 160.499 129.539C161.057 129.539 161.518 129.748 161.882 130.166ZM160.612 133.099C160.976 133.099 161.279 132.976 161.52 132.73C161.761 132.478 161.882 132.164 161.882 131.789C161.882 131.414 161.761 131.106 161.52 130.865C161.279 130.618 160.976 130.495 160.612 130.495C160.242 130.495 159.937 130.618 159.696 130.865C159.454 131.106 159.334 131.414 159.334 131.789C159.334 132.164 159.454 132.478 159.696 132.73C159.937 132.976 160.242 133.099 160.612 133.099ZM167.717 131.733C167.717 131.872 167.706 132.028 167.684 132.199H164.357C164.426 132.51 164.574 132.757 164.799 132.939C165.029 133.116 165.327 133.204 165.691 133.204C166.222 133.204 166.701 133.054 167.13 132.754L167.548 133.501C167.007 133.903 166.374 134.104 165.651 134.104C165.254 134.104 164.901 134.04 164.59 133.911C164.284 133.783 164.038 133.611 163.85 133.397C163.663 133.177 163.521 132.936 163.424 132.673C163.333 132.406 163.288 132.121 163.288 131.821C163.288 131.157 163.497 130.613 163.915 130.19C164.338 129.756 164.884 129.539 165.554 129.539C166.181 129.539 166.698 129.737 167.106 130.133C167.513 130.525 167.717 131.058 167.717 131.733ZM165.554 130.415C165.249 130.415 164.989 130.503 164.775 130.68C164.566 130.857 164.426 131.098 164.357 131.403H166.688C166.645 131.098 166.519 130.857 166.31 130.68C166.106 130.503 165.854 130.415 165.554 130.415ZM170.821 132.931L171.151 133.751C170.808 133.992 170.387 134.112 169.889 134.112C168.892 134.112 168.394 133.544 168.394 132.408V130.527H167.67V129.643H168.41V128.1H169.447V129.643H170.91V130.527H169.447V132.368C169.447 132.893 169.658 133.156 170.082 133.156C170.328 133.156 170.575 133.081 170.821 132.931ZM174.295 134.12C173.54 134.12 172.953 133.831 172.535 133.252L173.13 132.609C173.275 132.802 173.451 132.955 173.66 133.067C173.875 133.175 174.089 133.228 174.303 133.228C174.491 133.228 174.644 133.185 174.762 133.099C174.885 133.008 174.947 132.899 174.947 132.77C174.947 132.598 174.837 132.459 174.617 132.352C174.547 132.309 174.37 132.237 174.086 132.135C173.835 132.038 173.65 131.961 173.532 131.902C173.044 131.661 172.8 131.291 172.8 130.793C172.8 130.412 172.945 130.101 173.234 129.86C173.524 129.619 173.907 129.498 174.384 129.498C175 129.498 175.498 129.713 175.879 130.141L175.332 130.809C175.048 130.508 174.721 130.358 174.352 130.358C174.191 130.358 174.062 130.399 173.966 130.479C173.869 130.554 173.821 130.65 173.821 130.768C173.821 130.961 173.947 131.103 174.199 131.194C174.837 131.446 175.188 131.591 175.252 131.628C175.745 131.896 175.991 132.266 175.991 132.738C175.991 133.134 175.836 133.464 175.525 133.726C175.214 133.989 174.805 134.12 174.295 134.12ZM179.09 132.931L179.42 133.751C179.077 133.992 178.656 134.112 178.158 134.112C177.161 134.112 176.663 133.544 176.663 132.408V130.527H175.939V129.643H176.679V128.1H177.716V129.643H179.179V130.527H177.716V132.368C177.716 132.893 177.927 133.156 178.351 133.156C178.597 133.156 178.844 133.081 179.09 132.931ZM182.863 130.198V129.643H183.86V134.008H182.863V133.469C182.482 133.898 182.008 134.112 181.44 134.112C180.813 134.112 180.296 133.893 179.889 133.453C179.481 133.014 179.278 132.464 179.278 131.805C179.278 131.146 179.481 130.605 179.889 130.182C180.301 129.753 180.818 129.539 181.44 129.539C181.997 129.539 182.472 129.758 182.863 130.198ZM182.887 131.821C182.887 131.452 182.766 131.138 182.525 130.881C182.284 130.624 181.976 130.495 181.601 130.495C181.226 130.495 180.918 130.624 180.676 130.881C180.441 131.144 180.323 131.457 180.323 131.821C180.323 132.191 180.441 132.507 180.676 132.77C180.918 133.027 181.226 133.156 181.601 133.156C181.976 133.156 182.284 133.027 182.525 132.77C182.766 132.513 182.887 132.197 182.887 131.821ZM185.57 134.008H184.525V129.643H185.53V130.246C185.798 129.769 186.203 129.53 186.744 129.53C186.926 129.53 187.1 129.56 187.266 129.619L187.178 130.624C186.99 130.565 186.822 130.535 186.672 130.535C186.334 130.535 186.066 130.65 185.868 130.881C185.669 131.106 185.57 131.438 185.57 131.878V134.008ZM190.303 132.931L190.633 133.751C190.29 133.992 189.869 134.112 189.371 134.112C188.374 134.112 187.876 133.544 187.876 132.408V130.527H187.152V129.643H187.892V128.1H188.929V129.643H190.392V130.527H188.929V132.368C188.929 132.893 189.14 133.156 189.564 133.156C189.81 133.156 190.057 133.081 190.303 132.931ZM194.92 131.733C194.92 131.872 194.909 132.028 194.887 132.199H191.56C191.629 132.51 191.777 132.757 192.002 132.939C192.232 133.116 192.53 133.204 192.894 133.204C193.424 133.204 193.904 133.054 194.333 132.754L194.751 133.501C194.21 133.903 193.577 134.104 192.854 134.104C192.457 134.104 192.104 134.04 191.793 133.911C191.487 133.783 191.241 133.611 191.053 133.397C190.866 133.177 190.724 132.936 190.627 132.673C190.536 132.406 190.491 132.121 190.491 131.821C190.491 131.157 190.7 130.613 191.118 130.19C191.541 129.756 192.087 129.539 192.757 129.539C193.384 129.539 193.901 129.737 194.309 130.133C194.716 130.525 194.92 131.058 194.92 131.733ZM192.757 130.415C192.452 130.415 192.192 130.503 191.978 130.68C191.769 130.857 191.629 131.098 191.56 131.403H193.891C193.848 131.098 193.722 130.857 193.513 130.68C193.309 130.503 193.057 130.415 192.757 130.415ZM198.634 130.198V127.899H199.679V134.008H198.658V133.437C198.293 133.887 197.83 134.112 197.267 134.112C196.64 134.112 196.123 133.895 195.716 133.461C195.303 133.016 195.097 132.47 195.097 131.821C195.097 131.184 195.303 130.642 195.716 130.198C196.134 129.758 196.648 129.539 197.259 129.539C197.816 129.539 198.275 129.758 198.634 130.198ZM197.412 133.156C197.792 133.156 198.1 133.027 198.336 132.77C198.572 132.507 198.69 132.191 198.69 131.821C198.69 131.452 198.569 131.138 198.328 130.881C198.098 130.624 197.792 130.495 197.412 130.495C197.031 130.495 196.726 130.624 196.495 130.881C196.26 131.144 196.142 131.457 196.142 131.821C196.142 132.191 196.26 132.507 196.495 132.77C196.726 133.027 197.031 133.156 197.412 133.156Z" fill="white"/>
</svg>
