<svg width="247" height="179" viewBox="0 0 247 179" fill="none" xmlns="http://www.w3.org/2000/svg">
<rect x="61.2969" y="97.2891" width="185.239" height="81.0288" rx="8.63399" fill="#F4DC0B"/>
<rect x="61.5481" y="97.5403" width="184.737" height="80.5264" rx="8.38279" stroke="black" stroke-opacity="0.2" stroke-width="0.502392"/>
<path d="M108.184 128.279C107.683 127.576 106.869 127.156 106.006 127.156H94.7873C93.9245 127.156 93.11 127.576 92.554 128.361L87.1951 137.177C86.8883 137.682 86.9473 138.329 87.3438 138.769L99.4013 152.166C99.6545 152.45 100.018 152.611 100.397 152.611C100.776 152.611 101.139 152.45 101.392 152.167L113.449 138.77C113.846 138.331 113.906 137.682 113.598 137.179L108.184 128.279ZM100.397 149.268L91.3469 139.214H109.445L100.397 149.268ZM90.7199 136.534L94.7873 129.836L105.95 129.753L110.072 136.534H90.7199Z" fill="black"/>
<path d="M125.874 125.432H130.167C131.517 125.432 132.541 125.812 133.237 126.573C133.923 127.324 134.266 128.235 134.266 129.306C134.266 130.4 133.907 131.305 133.189 132.023C132.482 132.752 131.415 133.117 129.99 133.117H128.061V137.312H125.874V125.432ZM128.061 131.107H130.054C130.676 131.107 131.158 130.935 131.501 130.593C131.855 130.239 132.032 129.799 132.032 129.274C132.032 128.749 131.866 128.32 131.533 127.988C131.212 127.645 130.772 127.474 130.215 127.474H128.061V131.107ZM137.013 137.312H134.923V128.583H136.932V129.789C137.468 128.835 138.277 128.358 139.36 128.358C139.724 128.358 140.073 128.417 140.405 128.535L140.228 130.544C139.853 130.426 139.515 130.367 139.215 130.367C138.54 130.367 138.004 130.598 137.608 131.059C137.211 131.509 137.013 132.173 137.013 133.052V137.312ZM139.964 132.94C139.964 131.654 140.398 130.571 141.266 129.692C142.155 128.803 143.275 128.358 144.626 128.358C145.987 128.358 147.102 128.803 147.97 129.692C148.849 130.571 149.288 131.654 149.288 132.94C149.288 134.247 148.849 135.34 147.97 136.219C147.102 137.098 145.987 137.538 144.626 137.538C143.265 137.538 142.145 137.098 141.266 136.219C140.398 135.34 139.964 134.247 139.964 132.94ZM147.182 132.94C147.182 132.2 146.936 131.579 146.443 131.075C145.939 130.56 145.333 130.303 144.626 130.303C143.918 130.303 143.313 130.56 142.809 131.075C142.316 131.579 142.07 132.2 142.07 132.94C142.07 133.69 142.316 134.317 142.809 134.821C143.313 135.335 143.918 135.592 144.626 135.592C145.333 135.592 145.939 135.335 146.443 134.821C146.936 134.317 147.182 133.69 147.182 132.94Z" fill="black"/>
<path opacity="0.5" d="M126.871 151.393C126.416 151.393 125.995 151.297 125.609 151.104C125.223 150.906 124.912 150.624 124.677 150.26L125.336 149.504C125.716 150.078 126.231 150.364 126.879 150.364C127.147 150.364 127.364 150.3 127.53 150.172C127.702 150.038 127.787 149.871 127.787 149.673C127.787 149.405 127.603 149.18 127.233 148.998C127.142 148.955 126.946 148.875 126.646 148.757C126.346 148.634 126.113 148.524 125.947 148.427C125.325 148.063 125.014 147.575 125.014 146.964C125.014 146.477 125.196 146.072 125.561 145.75C125.92 145.424 126.394 145.26 126.984 145.26C127.755 145.26 128.39 145.533 128.889 146.08L128.278 146.868C128.117 146.686 127.919 146.544 127.683 146.442C127.453 146.34 127.225 146.289 127 146.289C126.759 146.289 126.563 146.348 126.413 146.466C126.268 146.578 126.196 146.728 126.196 146.916C126.196 147.168 126.359 147.377 126.686 147.543L127.313 147.832C127.565 147.934 127.801 148.041 128.021 148.154C128.674 148.486 129.001 148.971 129.001 149.609C129.001 150.134 128.803 150.563 128.406 150.895C128.01 151.227 127.498 151.393 126.871 151.393ZM132.049 150.22L132.378 151.04C132.035 151.281 131.614 151.401 131.116 151.401C130.119 151.401 129.621 150.833 129.621 149.697V147.816H128.898V146.932H129.637V145.389H130.674V146.932H132.137V147.816H130.674V149.657C130.674 150.182 130.886 150.445 131.309 150.445C131.556 150.445 131.802 150.37 132.049 150.22ZM136.665 149.022C136.665 149.161 136.654 149.317 136.633 149.488H133.305C133.375 149.799 133.522 150.046 133.747 150.228C133.978 150.405 134.275 150.493 134.639 150.493C135.17 150.493 135.65 150.343 136.078 150.043L136.496 150.79C135.955 151.192 135.323 151.393 134.599 151.393C134.203 151.393 133.849 151.329 133.538 151.2C133.233 151.072 132.986 150.9 132.799 150.686C132.611 150.466 132.469 150.225 132.373 149.963C132.281 149.695 132.236 149.411 132.236 149.11C132.236 148.446 132.445 147.902 132.863 147.479C133.286 147.045 133.833 146.828 134.503 146.828C135.13 146.828 135.647 147.026 136.054 147.422C136.461 147.814 136.665 148.347 136.665 149.022ZM134.503 147.704C134.197 147.704 133.937 147.792 133.723 147.969C133.514 148.146 133.375 148.387 133.305 148.692H135.636C135.593 148.387 135.467 148.146 135.258 147.969C135.055 147.792 134.803 147.704 134.503 147.704ZM139.543 146.828C140.159 146.828 140.674 147.05 141.086 147.495C141.494 147.934 141.697 148.473 141.697 149.11C141.697 149.754 141.491 150.297 141.078 150.742C140.671 151.182 140.157 151.401 139.535 151.401C138.978 151.401 138.509 151.184 138.128 150.75V153.089H137.075V146.932H138.12V147.511C138.495 147.055 138.97 146.828 139.543 146.828ZM138.104 149.119C138.104 149.488 138.222 149.804 138.458 150.067C138.694 150.319 138.999 150.445 139.374 150.445C139.749 150.445 140.055 150.319 140.291 150.067C140.526 149.804 140.644 149.488 140.644 149.119C140.644 148.743 140.526 148.43 140.291 148.178C140.055 147.921 139.749 147.792 139.374 147.792C138.999 147.792 138.694 147.921 138.458 148.178C138.222 148.441 138.104 148.754 138.104 149.119ZM145.618 151.401C145.008 151.401 144.525 151.233 144.172 150.895C143.823 150.552 143.649 150.078 143.649 149.472V146.932H144.702V149.472C144.702 149.767 144.782 150.003 144.943 150.18C145.109 150.356 145.334 150.445 145.618 150.445C145.908 150.445 146.133 150.356 146.294 150.18C146.46 150.003 146.543 149.767 146.543 149.472V146.932H147.596V149.472C147.596 150.078 147.419 150.552 147.065 150.895C146.717 151.233 146.235 151.401 145.618 151.401ZM150.67 146.828C151.286 146.828 151.8 147.05 152.213 147.495C152.62 147.934 152.824 148.473 152.824 149.11C152.824 149.754 152.617 150.297 152.205 150.742C151.798 151.182 151.283 151.401 150.661 151.401C150.104 151.401 149.635 151.184 149.255 150.75V153.089H148.202V146.932H149.247V147.511C149.622 147.055 150.096 146.828 150.67 146.828ZM149.231 149.119C149.231 149.488 149.349 149.804 149.584 150.067C149.82 150.319 150.126 150.445 150.501 150.445C150.876 150.445 151.181 150.319 151.417 150.067C151.653 149.804 151.771 149.488 151.771 149.119C151.771 148.743 151.653 148.43 151.417 148.178C151.181 147.921 150.876 147.792 150.501 147.792C150.126 147.792 149.82 147.921 149.584 148.178C149.349 148.441 149.231 148.754 149.231 149.119ZM156.62 149.882L157.657 146.932H158.798L157.03 151.578C156.815 152.119 156.566 152.516 156.282 152.768C156.004 153.025 155.661 153.154 155.253 153.154C154.921 153.154 154.653 153.084 154.45 152.945L154.618 152.061C154.822 152.157 155.007 152.205 155.173 152.205C155.527 152.205 155.811 151.969 156.025 151.498L156.13 151.257L154.224 146.932H155.438L156.62 149.882ZM158.577 149.11C158.577 148.467 158.794 147.926 159.228 147.487C159.673 147.042 160.233 146.82 160.908 146.82C161.588 146.82 162.146 147.042 162.58 147.487C163.019 147.926 163.239 148.467 163.239 149.11C163.239 149.764 163.019 150.311 162.58 150.75C162.146 151.19 161.588 151.409 160.908 151.409C160.227 151.409 159.667 151.19 159.228 150.75C158.794 150.311 158.577 149.764 158.577 149.11ZM162.186 149.11C162.186 148.741 162.063 148.43 161.816 148.178C161.564 147.921 161.262 147.792 160.908 147.792C160.554 147.792 160.251 147.921 160 148.178C159.753 148.43 159.63 148.741 159.63 149.11C159.63 149.486 159.753 149.799 160 150.051C160.251 150.308 160.554 150.437 160.908 150.437C161.262 150.437 161.564 150.308 161.816 150.051C162.063 149.799 162.186 149.486 162.186 149.11ZM165.573 151.401C164.962 151.401 164.48 151.233 164.126 150.895C163.778 150.552 163.603 150.078 163.603 149.472V146.932H164.656V149.472C164.656 149.767 164.737 150.003 164.898 150.18C165.064 150.356 165.289 150.445 165.573 150.445C165.862 150.445 166.087 150.356 166.248 150.18C166.414 150.003 166.497 149.767 166.497 149.472V146.932H167.55V149.472C167.55 150.078 167.373 150.552 167.02 150.895C166.671 151.233 166.189 151.401 165.573 151.401ZM169.201 151.297H168.156V146.932H169.161V147.535C169.429 147.058 169.833 146.82 170.375 146.82C170.557 146.82 170.731 146.849 170.897 146.908L170.809 147.913C170.621 147.854 170.452 147.824 170.302 147.824C169.965 147.824 169.697 147.94 169.499 148.17C169.3 148.395 169.201 148.727 169.201 149.167V151.297ZM174.907 146.828C175.523 146.828 176.038 147.05 176.45 147.495C176.857 147.934 177.061 148.473 177.061 149.11C177.061 149.754 176.855 150.297 176.442 150.742C176.035 151.182 175.52 151.401 174.899 151.401C174.341 151.401 173.873 151.184 173.492 150.75V153.089H172.439V146.932H173.484V147.511C173.859 147.055 174.333 146.828 174.907 146.828ZM173.468 149.119C173.468 149.488 173.586 149.804 173.822 150.067C174.057 150.319 174.363 150.445 174.738 150.445C175.113 150.445 175.419 150.319 175.654 150.067C175.89 149.804 176.008 149.488 176.008 149.119C176.008 148.743 175.89 148.43 175.654 148.178C175.419 147.921 175.113 147.792 174.738 147.792C174.363 147.792 174.057 147.921 173.822 148.178C173.586 148.441 173.468 148.754 173.468 149.119ZM178.53 151.297H177.485V146.932H178.49V147.535C178.758 147.058 179.162 146.82 179.703 146.82C179.886 146.82 180.06 146.849 180.226 146.908L180.138 147.913C179.95 147.854 179.781 147.824 179.631 147.824C179.294 147.824 179.026 147.94 178.827 148.17C178.629 148.395 178.53 148.727 178.53 149.167V151.297ZM180.005 149.11C180.005 148.467 180.222 147.926 180.656 147.487C181.101 147.042 181.661 146.82 182.336 146.82C183.017 146.82 183.574 147.042 184.008 147.487C184.448 147.926 184.668 148.467 184.668 149.11C184.668 149.764 184.448 150.311 184.008 150.75C183.574 151.19 183.017 151.409 182.336 151.409C181.656 151.409 181.096 151.19 180.656 150.75C180.222 150.311 180.005 149.764 180.005 149.11ZM183.615 149.11C183.615 148.741 183.491 148.43 183.245 148.178C182.993 147.921 182.69 147.792 182.336 147.792C181.983 147.792 181.68 147.921 181.428 148.178C181.182 148.43 181.058 148.741 181.058 149.11C181.058 149.486 181.182 149.799 181.428 150.051C181.68 150.308 181.983 150.437 182.336 150.437C182.69 150.437 182.993 150.308 183.245 150.051C183.491 149.799 183.615 149.486 183.615 149.11ZM187.775 150.22L188.104 151.04C187.761 151.281 187.341 151.401 186.842 151.401C185.846 151.401 185.347 150.833 185.347 149.697V147.816H184.624V146.932H185.363V145.389H186.4V146.932H187.863V147.816H186.4V149.657C186.4 150.182 186.612 150.445 187.035 150.445C187.282 150.445 187.528 150.37 187.775 150.22ZM192.391 149.022C192.391 149.161 192.381 149.317 192.359 149.488H189.031C189.101 149.799 189.248 150.046 189.473 150.228C189.704 150.405 190.001 150.493 190.366 150.493C190.896 150.493 191.376 150.343 191.804 150.043L192.222 150.79C191.681 151.192 191.049 151.393 190.325 151.393C189.929 151.393 189.575 151.329 189.264 151.2C188.959 151.072 188.712 150.9 188.525 150.686C188.337 150.466 188.195 150.225 188.099 149.963C188.008 149.695 187.962 149.411 187.962 149.11C187.962 148.446 188.171 147.902 188.589 147.479C189.013 147.045 189.559 146.828 190.229 146.828C190.856 146.828 191.373 147.026 191.78 147.422C192.188 147.814 192.391 148.347 192.391 149.022ZM190.229 147.704C189.924 147.704 189.664 147.792 189.449 147.969C189.24 148.146 189.101 148.387 189.031 148.692H191.362C191.32 148.387 191.194 148.146 190.985 147.969C190.781 147.792 190.529 147.704 190.229 147.704ZM193.356 146.41C193.163 146.41 193.003 146.348 192.874 146.225C192.745 146.101 192.681 145.943 192.681 145.75C192.681 145.563 192.745 145.407 192.874 145.284C193.008 145.156 193.169 145.091 193.356 145.091C193.544 145.091 193.699 145.156 193.822 145.284C193.951 145.407 194.015 145.563 194.015 145.75C194.015 145.943 193.951 146.101 193.822 146.225C193.699 146.348 193.544 146.41 193.356 146.41ZM193.871 146.932V151.297H192.818V146.932H193.871ZM195.556 151.297H194.511V146.932H195.54V147.543C195.658 147.318 195.838 147.141 196.079 147.012C196.32 146.884 196.599 146.82 196.915 146.82C197.392 146.82 197.796 146.978 198.129 147.294C198.461 147.61 198.627 148.057 198.627 148.636V151.297H197.574V148.926C197.574 148.567 197.488 148.285 197.317 148.082C197.145 147.878 196.912 147.776 196.617 147.776C196.307 147.776 196.052 147.886 195.854 148.106C195.655 148.32 195.556 148.599 195.556 148.942V151.297ZM204.18 147.455V146.932H205.16V150.863C205.16 151.559 204.938 152.114 204.493 152.527C204.048 152.939 203.47 153.146 202.757 153.146C202.017 153.146 201.356 152.937 200.771 152.519L201.197 151.723C201.685 152.066 202.197 152.237 202.733 152.237C203.172 152.237 203.518 152.119 203.77 151.884C204.022 151.653 204.148 151.348 204.148 150.967V150.71C203.794 151.107 203.33 151.305 202.757 151.305C202.119 151.305 201.597 151.093 201.189 150.67C200.782 150.247 200.579 149.713 200.579 149.07C200.579 148.416 200.79 147.881 201.214 147.463C201.637 147.039 202.165 146.828 202.797 146.828C203.354 146.828 203.815 147.037 204.18 147.455ZM202.91 150.389C203.274 150.389 203.577 150.265 203.818 150.019C204.059 149.767 204.18 149.453 204.18 149.078C204.18 148.703 204.059 148.395 203.818 148.154C203.577 147.907 203.274 147.784 202.91 147.784C202.54 147.784 202.234 147.907 201.993 148.154C201.752 148.395 201.632 148.703 201.632 149.078C201.632 149.453 201.752 149.767 201.993 150.019C202.234 150.265 202.54 150.389 202.91 150.389ZM209.17 147.487V146.932H210.167V151.297H209.17V150.758C208.79 151.187 208.316 151.401 207.747 151.401C207.12 151.401 206.603 151.182 206.196 150.742C205.789 150.303 205.585 149.754 205.585 149.094C205.585 148.435 205.789 147.894 206.196 147.471C206.609 147.042 207.126 146.828 207.747 146.828C208.305 146.828 208.779 147.047 209.17 147.487ZM209.194 149.11C209.194 148.741 209.074 148.427 208.833 148.17C208.591 147.913 208.283 147.784 207.908 147.784C207.533 147.784 207.225 147.913 206.984 148.17C206.748 148.433 206.63 148.746 206.63 149.11C206.63 149.48 206.748 149.796 206.984 150.059C207.225 150.316 207.533 150.445 207.908 150.445C208.283 150.445 208.591 150.316 208.833 150.059C209.074 149.802 209.194 149.486 209.194 149.11ZM216.058 146.812C216.572 146.812 216.995 146.978 217.328 147.31C217.66 147.642 217.826 148.095 217.826 148.668V151.297H216.773V148.861C216.773 148.513 216.69 148.245 216.524 148.057C216.363 147.87 216.143 147.776 215.865 147.776C215.57 147.776 215.329 147.878 215.141 148.082C214.954 148.285 214.86 148.556 214.86 148.893V151.297H213.815V148.869C213.815 148.532 213.729 148.266 213.558 148.074C213.392 147.875 213.169 147.776 212.891 147.776C212.596 147.776 212.352 147.881 212.159 148.09C211.972 148.293 211.878 148.564 211.878 148.901V151.297H210.833V146.932H211.862V147.559C211.985 147.329 212.164 147.146 212.4 147.012C212.641 146.879 212.904 146.812 213.188 146.812C213.483 146.817 213.745 146.887 213.976 147.021C214.206 147.154 214.378 147.345 214.49 147.591C214.646 147.345 214.863 147.154 215.141 147.021C215.42 146.881 215.725 146.812 216.058 146.812ZM222.634 149.022C222.634 149.161 222.623 149.317 222.602 149.488H219.274C219.343 149.799 219.491 150.046 219.716 150.228C219.946 150.405 220.244 150.493 220.608 150.493C221.139 150.493 221.618 150.343 222.047 150.043L222.465 150.79C221.924 151.192 221.291 151.393 220.568 151.393C220.171 151.393 219.818 151.329 219.507 151.2C219.201 151.072 218.955 150.9 218.767 150.686C218.58 150.466 218.438 150.225 218.341 149.963C218.25 149.695 218.205 149.411 218.205 149.11C218.205 148.446 218.414 147.902 218.832 147.479C219.255 147.045 219.802 146.828 220.471 146.828C221.098 146.828 221.616 147.026 222.023 147.422C222.43 147.814 222.634 148.347 222.634 149.022ZM220.471 147.704C220.166 147.704 219.906 147.792 219.692 147.969C219.483 148.146 219.343 148.387 219.274 148.692H221.605C221.562 148.387 221.436 148.146 221.227 147.969C221.023 147.792 220.772 147.704 220.471 147.704Z" fill="black"/>
<rect x="0.251196" y="0.251196" width="173.737" height="80.5264" rx="8.38279" stroke="white" stroke-opacity="0.2" stroke-width="0.502392"/>
<path d="M46.8875 30.9899C46.3865 30.2865 45.5719 29.8672 44.7092 29.8672H33.4904C32.6276 29.8672 31.8131 30.2865 31.2571 31.0716L25.8983 39.8882C25.5915 40.3933 25.6504 41.0404 26.047 41.4798L38.1044 54.8769C38.3576 55.161 38.7206 55.3217 39.0998 55.3217C39.4789 55.3217 39.842 55.161 40.0952 54.8783L52.1526 41.4812C52.5492 41.0417 52.6094 40.3933 52.3013 39.8896L46.8875 30.9899ZM39.0998 51.9791L30.05 41.9246H48.1482L39.0998 51.9791ZM29.423 39.2452L33.4904 32.5466L44.6529 32.4636L48.7752 39.2452H29.423Z" fill="white"/>
<path d="M73.4839 40.0234H70.8795L68.2268 35.5702H66.7639V40.0234H64.5774V28.1429H68.9985C70.2846 28.1429 71.2706 28.5019 71.9566 29.22C72.6425 29.9381 72.9855 30.8169 72.9855 31.8566C72.9855 32.6604 72.7711 33.3731 72.3424 33.9947C71.9137 34.6164 71.2974 35.0558 70.4936 35.313L73.4839 40.0234ZM68.9985 30.1846H66.7639V33.5928H68.7573C69.4004 33.5928 69.8881 33.4321 70.2203 33.1105C70.5633 32.789 70.7348 32.3764 70.7348 31.8726C70.7348 31.3796 70.5794 30.9777 70.2685 30.6669C69.9577 30.3454 69.5344 30.1846 68.9985 30.1846ZM82.3005 35.4738C82.3005 35.7524 82.279 36.0632 82.2362 36.4062H75.5805C75.7198 37.0278 76.0145 37.5209 76.4647 37.8853C76.9255 38.2389 77.5204 38.4158 78.2492 38.4158C79.3102 38.4158 80.2695 38.1157 81.1269 37.5155L81.9628 39.0106C80.8804 39.8144 79.6157 40.2164 78.1688 40.2164C77.3757 40.2164 76.6683 40.0877 76.0467 39.8305C75.4358 39.5733 74.9428 39.2303 74.5676 38.8016C74.1925 38.3622 73.9085 37.8799 73.7156 37.3547C73.5334 36.8188 73.4423 36.2508 73.4423 35.6506C73.4423 34.3216 73.8603 33.2338 74.6962 32.3871C75.5429 31.5189 76.6362 31.0849 77.9759 31.0849C79.2298 31.0849 80.2641 31.4814 81.0786 32.2745C81.8932 33.0569 82.3005 34.1233 82.3005 35.4738ZM77.9759 32.8372C77.365 32.8372 76.8451 33.0141 76.4164 33.3677C75.9985 33.7214 75.7198 34.2037 75.5805 34.8146H80.2427C80.1569 34.2037 79.9051 33.7214 79.4871 33.3677C79.0798 33.0141 78.5761 32.8372 77.9759 32.8372ZM89.8572 32.3388V31.2939H91.8185V39.1553C91.8185 40.5486 91.3737 41.6579 90.4842 42.4831C89.5946 43.3084 88.4371 43.721 87.0116 43.721C85.5326 43.721 84.209 43.3031 83.0407 42.4671L83.8928 40.8755C84.8681 41.5614 85.8916 41.9044 86.9634 41.9044C87.8423 41.9044 88.5336 41.6686 89.0373 41.197C89.541 40.7362 89.7929 40.1253 89.7929 39.3643V38.8498C89.0855 39.643 88.1584 40.0395 87.0116 40.0395C85.7362 40.0395 84.6913 39.6162 83.8767 38.7695C83.0622 37.9228 82.6549 36.8564 82.6549 35.5702C82.6549 34.2627 83.0782 33.1909 83.9249 32.3549C84.7716 31.5082 85.8273 31.0849 87.092 31.0849C88.2067 31.0849 89.1284 31.5029 89.8572 32.3388ZM87.3171 38.2068C88.0459 38.2068 88.6514 37.9603 89.1337 37.4673C89.616 36.9635 89.8572 36.3365 89.8572 35.5863C89.8572 34.8361 89.616 34.2198 89.1337 33.7375C88.6514 33.2445 88.0459 32.998 87.3171 32.998C86.5776 32.998 85.9667 33.2445 85.4844 33.7375C85.0021 34.2198 84.7609 34.8361 84.7609 35.5863C84.7609 36.3365 85.0021 36.9635 85.4844 37.4673C85.9667 37.9603 86.5776 38.2068 87.3171 38.2068ZM96.9606 40.2324C95.7388 40.2324 94.7742 39.8948 94.0669 39.2196C93.3702 38.5337 93.0219 37.5852 93.0219 36.3741V31.2939H95.1279V36.3741C95.1279 36.9635 95.2887 37.4351 95.6102 37.7888C95.9425 38.1425 96.3926 38.3193 96.9606 38.3193C97.5394 38.3193 97.9895 38.1425 98.3111 37.7888C98.6433 37.4351 98.8094 36.9635 98.8094 36.3741V31.2939H100.915V36.3741C100.915 37.5852 100.562 38.5337 99.8544 39.2196C99.1578 39.8948 98.1932 40.2324 96.9606 40.2324ZM104.217 27.8053V40.0234H102.127V27.8053H104.217ZM112.251 32.4032V31.2939H114.244V40.0234H112.251V38.9463C111.49 39.8037 110.541 40.2324 109.405 40.2324C108.151 40.2324 107.117 39.793 106.302 38.9142C105.488 38.0353 105.08 36.9367 105.08 35.6185C105.08 34.3002 105.488 33.2177 106.302 32.371C107.128 31.5136 108.162 31.0849 109.405 31.0849C110.52 31.0849 111.468 31.5243 112.251 32.4032ZM112.299 35.6506C112.299 34.9111 112.058 34.2841 111.575 33.7697C111.093 33.2552 110.477 32.998 109.727 32.998C108.976 32.998 108.36 33.2552 107.878 33.7697C107.406 34.2948 107.17 34.9218 107.17 35.6506C107.17 36.3901 107.406 37.0225 107.878 37.5476C108.36 38.0621 108.976 38.3193 109.727 38.3193C110.477 38.3193 111.093 38.0621 111.575 37.5476C112.058 37.0332 112.299 36.4009 112.299 35.6506ZM117.666 40.0234H115.576V31.2939H117.585V32.4996C118.121 31.5457 118.93 31.0688 120.013 31.0688C120.377 31.0688 120.725 31.1277 121.058 31.2456L120.881 33.2552C120.506 33.1373 120.168 33.0784 119.868 33.0784C119.193 33.0784 118.657 33.3088 118.26 33.7697C117.864 34.2198 117.666 34.8843 117.666 35.7632V40.0234Z" fill="white"/>
<path opacity="0.5" d="M67.2863 50.7523C67.6454 50.8488 67.9214 51.0363 68.1143 51.315C68.3126 51.5883 68.4117 51.9098 68.4117 52.2796C68.4117 52.7619 68.2429 53.1718 67.9053 53.5094C67.5623 53.8417 67.1068 54.0078 66.5388 54.0078H63.8942V48.0675H66.4182C66.9487 48.0675 67.3614 48.2149 67.6561 48.5096C67.9508 48.8044 68.0982 49.15 68.0982 49.5466C68.0982 49.8199 68.0232 50.0691 67.8731 50.2941C67.7231 50.5138 67.5275 50.6666 67.2863 50.7523ZM66.2414 49.0402H64.9794V50.4147H66.2012C66.4477 50.4147 66.6406 50.3477 66.7799 50.2137C66.9246 50.0798 66.997 49.911 66.997 49.7073C66.997 49.5198 66.9273 49.3617 66.788 49.2331C66.654 49.1045 66.4718 49.0402 66.2414 49.0402ZM64.9794 53.0271H66.3298C66.6192 53.0271 66.8496 52.9468 67.0211 52.786C67.1926 52.6252 67.2783 52.4296 67.2783 52.1992C67.2783 51.9527 67.1926 51.7491 67.0211 51.5883C66.855 51.4275 66.6245 51.3471 66.3298 51.3471H64.9794V53.0271ZM73.054 51.733C73.054 51.8723 73.0433 52.0277 73.0218 52.1992H69.694C69.7637 52.51 69.911 52.7565 70.1361 52.9387C70.3665 53.1156 70.6639 53.204 71.0283 53.204C71.5589 53.204 72.0385 53.0539 72.4672 52.7538L72.8852 53.5014C72.3439 53.9033 71.7116 54.1043 70.9882 54.1043C70.5916 54.1043 70.2379 54.04 69.9271 53.9114C69.6216 53.7827 69.3751 53.6113 69.1876 53.3969C69 53.1772 68.858 52.936 68.7616 52.6735C68.6705 52.4055 68.6249 52.1215 68.6249 51.8214C68.6249 51.1569 68.8339 50.613 69.2519 50.1896C69.6752 49.7556 70.2218 49.5385 70.8917 49.5385C71.5187 49.5385 72.0358 49.7368 72.4431 50.1334C72.8504 50.5246 73.054 51.0578 73.054 51.733ZM70.8917 50.4147C70.5862 50.4147 70.3263 50.5031 70.112 50.68C69.903 50.8568 69.7637 51.098 69.694 51.4034H72.0251C71.9822 51.098 71.8563 50.8568 71.6473 50.68C71.4437 50.5031 71.1918 50.4147 70.8917 50.4147ZM74.8553 54.1203C74.0997 54.1203 73.5129 53.831 73.0949 53.2522L73.6898 52.6092C73.8345 52.8021 74.0113 52.9548 74.2203 53.0673C74.4346 53.1745 74.649 53.2281 74.8634 53.2281C75.0509 53.2281 75.2036 53.1852 75.3215 53.0995C75.4448 53.0084 75.5064 52.8985 75.5064 52.7699C75.5064 52.5984 75.3966 52.4591 75.1768 52.3519C75.1072 52.3091 74.9303 52.2367 74.6463 52.1349C74.3945 52.0384 74.2096 51.9607 74.0917 51.9018C73.604 51.6606 73.3602 51.2909 73.3602 50.7925C73.3602 50.412 73.5049 50.1012 73.7943 49.8601C74.0836 49.6189 74.4668 49.4983 74.9437 49.4983C75.56 49.4983 76.0584 49.7127 76.4389 50.1414L75.8923 50.8086C75.6082 50.5085 75.2813 50.3584 74.9116 50.3584C74.7508 50.3584 74.6222 50.3986 74.5257 50.479C74.4293 50.554 74.3811 50.6505 74.3811 50.7684C74.3811 50.9613 74.507 51.1033 74.7589 51.1944C75.3966 51.4463 75.7476 51.591 75.8119 51.6285C76.3049 51.8964 76.5514 52.2662 76.5514 52.7378C76.5514 53.1343 76.396 53.4639 76.0852 53.7265C75.7744 53.9891 75.3644 54.1203 74.8553 54.1203ZM79.6503 52.9307L79.9798 53.7506C79.6369 53.9917 79.2162 54.1123 78.7178 54.1123C77.7211 54.1123 77.2227 53.5443 77.2227 52.4082V50.5272H76.4993V49.643H77.2388V48.0997H78.2757V49.643H79.7387V50.5272H78.2757V52.368C78.2757 52.8932 78.4874 53.1558 78.9108 53.1558C79.1573 53.1558 79.4038 53.0807 79.6503 52.9307ZM83.6078 53.9998H82.6995L81.2124 49.643H82.3056L83.222 52.6011L84.2589 49.643H84.9904L86.0514 52.6011L86.9437 49.643H88.0369L86.5739 53.9998H85.6656L84.6287 51.1462L83.6078 53.9998ZM91.4736 50.1977V49.643H92.4703V54.0078H91.4736V53.4692C91.0931 53.898 90.6188 54.1123 90.0508 54.1123C89.4238 54.1123 88.9067 53.8926 88.4994 53.4532C88.0921 53.0137 87.8885 52.4645 87.8885 51.8053C87.8885 51.1462 88.0921 50.6049 88.4994 50.1816C88.912 49.7529 89.4292 49.5385 90.0508 49.5385C90.6081 49.5385 91.0824 49.7582 91.4736 50.1977ZM91.4977 51.8214C91.4977 51.4516 91.3771 51.1381 91.136 50.8809C90.8948 50.6237 90.5867 50.4951 90.2116 50.4951C89.8364 50.4951 89.5283 50.6237 89.2872 50.8809C89.0514 51.1435 88.9335 51.457 88.9335 51.8214C88.9335 52.1912 89.0514 52.5073 89.2872 52.7699C89.5283 53.0271 89.8364 53.1558 90.2116 53.1558C90.5867 53.1558 90.8948 53.0271 91.136 52.7699C91.3771 52.5127 91.4977 52.1965 91.4977 51.8214ZM95.0733 52.5931L96.1103 49.643H97.2517L95.4833 54.2892C95.2689 54.8304 95.0197 55.227 94.7357 55.4788C94.4571 55.736 94.1141 55.8647 93.7068 55.8647C93.3746 55.8647 93.1066 55.795 92.903 55.6557L93.0718 54.7714C93.2754 54.8679 93.4603 54.9161 93.6264 54.9161C93.9801 54.9161 94.2641 54.6803 94.4785 54.2088L94.583 53.9676L92.6779 49.643H93.8917L95.0733 52.5931ZM101.668 52.9307L101.997 53.7506C101.654 53.9917 101.234 54.1123 100.735 54.1123C99.7384 54.1123 99.2401 53.5443 99.2401 52.4082V50.5272H98.5166V49.643H99.2561V48.0997H100.293V49.643H101.756V50.5272H100.293V52.368C100.293 52.8932 100.505 53.1558 100.928 53.1558C101.175 53.1558 101.421 53.0807 101.668 52.9307ZM101.847 51.8214C101.847 51.1783 102.064 50.6371 102.498 50.1977C102.943 49.7529 103.503 49.5305 104.178 49.5305C104.859 49.5305 105.416 49.7529 105.85 50.1977C106.289 50.6371 106.509 51.1783 106.509 51.8214C106.509 52.4752 106.289 53.0218 105.85 53.4612C105.416 53.9006 104.859 54.1203 104.178 54.1203C103.497 54.1203 102.937 53.9006 102.498 53.4612C102.064 53.0218 101.847 52.4752 101.847 51.8214ZM105.456 51.8214C105.456 51.4516 105.333 51.1408 105.086 50.889C104.835 50.6317 104.532 50.5031 104.178 50.5031C103.824 50.5031 103.522 50.6317 103.27 50.889C103.023 51.1408 102.9 51.4516 102.9 51.8214C102.9 52.1965 103.023 52.51 103.27 52.7619C103.522 53.0191 103.824 53.1477 104.178 53.1477C104.532 53.1477 104.835 53.0191 105.086 52.7619C105.333 52.51 105.456 52.1965 105.456 51.8214ZM111.882 50.1655V49.643H112.863V53.5737C112.863 54.2704 112.64 54.825 112.196 55.2377C111.751 55.6503 111.172 55.8566 110.459 55.8566C109.72 55.8566 109.058 55.6476 108.474 55.2296L108.9 54.4338C109.388 54.7768 109.899 54.9483 110.435 54.9483C110.875 54.9483 111.22 54.8304 111.472 54.5946C111.724 54.3642 111.85 54.0587 111.85 53.6782V53.421C111.496 53.8176 111.033 54.0159 110.459 54.0159C109.822 54.0159 109.299 53.8042 108.892 53.3808C108.485 52.9575 108.281 52.4243 108.281 51.7812C108.281 51.1274 108.493 50.5915 108.916 50.1736C109.339 49.7502 109.867 49.5385 110.499 49.5385C111.057 49.5385 111.518 49.7475 111.882 50.1655ZM110.612 53.0995C110.976 53.0995 111.279 52.9762 111.52 52.7297C111.761 52.4779 111.882 52.1644 111.882 51.7892C111.882 51.4141 111.761 51.106 111.52 50.8648C111.279 50.6183 110.976 50.4951 110.612 50.4951C110.242 50.4951 109.937 50.6183 109.696 50.8648C109.454 51.106 109.334 51.4141 109.334 51.7892C109.334 52.1644 109.454 52.4779 109.696 52.7297C109.937 52.9762 110.242 53.0995 110.612 53.0995ZM117.717 51.733C117.717 51.8723 117.706 52.0277 117.684 52.1992H114.357C114.426 52.51 114.574 52.7565 114.799 52.9387C115.029 53.1156 115.327 53.204 115.691 53.204C116.222 53.204 116.701 53.0539 117.13 52.7538L117.548 53.5014C117.007 53.9033 116.374 54.1043 115.651 54.1043C115.254 54.1043 114.901 54.04 114.59 53.9114C114.284 53.7827 114.038 53.6113 113.85 53.3969C113.663 53.1772 113.521 52.936 113.424 52.6735C113.333 52.4055 113.288 52.1215 113.288 51.8214C113.288 51.1569 113.497 50.613 113.915 50.1896C114.338 49.7556 114.884 49.5385 115.554 49.5385C116.181 49.5385 116.698 49.7368 117.106 50.1334C117.513 50.5246 117.717 51.0578 117.717 51.733ZM115.554 50.4147C115.249 50.4147 114.989 50.5031 114.775 50.68C114.566 50.8568 114.426 51.098 114.357 51.4034H116.688C116.645 51.098 116.519 50.8568 116.31 50.68C116.106 50.5031 115.854 50.4147 115.554 50.4147ZM120.821 52.9307L121.151 53.7506C120.808 53.9917 120.387 54.1123 119.889 54.1123C118.892 54.1123 118.394 53.5443 118.394 52.4082V50.5272H117.67V49.643H118.41V48.0997H119.447V49.643H120.91V50.5272H119.447V52.368C119.447 52.8932 119.658 53.1558 120.082 53.1558C120.328 53.1558 120.575 53.0807 120.821 52.9307ZM124.295 54.1203C123.54 54.1203 122.953 53.831 122.535 53.2522L123.13 52.6092C123.275 52.8021 123.451 52.9548 123.66 53.0673C123.875 53.1745 124.089 53.2281 124.303 53.2281C124.491 53.2281 124.644 53.1852 124.762 53.0995C124.885 53.0084 124.947 52.8985 124.947 52.7699C124.947 52.5984 124.837 52.4591 124.617 52.3519C124.547 52.3091 124.37 52.2367 124.086 52.1349C123.835 52.0384 123.65 51.9607 123.532 51.9018C123.044 51.6606 122.8 51.2909 122.8 50.7925C122.8 50.412 122.945 50.1012 123.234 49.8601C123.524 49.6189 123.907 49.4983 124.384 49.4983C125 49.4983 125.498 49.7127 125.879 50.1414L125.332 50.8086C125.048 50.5085 124.721 50.3584 124.352 50.3584C124.191 50.3584 124.062 50.3986 123.966 50.479C123.869 50.554 123.821 50.6505 123.821 50.7684C123.821 50.9613 123.947 51.1033 124.199 51.1944C124.837 51.4463 125.188 51.591 125.252 51.6285C125.745 51.8964 125.991 52.2662 125.991 52.7378C125.991 53.1343 125.836 53.4639 125.525 53.7265C125.214 53.9891 124.805 54.1203 124.295 54.1203ZM129.09 52.9307L129.42 53.7506C129.077 53.9917 128.656 54.1123 128.158 54.1123C127.161 54.1123 126.663 53.5443 126.663 52.4082V50.5272H125.939V49.643H126.679V48.0997H127.716V49.643H129.179V50.5272H127.716V52.368C127.716 52.8932 127.927 53.1558 128.351 53.1558C128.597 53.1558 128.844 53.0807 129.09 52.9307ZM132.863 50.1977V49.643H133.86V54.0078H132.863V53.4692C132.482 53.898 132.008 54.1123 131.44 54.1123C130.813 54.1123 130.296 53.8926 129.889 53.4532C129.481 53.0137 129.278 52.4645 129.278 51.8053C129.278 51.1462 129.481 50.6049 129.889 50.1816C130.301 49.7529 130.818 49.5385 131.44 49.5385C131.997 49.5385 132.472 49.7582 132.863 50.1977ZM132.887 51.8214C132.887 51.4516 132.766 51.1381 132.525 50.8809C132.284 50.6237 131.976 50.4951 131.601 50.4951C131.226 50.4951 130.918 50.6237 130.676 50.8809C130.441 51.1435 130.323 51.457 130.323 51.8214C130.323 52.1912 130.441 52.5073 130.676 52.7699C130.918 53.0271 131.226 53.1558 131.601 53.1558C131.976 53.1558 132.284 53.0271 132.525 52.7699C132.766 52.5127 132.887 52.1965 132.887 51.8214ZM135.57 54.0078H134.525V49.643H135.53V50.2459C135.798 49.769 136.203 49.5305 136.744 49.5305C136.926 49.5305 137.1 49.56 137.266 49.6189L137.178 50.6237C136.99 50.5648 136.822 50.5353 136.672 50.5353C136.334 50.5353 136.066 50.6505 135.868 50.8809C135.669 51.106 135.57 51.4382 135.57 51.8777V54.0078ZM140.303 52.9307L140.633 53.7506C140.29 53.9917 139.869 54.1123 139.371 54.1123C138.374 54.1123 137.876 53.5443 137.876 52.4082V50.5272H137.152V49.643H137.892V48.0997H138.929V49.643H140.392V50.5272H138.929V52.368C138.929 52.8932 139.14 53.1558 139.564 53.1558C139.81 53.1558 140.057 53.0807 140.303 52.9307ZM144.92 51.733C144.92 51.8723 144.909 52.0277 144.887 52.1992H141.56C141.629 52.51 141.777 52.7565 142.002 52.9387C142.232 53.1156 142.53 53.204 142.894 53.204C143.424 53.204 143.904 53.0539 144.333 52.7538L144.751 53.5014C144.21 53.9033 143.577 54.1043 142.854 54.1043C142.457 54.1043 142.104 54.04 141.793 53.9114C141.487 53.7827 141.241 53.6113 141.053 53.3969C140.866 53.1772 140.724 52.936 140.627 52.6735C140.536 52.4055 140.491 52.1215 140.491 51.8214C140.491 51.1569 140.7 50.613 141.118 50.1896C141.541 49.7556 142.087 49.5385 142.757 49.5385C143.384 49.5385 143.901 49.7368 144.309 50.1334C144.716 50.5246 144.92 51.0578 144.92 51.733ZM142.757 50.4147C142.452 50.4147 142.192 50.5031 141.978 50.68C141.769 50.8568 141.629 51.098 141.56 51.4034H143.891C143.848 51.098 143.722 50.8568 143.513 50.68C143.309 50.5031 143.057 50.4147 142.757 50.4147ZM148.634 50.1977V47.8987H149.679V54.0078H148.658V53.4371C148.293 53.8872 147.83 54.1123 147.267 54.1123C146.64 54.1123 146.123 53.8953 145.716 53.4612C145.303 53.0164 145.097 52.4698 145.097 51.8214C145.097 51.1837 145.303 50.6425 145.716 50.1977C146.134 49.7582 146.648 49.5385 147.259 49.5385C147.816 49.5385 148.275 49.7582 148.634 50.1977ZM147.412 53.1558C147.792 53.1558 148.1 53.0271 148.336 52.7699C148.572 52.5073 148.69 52.1912 148.69 51.8214C148.69 51.4516 148.569 51.1381 148.328 50.8809C148.098 50.6237 147.792 50.4951 147.412 50.4951C147.031 50.4951 146.726 50.6237 146.495 50.8809C146.26 51.1435 146.142 51.457 146.142 51.8214C146.142 52.1912 146.26 52.5073 146.495 52.7699C146.726 53.0271 147.031 53.1558 147.412 53.1558Z" fill="white"/>
</svg>
