<svg width="348" height="348" viewBox="0 0 348 348" fill="none" xmlns="http://www.w3.org/2000/svg">
<rect width="348" height="348" rx="64" fill="white" fill-opacity="0.05"/>
<path fill-rule="evenodd" clip-rule="evenodd" d="M182.359 152.924C182.359 152.925 182.359 152.923 182.359 152.924C182.359 148.031 178.393 144.062 173.5 144.062C168.607 144.062 164.641 148.029 164.641 152.922C164.641 152.921 164.641 152.923 164.641 152.922L164.636 152.924C120.603 152.924 84.9062 188.62 84.9062 232.654H262.094C262.094 188.62 226.397 152.924 182.364 152.924H182.359ZM84.9062 250.375H262.094C265.356 250.375 268 253.019 268 256.281C268 259.543 265.356 262.188 262.094 262.188H84.9062C81.6443 262.188 79 259.543 79 256.281C79 253.019 81.6443 250.375 84.9062 250.375ZM84.9062 232.654H262.094C262.094 239.178 256.805 244.469 250.281 244.469H96.7188C90.1949 244.469 84.9062 239.178 84.9062 232.654Z" fill="#F4DC0B"/>
<path fill-rule="evenodd" clip-rule="evenodd" d="M149.13 85H149.875C151.091 85 152.076 85.9856 152.076 87.2014C152.076 87.4029 152.049 87.6035 151.994 87.7975C150.581 92.8197 149.875 97.0362 149.875 100.447C149.875 109.503 152.828 111.609 152.828 120.665C152.828 122.186 152.027 126.278 150.425 132.94C150.106 134.268 148.919 135.203 147.554 135.203H146.922C145.635 135.203 144.592 134.16 144.592 132.874C144.592 132.693 144.613 132.514 144.655 132.339C146.166 125.936 146.922 122.045 146.922 120.665C146.922 111.442 143.969 109.67 143.969 100.447C143.969 97.0381 144.742 92.6049 146.289 87.1476C146.649 85.877 147.81 85 149.13 85Z" fill="#F4DC0B"/>
<path fill-rule="evenodd" clip-rule="evenodd" d="M177.185 85H177.93C179.145 85 180.131 85.9856 180.131 87.2014C180.131 87.4029 180.103 87.6035 180.049 87.7975C178.636 92.8197 177.93 97.0362 177.93 100.447C177.93 109.503 180.883 111.609 180.883 120.665C180.883 122.186 180.082 126.278 178.48 132.94C178.161 134.268 176.974 135.203 175.609 135.203H174.977C173.69 135.203 172.647 134.16 172.647 132.874C172.647 132.693 172.668 132.514 172.709 132.339C174.221 125.936 174.977 122.045 174.977 120.665C174.977 111.442 172.023 109.67 172.023 100.447C172.023 97.0381 172.797 92.6049 174.344 87.1476C174.704 85.877 175.864 85 177.185 85Z" fill="#F4DC0B"/>
<path fill-rule="evenodd" clip-rule="evenodd" d="M205.24 85H205.984C207.2 85 208.186 85.9856 208.186 87.2014C208.186 87.4029 208.158 87.6035 208.103 87.7975C206.691 92.8197 205.984 97.0362 205.984 100.447C205.984 109.503 208.938 111.609 208.938 120.665C208.938 122.186 208.137 126.278 206.535 132.94C206.216 134.268 205.029 135.203 203.664 135.203H203.031C201.745 135.203 200.702 134.16 200.702 132.874C200.702 132.693 200.723 132.514 200.764 132.339C202.276 125.936 203.031 122.045 203.031 120.665C203.031 111.442 200.078 109.67 200.078 100.447C200.078 97.0381 200.852 92.6049 202.399 87.1476C202.759 85.877 203.919 85 205.24 85Z" fill="#F4DC0B"/>
</svg>
