<svg width="320" height="300" viewBox="0 0 320 300" fill="none" xmlns="http://www.w3.org/2000/svg">
<path fill-rule="evenodd" clip-rule="evenodd" d="M175 115.004C175 115.005 175 115.002 175 115.004C175 106.719 168.284 100 160 100C151.716 100 145 106.716 145 115C145 114.999 145 115.001 145 115L144.993 115.004C70.4383 115.004 10 175.442 10 249.996H310C310 175.442 249.562 115.004 175.007 115.004H175ZM10 280H310C315.523 280 320 284.477 320 290C320 295.523 315.523 300 310 300H10C4.47715 300 0 295.523 0 290C0 284.477 4.47715 280 10 280ZM10 249.996H310C310 261.042 301.046 270 290 270H30C18.9543 270 10 261.042 10 249.996Z" fill="#F4DC0B"/>
<path fill-rule="evenodd" clip-rule="evenodd" d="M118.739 0H120C122.058 0 123.727 1.66871 123.727 3.72717C123.727 4.06841 123.68 4.40803 123.588 4.73652C121.196 13.2396 120 20.3787 120 26.1538C120 41.4863 125 45.0521 125 60.3846C125 62.9601 123.644 69.8882 120.932 81.1689C120.392 83.416 118.382 85 116.07 85H115C112.822 85 111.056 83.2342 111.056 81.056C111.056 80.7509 111.091 80.4468 111.162 80.1499C113.72 69.3097 115 62.7213 115 60.3846C115 44.7696 110 41.7689 110 26.1538C110 20.3819 111.31 12.876 113.929 3.63618C114.539 1.48479 116.503 0 118.739 0Z" fill="#F4DC0B"/>
<path fill-rule="evenodd" clip-rule="evenodd" d="M166.239 0H167.5C169.558 0 171.227 1.66871 171.227 3.72717C171.227 4.06841 171.18 4.40803 171.088 4.73652C168.696 13.2396 167.5 20.3787 167.5 26.1538C167.5 41.4863 172.5 45.0521 172.5 60.3846C172.5 62.9601 171.144 69.8882 168.432 81.1689C167.892 83.416 165.882 85 163.57 85H162.5C160.322 85 158.556 83.2342 158.556 81.056C158.556 80.7509 158.591 80.4468 158.662 80.1499C161.22 69.3097 162.5 62.7213 162.5 60.3846C162.5 44.7696 157.5 41.7689 157.5 26.1538C157.5 20.3819 158.81 12.876 161.429 3.63618C162.039 1.48479 164.003 0 166.239 0Z" fill="#F4DC0B"/>
<path fill-rule="evenodd" clip-rule="evenodd" d="M213.739 0H215C217.058 0 218.727 1.66871 218.727 3.72717C218.727 4.06841 218.68 4.40803 218.588 4.73652C216.196 13.2396 215 20.3787 215 26.1538C215 41.4863 220 45.0521 220 60.3846C220 62.9601 218.644 69.8882 215.932 81.1689C215.392 83.416 213.382 85 211.07 85H210C207.822 85 206.056 83.2342 206.056 81.056C206.056 80.7509 206.091 80.4468 206.161 80.1499C208.72 69.3097 210 62.7213 210 60.3846C210 44.7696 205 41.7689 205 26.1538C205 20.3819 206.31 12.876 208.929 3.63618C209.539 1.48479 211.503 0 213.739 0Z" fill="#F4DC0B"/>
</svg>
