<svg width="410" height="300" viewBox="0 0 410 300" fill="none" xmlns="http://www.w3.org/2000/svg">
<path fill-rule="evenodd" clip-rule="evenodd" d="M343.315 153.903C339.56 153.903 336.51 150.858 336.51 147.099C336.51 143.339 339.56 140.294 343.315 140.294H371.138C374.897 140.294 377.942 143.339 377.942 147.099C377.942 150.858 374.897 153.903 371.138 153.903H343.315ZM343.315 133.817C339.56 133.817 336.51 130.767 336.51 127.012C336.51 123.253 339.56 120.208 343.315 120.208H371.138C374.897 120.208 377.942 123.253 377.942 127.012C377.942 130.767 374.897 133.817 371.138 133.817H343.315ZM357.228 180.971C373.088 180.971 385.937 193.826 385.937 209.68C385.937 225.539 373.088 238.389 357.228 238.389C341.374 238.389 328.524 225.539 328.524 209.68C328.519 193.826 341.374 180.971 357.228 180.971ZM109.978 281.762L103.01 295.544H42.9466L35.9784 281.762H109.978ZM373.106 281.762L366.138 295.544H306.074L299.106 281.762H373.106ZM312.365 4.45312H379.987C395.892 4.45312 408.897 17.4668 408.897 33.3668V239.24C408.897 255.144 395.892 268.153 379.987 268.153H312.365V4.45312ZM298.751 186.808C287.369 186.558 278.215 177.267 278.197 165.826C278.197 165.826 278.197 146.144 278.197 106.785C278.228 95.3486 287.383 86.0622 298.751 85.8031V186.808ZM355.801 198.567C357.683 195.326 361.837 194.217 365.083 196.094C368.328 197.976 369.433 202.126 367.556 205.376L358.651 220.803C356.769 224.044 352.615 225.153 349.369 223.271C346.128 221.394 345.019 217.239 346.901 213.994L355.801 198.567ZM104.437 142.026H225.124V169.139C225.124 184.053 212.924 196.253 198.01 196.253H131.556C116.642 196.253 104.437 184.053 104.437 169.139V142.026ZM147.133 67.0122C149.015 63.7668 153.169 62.6622 156.415 64.544C159.66 66.4259 160.765 70.5759 158.883 73.8213C157.833 75.644 157.619 77.7395 158.128 79.6486C158.638 81.5486 159.874 83.2531 161.71 84.3122C161.828 84.3804 161.942 84.4531 162.06 84.5304L174.638 91.794L174.66 91.8077L174.669 91.794C179.747 94.7395 183.151 99.4622 184.56 104.708C185.965 109.935 185.365 115.717 182.433 120.812C180.574 124.053 176.433 125.171 173.188 123.308C169.942 121.444 168.824 117.303 170.687 114.058C171.733 112.23 171.942 110.13 171.428 108.208C170.919 106.303 169.688 104.594 167.86 103.535L167.865 103.526L155.288 96.2622C155.16 96.194 155.028 96.1304 154.906 96.0577C149.819 93.1168 146.41 88.3986 144.997 83.1486C143.597 77.9077 144.192 72.1077 147.133 67.0122ZM105.792 67.0122C107.669 63.7668 111.828 62.6622 115.069 64.544C118.315 66.4213 119.424 70.5759 117.542 73.8213C116.492 75.644 116.278 77.7395 116.788 79.6486C117.297 81.5486 118.533 83.2531 120.369 84.3122C120.488 84.3804 120.601 84.4531 120.715 84.5304L133.297 91.794L133.319 91.8077L133.324 91.794C138.401 94.7395 141.81 99.4622 143.219 104.708C144.619 109.935 144.024 115.717 141.092 120.812C139.233 124.053 135.088 125.171 131.842 123.308C128.601 121.444 127.483 117.303 129.342 114.058C130.392 112.23 130.601 110.13 130.083 108.208C129.578 106.303 128.342 104.594 126.519 103.535L126.524 103.526L113.947 96.2622C113.815 96.194 113.683 96.1304 113.565 96.0577C108.478 93.1168 105.065 88.3986 103.656 83.1486C102.256 77.9077 102.856 72.1077 105.792 67.0122ZM188.478 67.0122C190.356 63.7668 194.51 62.6622 197.756 64.544C201.001 66.4259 202.106 70.5759 200.224 73.8213C199.174 75.644 198.96 77.7395 199.469 79.6486C199.983 81.5486 201.215 83.2531 203.051 84.3122C203.169 84.3804 203.288 84.4531 203.401 84.5304L215.983 91.794L216.001 91.8077L216.01 91.794C221.087 94.7395 224.492 99.4622 225.901 104.708C227.306 109.935 226.706 115.717 223.778 120.812C221.919 124.053 217.774 125.171 214.528 123.308C211.283 121.444 210.165 117.303 212.028 114.058C213.074 112.23 213.283 110.13 212.769 108.208C212.26 106.303 211.028 104.594 209.201 103.535L209.21 103.526L196.628 96.2622C196.501 96.194 196.374 96.1304 196.247 96.0577C191.165 93.1168 187.751 88.3986 186.342 83.1486C184.937 77.9077 185.533 72.1077 188.478 67.0122ZM97.8466 224.717C94.0875 224.717 91.042 221.671 91.042 217.912C91.042 214.153 94.0875 211.103 97.8466 211.103H231.706C235.465 211.103 238.51 214.153 238.51 217.912C238.51 221.671 235.465 224.717 231.706 224.717H97.8466ZM29.0966 4.45312H298.747V28.2668H29.0966C26.2875 28.2759 24.0057 30.5531 24.0011 33.3668C24.0011 101.994 24.0011 170.621 24.0011 239.244C24.0057 242.053 26.2875 244.33 29.0966 244.339H298.747V268.158H29.0966C13.192 268.158 0.1875 255.144 0.1875 239.244V33.3668C0.1875 17.4668 13.192 4.45312 29.0966 4.45312Z" fill="#F4DC0B"/>
</svg>
