<svg width="348" height="348" viewBox="0 0 348 348" fill="none" xmlns="http://www.w3.org/2000/svg">
<rect width="348" height="348" rx="64" fill="white" fill-opacity="0.05"/>
<path fill-rule="evenodd" clip-rule="evenodd" d="M251.338 185.778C249.245 185.778 247.545 184.081 247.545 181.985C247.545 179.89 249.245 178.193 251.338 178.193H266.844C268.939 178.193 270.637 179.89 270.637 181.985C270.637 184.081 268.939 185.778 266.844 185.778H251.338ZM251.338 174.583C249.245 174.583 247.545 172.883 247.545 170.791C247.545 168.696 249.245 166.998 251.338 166.998H266.844C268.939 166.998 270.637 168.696 270.637 170.791C270.637 172.883 268.939 174.583 266.844 174.583H251.338ZM259.092 200.864C267.931 200.864 275.093 208.028 275.093 216.864C275.093 225.703 267.931 232.865 259.092 232.865C250.256 232.865 243.094 225.703 243.094 216.864C243.092 208.028 250.256 200.864 259.092 200.864ZM121.292 257.038L117.408 264.719H83.9326L80.049 257.038H121.292ZM267.941 257.038L264.058 264.719H230.582L226.699 257.038H267.941ZM234.088 102.484H271.777C280.641 102.484 287.889 109.737 287.889 118.599V233.339C287.889 242.203 280.641 249.453 271.777 249.453H234.088V102.484ZM226.501 204.117C220.158 203.977 215.055 198.799 215.045 192.423C215.045 192.423 215.045 181.453 215.045 159.517C215.063 153.143 220.165 147.968 226.501 147.823V204.117ZM258.297 210.67C259.346 208.864 261.661 208.246 263.47 209.292C265.279 210.341 265.894 212.654 264.848 214.465L259.885 223.063C258.836 224.87 256.521 225.488 254.712 224.439C252.906 223.393 252.288 221.077 253.337 219.269L258.297 210.67ZM118.204 179.158H185.466V194.27C185.466 202.581 178.667 209.381 170.355 209.381H133.317C125.006 209.381 118.204 202.581 118.204 194.27V179.158ZM141.999 137.351C143.048 135.542 145.363 134.926 147.172 135.975C148.981 137.024 149.597 139.337 148.548 141.146C147.963 142.161 147.844 143.329 148.127 144.393C148.411 145.452 149.1 146.402 150.124 146.993C150.189 147.031 150.253 147.071 150.319 147.114L157.328 151.162L157.341 151.17L157.346 151.162C160.176 152.804 162.073 155.436 162.859 158.36C163.641 161.273 163.307 164.495 161.673 167.335C160.637 169.141 158.329 169.765 156.52 168.726C154.711 167.687 154.088 165.379 155.127 163.571C155.71 162.552 155.826 161.382 155.54 160.31C155.256 159.249 154.57 158.296 153.551 157.706L153.554 157.701L146.544 153.653C146.473 153.615 146.4 153.579 146.331 153.539C143.496 151.9 141.596 149.27 140.808 146.344C140.028 143.423 140.36 140.191 141.999 137.351ZM118.958 137.351C120.005 135.542 122.323 134.926 124.129 135.975C125.938 137.021 126.556 139.337 125.507 141.146C124.922 142.161 124.803 143.329 125.087 144.393C125.37 145.452 126.059 146.402 127.083 146.993C127.149 147.031 127.212 147.071 127.275 147.114L134.288 151.162L134.3 151.17L134.303 151.162C137.133 152.804 139.033 155.436 139.818 158.36C140.598 161.273 140.266 164.495 138.632 167.335C137.596 169.141 135.286 169.765 133.477 168.726C131.671 167.687 131.048 165.379 132.084 163.571C132.669 162.552 132.785 161.382 132.497 160.31C132.215 159.249 131.526 158.296 130.51 157.706L130.513 157.701L123.503 153.653C123.43 153.615 123.356 153.579 123.29 153.539C120.456 151.9 118.553 149.27 117.768 146.344C116.988 143.423 117.322 140.191 118.958 137.351ZM165.042 137.351C166.089 135.542 168.404 134.926 170.213 135.975C172.022 137.024 172.637 139.337 171.588 141.146C171.003 142.161 170.884 143.329 171.168 144.393C171.454 145.452 172.141 146.402 173.164 146.993C173.23 147.031 173.296 147.071 173.359 147.114L180.372 151.162L180.382 151.17L180.387 151.162C183.216 152.804 185.114 155.436 185.899 158.36C186.682 161.273 186.348 164.495 184.716 167.335C183.68 169.141 181.37 169.765 179.561 168.726C177.752 167.687 177.129 165.379 178.168 163.571C178.75 162.552 178.867 161.382 178.58 160.31C178.297 159.249 177.61 158.296 176.592 157.706L176.597 157.701L169.585 153.653C169.514 153.615 169.443 153.579 169.372 153.539C166.54 151.9 164.637 149.27 163.852 146.344C163.069 143.423 163.401 140.191 165.042 137.351ZM114.53 225.245C112.435 225.245 110.738 223.547 110.738 221.452C110.738 219.357 112.435 217.657 114.53 217.657H189.134C191.229 217.657 192.927 219.357 192.927 221.452C192.927 223.547 191.229 225.245 189.134 225.245H114.53ZM76.2136 102.484H226.498V115.757H76.2136C74.648 115.762 73.3762 117.031 73.3737 118.599C73.3737 156.847 73.3737 195.095 73.3737 233.341C73.3762 234.907 74.648 236.176 76.2136 236.181H226.498V249.456H76.2136C67.3494 249.456 60.1016 242.203 60.1016 233.341V118.599C60.1016 109.737 67.3494 102.484 76.2136 102.484Z" fill="#F4DC0B"/>
</svg>
