<svg width="436" height="300" viewBox="0 0 436 300" fill="none" xmlns="http://www.w3.org/2000/svg">
<g clip-path="url(#clip0_392_1006)">
<path d="M60.7228 92.5288H53.1325V25.8421C52.691 24.859 52.0154 23.9991 51.1648 23.3375C50.3142 22.6759 49.3144 22.2328 48.2529 22.0469C47.3493 22.0469 48.2529 22.0469 47.259 22.0469H46.9879C46.044 22.2714 45.1811 22.7536 44.495 23.4396C43.809 24.1256 43.3269 24.9886 43.1023 25.9324V92.6192H32.9819V25.9324C32.9819 25.9324 28.9156 22.9505 27.6505 22.0469C25.7529 22.0469 26.4758 22.0469 25.9337 22.0469H24.8493C22.9887 22.74 21.446 24.0899 20.512 25.8421V92.5288H11.4758V25.3902C9.68487 25.2786 7.89118 25.5605 6.22082 26.2161C4.55045 26.8718 3.04394 27.8853 1.80715 29.1854V93.7035C1.48826 100.877 3.43828 107.969 7.38014 113.971C11.322 119.973 17.0552 124.58 23.765 127.137C28.9605 178.556 29.3235 230.349 24.8493 281.836C24.5422 283.614 24.6273 285.437 25.0988 287.179C25.5702 288.92 26.4166 290.537 27.5786 291.917C28.7406 293.297 30.1903 294.407 31.826 295.168C33.4617 295.929 35.244 296.323 37.0481 296.323C38.8522 296.323 40.6345 295.929 42.2702 295.168C43.906 294.407 45.3556 293.297 46.5176 291.917C47.6797 290.537 48.526 288.92 48.9975 287.179C49.4689 285.437 49.5541 283.614 49.2469 281.836C44.818 230.312 45.2719 178.485 50.6023 127.047C57.3229 124.513 63.0765 119.929 67.0494 113.946C71.0223 107.962 73.0133 100.881 72.7409 93.7035V29.1854C71.1124 27.755 69.1997 26.6853 67.1284 26.0468C65.057 25.4083 62.874 25.2153 60.7228 25.4806V92.5288Z" fill="#F4DC0B"/>
<path d="M421.446 24.0333C405.271 36.3225 392.711 68.4911 392.711 106.262C392.711 140.057 402.47 169.515 415.392 183.973V275.057C415.392 302.889 435.542 302.889 435.542 275.057V31.0815C435.466 29.4784 434.964 27.9247 434.087 26.58C433.211 25.2353 431.993 24.1483 430.558 23.4305C429.122 22.7128 427.521 22.3903 425.92 22.4963C424.319 22.6022 422.774 23.1327 421.446 24.0333Z" fill="#F4DC0B"/>
<path d="M334.068 43.9166C305.928 15.8247 267.791 0.046875 228.029 0.046875C188.267 0.046875 150.13 15.8247 121.99 43.9166C108.357 57.6332 97.4697 73.8269 89.9115 91.6275C82.1576 110.112 78.1641 129.956 78.1641 150.001C78.1641 170.046 82.1576 189.89 89.9115 208.374C105.069 244.369 133.706 273.006 169.701 288.164C188.185 295.918 208.029 299.911 228.074 299.911C248.119 299.911 267.963 295.918 286.448 288.164C304.232 280.625 320.4 269.734 334.068 256.085C362.166 227.93 377.946 189.778 377.946 150.001C377.946 110.224 362.166 72.072 334.068 43.9166ZM323.406 190.302C318.238 202.603 310.717 213.776 301.267 223.194C291.826 232.616 280.658 240.132 268.375 245.332C255.617 250.7 241.916 253.466 228.074 253.466C214.233 253.466 200.531 250.7 187.773 245.332C175.49 240.132 164.323 232.616 154.881 223.194C135.48 203.776 124.582 177.45 124.582 150.001C124.582 122.552 135.48 96.2258 154.881 76.8082C164.478 67.1693 175.884 59.5208 188.444 54.3019C201.005 49.0829 214.473 46.3964 228.074 46.3964C241.676 46.3964 255.143 49.0829 267.704 54.3019C280.264 59.5208 291.67 67.1693 301.267 76.8082C315.805 91.392 325.674 109.973 329.617 130.184C333.559 150.396 331.397 171.324 323.406 190.302Z" fill="#F4DC0B"/>
<path d="M227.714 64.4302C207.941 64.4543 188.788 71.3321 173.517 83.8923C158.247 96.4524 147.802 113.918 143.963 133.314C140.124 152.711 143.127 172.838 152.462 190.269C161.797 207.699 176.886 221.354 195.158 228.909C213.431 236.463 233.757 237.45 252.675 231.7C271.594 225.95 287.933 213.82 298.912 197.376C309.891 180.931 314.829 161.189 312.886 141.512C310.943 121.835 302.239 103.44 288.256 89.4603C280.321 81.4921 270.884 75.177 260.492 70.8806C250.1 66.5841 238.959 64.3917 227.714 64.4302Z" fill="#F4DC0B"/>
</g>
<defs>
<clipPath id="clip0_392_1006">
<rect width="435.542" height="300" fill="white"/>
</clipPath>
</defs>
</svg>
