<svg width="348" height="348" viewBox="0 0 348 348" fill="none" xmlns="http://www.w3.org/2000/svg">
<rect width="348" height="348" rx="64" fill="white" fill-opacity="0.05"/>
<g clip-path="url(#clip0_515_1256)">
<path d="M86.7384 142.412H82.5209V105.359C82.2757 104.813 81.9003 104.335 81.4277 103.967C80.955 103.6 80.3995 103.353 79.8097 103.25C79.3077 103.25 79.8097 103.25 79.2575 103.25H79.1068C78.5824 103.375 78.1029 103.643 77.7218 104.024C77.3406 104.405 77.0727 104.885 76.9479 105.409V142.462H71.3247V105.409C71.3247 105.409 69.0653 103.752 68.3624 103.25C67.3081 103.25 67.7097 103.25 67.4085 103.25H66.806C65.7722 103.635 64.915 104.385 64.3961 105.359V142.412H59.3753V105.108C58.3802 105.046 57.3836 105.202 56.4555 105.567C55.5274 105.931 54.6903 106.494 54.0031 107.216V143.065C53.8259 147.05 54.9094 150.991 57.0996 154.326C59.2898 157.66 62.4753 160.22 66.2035 161.641C69.0903 190.211 69.292 218.989 66.806 247.596C66.6354 248.584 66.6827 249.597 66.9446 250.565C67.2066 251.533 67.6768 252.431 68.3225 253.198C68.9681 253.965 69.7736 254.581 70.6825 255.004C71.5913 255.427 72.5816 255.646 73.584 255.646C74.5864 255.646 75.5767 255.427 76.4856 255.004C77.3944 254.581 78.1999 253.965 78.8456 253.198C79.4912 252.431 79.9615 251.533 80.2234 250.565C80.4854 249.597 80.5327 248.584 80.362 247.596C77.9012 218.968 78.1534 190.172 81.1151 161.591C84.8493 160.183 88.0462 157.636 90.2536 154.312C92.4611 150.987 93.5674 147.052 93.416 143.065V107.216C92.5112 106.422 91.4484 105.827 90.2975 105.472C89.1466 105.118 87.9337 105.01 86.7384 105.158V142.412Z" fill="#F4DC0B"/>
<path d="M287.169 104.349C278.182 111.178 271.203 129.051 271.203 150.038C271.203 168.816 276.626 185.183 283.805 193.217V243.826C283.805 259.29 295.001 259.29 295.001 243.826V108.266C294.959 107.375 294.68 106.512 294.193 105.764C293.706 105.017 293.029 104.413 292.232 104.014C291.434 103.616 290.545 103.436 289.655 103.495C288.765 103.554 287.907 103.849 287.169 104.349Z" fill="#F4DC0B"/>
<path d="M238.618 115.399C222.982 99.7901 201.792 91.0234 179.699 91.0234C157.606 91.0234 136.416 99.7901 120.781 115.399C113.206 123.02 107.156 132.018 102.957 141.908C98.6486 152.179 96.4297 163.205 96.4297 174.342C96.4297 185.48 98.6486 196.506 102.957 206.776C111.379 226.776 127.29 242.688 147.29 251.11C157.561 255.418 168.587 257.637 179.724 257.637C190.862 257.637 201.888 255.418 212.158 251.11C222.04 246.921 231.023 240.87 238.618 233.286C254.229 217.642 262.997 196.443 262.997 174.342C262.997 152.241 254.229 131.043 238.618 115.399ZM232.693 196.735C229.822 203.569 225.643 209.777 220.392 215.01C215.146 220.246 208.942 224.422 202.117 227.311C195.028 230.294 187.415 231.83 179.724 231.83C172.034 231.83 164.42 230.294 157.332 227.311C150.507 224.422 144.302 220.246 139.056 215.01C128.276 204.221 122.221 189.594 122.221 174.342C122.221 159.091 128.276 144.463 139.056 133.674C144.388 128.319 150.726 124.069 157.705 121.169C164.684 118.269 172.167 116.777 179.724 116.777C187.282 116.777 194.765 118.269 201.744 121.169C208.723 124.069 215.06 128.319 220.392 133.674C228.47 141.777 233.953 152.102 236.144 163.332C238.335 174.562 237.133 186.19 232.693 196.735Z" fill="#F4DC0B"/>
<path d="M179.524 126.797C168.538 126.811 157.896 130.632 149.411 137.611C140.926 144.59 135.123 154.294 132.99 165.071C130.857 175.848 132.526 187.032 137.712 196.717C142.899 206.402 151.283 213.989 161.435 218.186C171.588 222.384 182.882 222.932 193.394 219.737C203.905 216.542 212.984 209.803 219.084 200.665C225.184 191.528 227.928 180.559 226.849 169.626C225.769 158.693 220.933 148.472 213.163 140.705C208.754 136.277 203.511 132.768 197.737 130.381C191.963 127.994 185.773 126.776 179.524 126.797Z" fill="#F4DC0B"/>
</g>
<defs>
<clipPath id="clip0_515_1256">
<rect width="242" height="166.689" fill="white" transform="translate(53 91)"/>
</clipPath>
</defs>
</svg>
