<svg width="110" height="131" viewBox="0 0 110 131" fill="none" xmlns="http://www.w3.org/2000/svg">
<path d="M3.79688 57V98.5L109.507 35L92.2969 24.5L99.2969 0L3.79688 57Z" fill="#55A61B"/>
<path opacity="0.5" d="M22.3025 131.001L4.47873 97.9784L22.3046 86.5006L22.3025 131.001Z" fill="#55A61B"/>
<path d="M41.8558 47.2914L50.1063 60.5847L47.9644 61.9142L36.0808 56.747L35.9704 56.8155L41.5903 65.8703L39.1822 67.3649L30.9317 54.0716L33.0866 52.7341L44.9677 57.9118L45.0846 57.8393L39.4607 48.778L41.8558 47.2914ZM51.8164 59.5234L43.5658 46.2301L52.2116 40.864L53.4645 42.8827L47.2268 46.7542L49.4667 50.3631L55.2566 46.7696L56.5095 48.7882L50.7196 52.3817L52.9716 56.0101L59.2612 52.1064L60.5141 54.1251L51.8164 59.5234ZM64.8027 51.4634L52.8004 40.4986L55.3902 38.8912L63.8484 47.1734L63.9717 47.0969L60.4661 35.7409L62.8223 34.2785L71.4532 42.4624L71.5701 42.3899L67.8981 31.1281L70.488 29.5207L74.9868 45.1425L72.6112 46.617L64.1608 38.9413L64.057 39.0058L67.1783 49.9889L64.8027 51.4634Z" fill="white"/>
</svg>
