<svg width="490" height="549" viewBox="0 0 490 549" fill="none" xmlns="http://www.w3.org/2000/svg">
<rect x="122" y="193.656" width="367.657" height="161.657" rx="17.1858" fill="#F4DC0B"/>
<path d="M215.331 255.719C214.334 254.319 212.712 253.484 210.995 253.484H188.664C186.947 253.484 185.326 254.319 184.219 255.882L173.552 273.431C172.942 274.436 173.059 275.724 173.848 276.599L197.848 303.266C198.352 303.831 199.075 304.151 199.83 304.151C200.584 304.151 201.307 303.831 201.811 303.268L225.811 276.602C226.6 275.727 226.72 274.436 226.107 273.434L215.331 255.719ZM199.83 297.498L181.816 277.484H217.84L199.83 297.498ZM180.568 272.151L188.664 258.818L210.883 258.652L219.088 272.151H180.568Z" fill="black"/>
<path d="M257.236 274.868C255.423 274.868 253.748 274.484 252.212 273.716C250.676 272.927 249.439 271.807 248.5 270.356L251.124 267.348C252.639 269.631 254.687 270.772 257.268 270.772C258.335 270.772 259.199 270.516 259.86 270.004C260.543 269.471 260.884 268.81 260.884 268.02C260.884 266.954 260.148 266.058 258.676 265.332C258.313 265.162 257.535 264.842 256.34 264.372C255.145 263.882 254.217 263.444 253.556 263.06C251.081 261.61 249.844 259.668 249.844 257.236C249.844 255.295 250.569 253.684 252.02 252.404C253.449 251.103 255.337 250.452 257.684 250.452C260.756 250.452 263.284 251.54 265.268 253.716L262.836 256.852C262.196 256.127 261.407 255.562 260.468 255.156C259.551 254.751 258.644 254.548 257.748 254.548C256.788 254.548 256.009 254.783 255.412 255.252C254.836 255.7 254.548 256.298 254.548 257.044C254.548 258.047 255.199 258.879 256.5 259.54L258.996 260.692C259.999 261.098 260.937 261.524 261.812 261.972C264.415 263.295 265.716 265.226 265.716 267.764C265.716 269.855 264.927 271.562 263.348 272.884C261.769 274.207 259.732 274.868 257.236 274.868ZM277.847 270.196L279.159 273.46C277.794 274.42 276.119 274.9 274.135 274.9C270.167 274.9 268.183 272.639 268.183 268.116V260.628H265.303V257.108H268.247V250.964H272.375V257.108H278.199V260.628H272.375V267.956C272.375 270.047 273.218 271.092 274.903 271.092C275.885 271.092 276.866 270.794 277.847 270.196ZM292.865 259.316V257.108H296.833V274.484H292.865V272.34C291.351 274.047 289.463 274.9 287.201 274.9C284.705 274.9 282.647 274.026 281.025 272.276C279.404 270.527 278.593 268.34 278.593 265.716C278.593 263.092 279.404 260.938 281.025 259.252C282.668 257.546 284.727 256.692 287.201 256.692C289.42 256.692 291.308 257.567 292.865 259.316ZM292.961 265.78C292.961 264.308 292.481 263.06 291.521 262.036C290.561 261.012 289.335 260.5 287.841 260.5C286.348 260.5 285.121 261.012 284.161 262.036C283.223 263.082 282.753 264.33 282.753 265.78C282.753 267.252 283.223 268.511 284.161 269.556C285.121 270.58 286.348 271.092 287.841 271.092C289.335 271.092 290.561 270.58 291.521 269.556C292.481 268.532 292.961 267.274 292.961 265.78ZM303.644 274.484H299.484V257.108H303.58V259.54C304.049 258.644 304.764 257.94 305.724 257.428C306.684 256.916 307.793 256.66 309.052 256.66C310.951 256.66 312.561 257.29 313.884 258.548C315.207 259.807 315.868 261.588 315.868 263.892V274.484H311.676V265.044C311.676 263.615 311.335 262.495 310.652 261.684C309.969 260.874 309.041 260.468 307.868 260.468C306.631 260.468 305.617 260.906 304.828 261.78C304.039 262.634 303.644 263.743 303.644 265.108V274.484ZM331.411 259.316V250.164H335.571V274.484H331.507V272.212C330.056 274.004 328.211 274.9 325.971 274.9C323.475 274.9 321.416 274.036 319.795 272.308C318.152 270.538 317.331 268.362 317.331 265.78C317.331 263.242 318.152 261.087 319.795 259.316C321.459 257.567 323.507 256.692 325.939 256.692C328.158 256.692 329.982 257.567 331.411 259.316ZM326.547 271.092C328.062 271.092 329.288 270.58 330.227 269.556C331.166 268.511 331.635 267.252 331.635 265.78C331.635 264.308 331.155 263.06 330.195 262.036C329.278 261.012 328.062 260.5 326.547 260.5C325.032 260.5 323.816 261.012 322.899 262.036C321.96 263.082 321.491 264.33 321.491 265.78C321.491 267.252 321.96 268.511 322.899 269.556C323.816 270.58 325.032 271.092 326.547 271.092ZM351.565 259.316V257.108H355.533V274.484H351.565V272.34C350.051 274.047 348.163 274.9 345.901 274.9C343.405 274.9 341.347 274.026 339.725 272.276C338.104 270.527 337.293 268.34 337.293 265.716C337.293 263.092 338.104 260.938 339.725 259.252C341.368 257.546 343.427 256.692 345.901 256.692C348.12 256.692 350.008 257.567 351.565 259.316ZM351.661 265.78C351.661 264.308 351.181 263.06 350.221 262.036C349.261 261.012 348.035 260.5 346.541 260.5C345.048 260.5 343.821 261.012 342.861 262.036C341.923 263.082 341.453 264.33 341.453 265.78C341.453 267.252 341.923 268.511 342.861 269.556C343.821 270.58 345.048 271.092 346.541 271.092C348.035 271.092 349.261 270.58 350.221 269.556C351.181 268.532 351.661 267.274 351.661 265.78ZM362.344 274.484H358.184V257.108H362.184V259.508C363.251 257.61 364.861 256.66 367.016 256.66C367.741 256.66 368.435 256.778 369.096 257.012L368.744 261.012C367.997 260.778 367.325 260.66 366.728 260.66C365.384 260.66 364.317 261.119 363.528 262.036C362.739 262.932 362.344 264.255 362.344 266.004V274.484ZM382.33 259.316V250.164H386.49V274.484H382.426V272.212C380.975 274.004 379.13 274.9 376.89 274.9C374.394 274.9 372.335 274.036 370.714 272.308C369.071 270.538 368.25 268.362 368.25 265.78C368.25 263.242 369.071 261.087 370.714 259.316C372.378 257.567 374.426 256.692 376.858 256.692C379.076 256.692 380.9 257.567 382.33 259.316ZM377.466 271.092C378.98 271.092 380.207 270.58 381.146 269.556C382.084 268.511 382.554 267.252 382.554 265.78C382.554 264.308 382.074 263.06 381.114 262.036C380.196 261.012 378.98 260.5 377.466 260.5C375.951 260.5 374.735 261.012 373.818 262.036C372.879 263.082 372.41 264.33 372.41 265.78C372.41 267.252 372.879 268.511 373.818 269.556C374.735 270.58 375.951 271.092 377.466 271.092Z" fill="black"/>
<path opacity="0.5" d="M252.532 300.676C251.625 300.676 250.788 300.484 250.02 300.1C249.252 299.706 248.633 299.146 248.164 298.42L249.476 296.916C250.233 298.058 251.257 298.628 252.548 298.628C253.081 298.628 253.513 298.5 253.844 298.244C254.185 297.978 254.356 297.647 254.356 297.252C254.356 296.719 253.988 296.271 253.252 295.908C253.071 295.823 252.681 295.663 252.084 295.428C251.487 295.183 251.023 294.964 250.692 294.772C249.455 294.047 248.836 293.076 248.836 291.86C248.836 290.89 249.199 290.084 249.924 289.444C250.639 288.794 251.583 288.468 252.756 288.468C254.292 288.468 255.556 289.012 256.548 290.1L255.332 291.668C255.012 291.306 254.617 291.023 254.148 290.82C253.689 290.618 253.236 290.516 252.788 290.516C252.308 290.516 251.919 290.634 251.62 290.868C251.332 291.092 251.188 291.391 251.188 291.764C251.188 292.266 251.513 292.682 252.164 293.012L253.412 293.588C253.913 293.791 254.383 294.004 254.82 294.228C256.121 294.89 256.772 295.855 256.772 297.124C256.772 298.17 256.377 299.023 255.588 299.684C254.799 300.346 253.78 300.676 252.532 300.676ZM262.838 298.34L263.494 299.972C262.811 300.452 261.974 300.692 260.982 300.692C258.998 300.692 258.006 299.562 258.006 297.3V293.556H256.566V291.796H258.038V288.724H260.102V291.796H263.014V293.556H260.102V297.22C260.102 298.266 260.523 298.788 261.366 298.788C261.856 298.788 262.347 298.639 262.838 298.34ZM272.027 295.956C272.027 296.234 272.005 296.543 271.963 296.884H265.339C265.477 297.503 265.771 297.994 266.219 298.356C266.677 298.708 267.269 298.884 267.995 298.884C269.051 298.884 270.005 298.586 270.859 297.988L271.691 299.476C270.613 300.276 269.355 300.676 267.915 300.676C267.125 300.676 266.421 300.548 265.803 300.292C265.195 300.036 264.704 299.695 264.331 299.268C263.957 298.831 263.675 298.351 263.483 297.828C263.301 297.295 263.211 296.73 263.211 296.132C263.211 294.81 263.627 293.727 264.459 292.884C265.301 292.02 266.389 291.588 267.723 291.588C268.971 291.588 270 291.983 270.811 292.772C271.621 293.551 272.027 294.612 272.027 295.956ZM267.723 293.332C267.115 293.332 266.597 293.508 266.171 293.86C265.755 294.212 265.477 294.692 265.339 295.3H269.979C269.893 294.692 269.643 294.212 269.227 293.86C268.821 293.508 268.32 293.332 267.723 293.332ZM277.756 291.588C278.982 291.588 280.006 292.031 280.828 292.916C281.638 293.791 282.044 294.863 282.044 296.132C282.044 297.412 281.633 298.495 280.812 299.38C280.001 300.255 278.977 300.692 277.74 300.692C276.63 300.692 275.697 300.26 274.94 299.396V304.052H272.844V291.796H274.924V292.948C275.67 292.042 276.614 291.588 277.756 291.588ZM274.892 296.148C274.892 296.884 275.126 297.514 275.596 298.036C276.065 298.538 276.673 298.788 277.42 298.788C278.166 298.788 278.774 298.538 279.244 298.036C279.713 297.514 279.948 296.884 279.948 296.148C279.948 295.402 279.713 294.778 279.244 294.276C278.774 293.764 278.166 293.508 277.42 293.508C276.673 293.508 276.065 293.764 275.596 294.276C275.126 294.799 274.892 295.423 274.892 296.148ZM289.848 300.692C288.632 300.692 287.672 300.356 286.968 299.684C286.275 299.002 285.928 298.058 285.928 296.852V291.796H288.024V296.852C288.024 297.439 288.184 297.908 288.504 298.26C288.835 298.612 289.283 298.788 289.848 298.788C290.424 298.788 290.872 298.612 291.192 298.26C291.523 297.908 291.688 297.439 291.688 296.852V291.796H293.784V296.852C293.784 298.058 293.432 299.002 292.728 299.684C292.035 300.356 291.075 300.692 289.848 300.692ZM299.902 291.588C301.129 291.588 302.153 292.031 302.974 292.916C303.785 293.791 304.19 294.863 304.19 296.132C304.19 297.412 303.78 298.495 302.958 299.38C302.148 300.255 301.124 300.692 299.886 300.692C298.777 300.692 297.844 300.26 297.086 299.396V304.052H294.99V291.796H297.07V292.948C297.817 292.042 298.761 291.588 299.902 291.588ZM297.038 296.148C297.038 296.884 297.273 297.514 297.742 298.036C298.212 298.538 298.82 298.788 299.566 298.788C300.313 298.788 300.921 298.538 301.39 298.036C301.86 297.514 302.094 296.884 302.094 296.148C302.094 295.402 301.86 294.778 301.39 294.276C300.921 293.764 300.313 293.508 299.566 293.508C298.82 293.508 298.212 293.764 297.742 294.276C297.273 294.799 297.038 295.423 297.038 296.148ZM311.746 297.668L313.81 291.796H316.082L312.562 301.044C312.136 302.122 311.64 302.911 311.074 303.412C310.52 303.924 309.837 304.18 309.026 304.18C308.365 304.18 307.832 304.042 307.426 303.764L307.762 302.004C308.168 302.196 308.536 302.292 308.866 302.292C309.57 302.292 310.136 301.823 310.562 300.884L310.77 300.404L306.978 291.796H309.394L311.746 297.668ZM315.642 296.132C315.642 294.852 316.074 293.775 316.938 292.9C317.823 292.015 318.938 291.572 320.282 291.572C321.636 291.572 322.746 292.015 323.61 292.9C324.484 293.775 324.922 294.852 324.922 296.132C324.922 297.434 324.484 298.522 323.61 299.396C322.746 300.271 321.636 300.708 320.282 300.708C318.927 300.708 317.812 300.271 316.938 299.396C316.074 298.522 315.642 297.434 315.642 296.132ZM322.826 296.132C322.826 295.396 322.58 294.778 322.09 294.276C321.588 293.764 320.986 293.508 320.282 293.508C319.578 293.508 318.975 293.764 318.474 294.276C317.983 294.778 317.738 295.396 317.738 296.132C317.738 296.879 317.983 297.503 318.474 298.004C318.975 298.516 319.578 298.772 320.282 298.772C320.986 298.772 321.588 298.516 322.09 298.004C322.58 297.503 322.826 296.879 322.826 296.132ZM329.567 300.692C328.351 300.692 327.391 300.356 326.687 299.684C325.994 299.002 325.647 298.058 325.647 296.852V291.796H327.743V296.852C327.743 297.439 327.903 297.908 328.223 298.26C328.554 298.612 329.002 298.788 329.567 298.788C330.143 298.788 330.591 298.612 330.911 298.26C331.242 297.908 331.407 297.439 331.407 296.852V291.796H333.503V296.852C333.503 298.058 333.151 299.002 332.447 299.684C331.754 300.356 330.794 300.692 329.567 300.692ZM336.789 300.484H334.709V291.796H336.709V292.996C337.242 292.047 338.048 291.572 339.125 291.572C339.488 291.572 339.834 291.631 340.165 291.748L339.989 293.748C339.616 293.631 339.28 293.572 338.981 293.572C338.309 293.572 337.776 293.802 337.381 294.26C336.986 294.708 336.789 295.37 336.789 296.244V300.484ZM348.146 291.588C349.373 291.588 350.397 292.031 351.218 292.916C352.029 293.791 352.434 294.863 352.434 296.132C352.434 297.412 352.023 298.495 351.202 299.38C350.391 300.255 349.367 300.692 348.13 300.692C347.021 300.692 346.087 300.26 345.33 299.396V304.052H343.234V291.796H345.314V292.948C346.061 292.042 347.005 291.588 348.146 291.588ZM345.282 296.148C345.282 296.884 345.517 297.514 345.986 298.036C346.455 298.538 347.063 298.788 347.81 298.788C348.557 298.788 349.165 298.538 349.634 298.036C350.103 297.514 350.338 296.884 350.338 296.148C350.338 295.402 350.103 294.778 349.634 294.276C349.165 293.764 348.557 293.508 347.81 293.508C347.063 293.508 346.455 293.764 345.986 294.276C345.517 294.799 345.282 295.423 345.282 296.148ZM355.358 300.484H353.278V291.796H355.278V292.996C355.811 292.047 356.617 291.572 357.694 291.572C358.057 291.572 358.403 291.631 358.734 291.748L358.558 293.748C358.185 293.631 357.849 293.572 357.55 293.572C356.878 293.572 356.345 293.802 355.95 294.26C355.555 294.708 355.358 295.37 355.358 296.244V300.484ZM358.295 296.132C358.295 294.852 358.727 293.775 359.591 292.9C360.476 292.015 361.591 291.572 362.935 291.572C364.289 291.572 365.399 292.015 366.263 292.9C367.137 293.775 367.575 294.852 367.575 296.132C367.575 297.434 367.137 298.522 366.263 299.396C365.399 300.271 364.289 300.708 362.935 300.708C361.58 300.708 360.465 300.271 359.591 299.396C358.727 298.522 358.295 297.434 358.295 296.132ZM365.479 296.132C365.479 295.396 365.233 294.778 364.743 294.276C364.241 293.764 363.639 293.508 362.935 293.508C362.231 293.508 361.628 293.764 361.127 294.276C360.636 294.778 360.391 295.396 360.391 296.132C360.391 296.879 360.636 297.503 361.127 298.004C361.628 298.516 362.231 298.772 362.935 298.772C363.639 298.772 364.241 298.516 364.743 298.004C365.233 297.503 365.479 296.879 365.479 296.132ZM373.76 298.34L374.416 299.972C373.733 300.452 372.896 300.692 371.904 300.692C369.92 300.692 368.928 299.562 368.928 297.3V293.556H367.488V291.796H368.96V288.724H371.024V291.796H373.936V293.556H371.024V297.22C371.024 298.266 371.445 298.788 372.288 298.788C372.778 298.788 373.269 298.639 373.76 298.34ZM382.949 295.956C382.949 296.234 382.927 296.543 382.885 296.884H376.261C376.399 297.503 376.693 297.994 377.141 298.356C377.599 298.708 378.191 298.884 378.917 298.884C379.973 298.884 380.927 298.586 381.781 297.988L382.613 299.476C381.535 300.276 380.277 300.676 378.837 300.676C378.047 300.676 377.343 300.548 376.725 300.292C376.117 300.036 375.626 299.695 375.253 299.268C374.879 298.831 374.597 298.351 374.405 297.828C374.223 297.295 374.133 296.73 374.133 296.132C374.133 294.81 374.549 293.727 375.381 292.884C376.223 292.02 377.311 291.588 378.645 291.588C379.893 291.588 380.922 291.983 381.733 292.772C382.543 293.551 382.949 294.612 382.949 295.956ZM378.645 293.332C378.037 293.332 377.519 293.508 377.093 293.86C376.677 294.212 376.399 294.692 376.261 295.3H380.901C380.815 294.692 380.565 294.212 380.149 293.86C379.743 293.508 379.242 293.332 378.645 293.332ZM384.869 290.756C384.485 290.756 384.165 290.634 383.909 290.388C383.653 290.143 383.525 289.828 383.525 289.444C383.525 289.071 383.653 288.762 383.909 288.516C384.176 288.26 384.496 288.132 384.869 288.132C385.243 288.132 385.552 288.26 385.797 288.516C386.053 288.762 386.181 289.071 386.181 289.444C386.181 289.828 386.053 290.143 385.797 290.388C385.552 290.634 385.243 290.756 384.869 290.756ZM385.893 291.796V300.484H383.797V291.796H385.893ZM389.249 300.484H387.169V291.796H389.217V293.012C389.451 292.564 389.809 292.212 390.289 291.956C390.769 291.7 391.323 291.572 391.953 291.572C392.902 291.572 393.707 291.887 394.369 292.516C395.03 293.146 395.361 294.036 395.361 295.188V300.484H393.265V295.764C393.265 295.05 393.094 294.49 392.753 294.084C392.411 293.679 391.947 293.476 391.361 293.476C390.742 293.476 390.235 293.695 389.841 294.132C389.446 294.559 389.249 295.114 389.249 295.796V300.484ZM406.413 292.836V291.796H408.365V299.62C408.365 301.007 407.922 302.111 407.037 302.932C406.152 303.754 405 304.164 403.581 304.164C402.109 304.164 400.792 303.748 399.629 302.916L400.477 301.332C401.448 302.015 402.466 302.356 403.533 302.356C404.408 302.356 405.096 302.122 405.597 301.652C406.098 301.194 406.349 300.586 406.349 299.828V299.316C405.645 300.106 404.722 300.5 403.581 300.5C402.312 300.5 401.272 300.079 400.461 299.236C399.65 298.394 399.245 297.332 399.245 296.052C399.245 294.751 399.666 293.684 400.509 292.852C401.352 292.01 402.402 291.588 403.661 291.588C404.77 291.588 405.688 292.004 406.413 292.836ZM403.885 298.676C404.61 298.676 405.213 298.431 405.693 297.94C406.173 297.439 406.413 296.815 406.413 296.068C406.413 295.322 406.173 294.708 405.693 294.228C405.213 293.738 404.61 293.492 403.885 293.492C403.149 293.492 402.541 293.738 402.061 294.228C401.581 294.708 401.341 295.322 401.341 296.068C401.341 296.815 401.581 297.439 402.061 297.94C402.541 298.431 403.149 298.676 403.885 298.676ZM416.347 292.9V291.796H418.331V300.484H416.347V299.412C415.589 300.266 414.645 300.692 413.515 300.692C412.267 300.692 411.237 300.255 410.427 299.38C409.616 298.506 409.211 297.412 409.211 296.1C409.211 294.788 409.616 293.711 410.427 292.868C411.248 292.015 412.277 291.588 413.515 291.588C414.624 291.588 415.568 292.026 416.347 292.9ZM416.395 296.132C416.395 295.396 416.155 294.772 415.675 294.26C415.195 293.748 414.581 293.492 413.835 293.492C413.088 293.492 412.475 293.748 411.995 294.26C411.525 294.783 411.291 295.407 411.291 296.132C411.291 296.868 411.525 297.498 411.995 298.02C412.475 298.532 413.088 298.788 413.835 298.788C414.581 298.788 415.195 298.532 415.675 298.02C416.155 297.508 416.395 296.879 416.395 296.132ZM430.056 291.556C431.08 291.556 431.923 291.887 432.584 292.548C433.245 293.21 433.576 294.111 433.576 295.252V300.484H431.48V295.636C431.48 294.943 431.315 294.41 430.984 294.036C430.664 293.663 430.227 293.476 429.672 293.476C429.085 293.476 428.605 293.679 428.232 294.084C427.859 294.49 427.672 295.028 427.672 295.7V300.484H425.592V295.652C425.592 294.98 425.421 294.452 425.08 294.068C424.749 293.674 424.307 293.476 423.752 293.476C423.165 293.476 422.68 293.684 422.296 294.1C421.923 294.506 421.736 295.044 421.736 295.716V300.484H419.656V291.796H421.704V293.044C421.949 292.586 422.307 292.223 422.776 291.956C423.256 291.69 423.779 291.556 424.344 291.556C424.931 291.567 425.453 291.706 425.912 291.972C426.371 292.239 426.712 292.618 426.936 293.108C427.245 292.618 427.677 292.239 428.232 291.972C428.787 291.695 429.395 291.556 430.056 291.556ZM443.146 295.956C443.146 296.234 443.124 296.543 443.082 296.884H436.458C436.596 297.503 436.89 297.994 437.338 298.356C437.796 298.708 438.388 298.884 439.114 298.884C440.17 298.884 441.124 298.586 441.978 297.988L442.81 299.476C441.732 300.276 440.474 300.676 439.034 300.676C438.244 300.676 437.54 300.548 436.922 300.292C436.314 300.036 435.823 299.695 435.45 299.268C435.076 298.831 434.794 298.351 434.602 297.828C434.42 297.295 434.33 296.73 434.33 296.132C434.33 294.81 434.746 293.727 435.578 292.884C436.42 292.02 437.508 291.588 438.842 291.588C440.09 291.588 441.119 291.983 441.93 292.772C442.74 293.551 443.146 294.612 443.146 295.956ZM438.842 293.332C438.234 293.332 437.716 293.508 437.29 293.86C436.874 294.212 436.596 294.692 436.458 295.3H441.098C441.012 294.692 440.762 294.212 440.346 293.86C439.94 293.508 439.439 293.332 438.842 293.332Z" fill="black"/>
<rect x="122.5" y="194.156" width="366.657" height="160.657" rx="16.6858" stroke="black" stroke-opacity="0.2"/>
<path d="M95.3311 449.375C94.3338 447.975 92.7125 447.141 90.9951 447.141H68.6645C66.9471 447.141 65.3258 447.975 64.2191 449.538L53.5525 467.087C52.9418 468.093 53.0591 469.381 53.8485 470.255L77.8485 496.922C78.3525 497.487 79.0751 497.807 79.8298 497.807C80.5845 497.807 81.3071 497.487 81.8111 496.925L105.811 470.258C106.6 469.383 106.72 468.093 106.107 467.09L95.3311 449.375ZM79.8298 491.154L61.8165 471.141H97.8405L79.8298 491.154ZM60.5685 465.807L68.6645 452.474L90.8831 452.309L99.0885 465.807H60.5685Z" fill="white"/>
<path d="M134.9 468.141H130.548V444.493H146.004V448.653H134.9V454.349H144.628V458.509H134.9V468.141ZM160.247 452.973V450.765H164.215V468.141H160.247V465.997C158.732 467.703 156.844 468.557 154.583 468.557C152.087 468.557 150.028 467.682 148.407 465.933C146.785 464.183 145.975 461.997 145.975 459.373C145.975 456.749 146.785 454.594 148.407 452.909C150.049 451.202 152.108 450.349 154.583 450.349C156.801 450.349 158.689 451.223 160.247 452.973ZM160.343 459.437C160.343 457.965 159.863 456.717 158.903 455.693C157.943 454.669 156.716 454.157 155.223 454.157C153.729 454.157 152.503 454.669 151.543 455.693C150.604 456.738 150.135 457.986 150.135 459.437C150.135 460.909 150.604 462.167 151.543 463.213C152.503 464.237 153.729 464.749 155.223 464.749C156.716 464.749 157.943 464.237 158.903 463.213C159.863 462.189 160.343 460.93 160.343 459.437ZM187.665 450.285C189.713 450.285 191.398 450.946 192.721 452.269C194.044 453.591 194.705 455.394 194.705 457.677V468.141H190.513V458.445C190.513 457.058 190.182 455.991 189.521 455.245C188.881 454.498 188.006 454.125 186.897 454.125C185.724 454.125 184.764 454.53 184.017 455.341C183.27 456.151 182.897 457.229 182.897 458.573V468.141H178.737V458.477C178.737 457.133 178.396 456.077 177.713 455.309C177.052 454.519 176.166 454.125 175.057 454.125C173.884 454.125 172.913 454.541 172.145 455.373C171.398 456.183 171.025 457.261 171.025 458.605V468.141H166.865V450.765H170.961V453.261C171.452 452.343 172.166 451.618 173.105 451.085C174.065 450.551 175.11 450.285 176.241 450.285C177.414 450.306 178.46 450.583 179.377 451.117C180.294 451.65 180.977 452.407 181.425 453.389C182.044 452.407 182.908 451.65 184.017 451.117C185.126 450.562 186.342 450.285 187.665 450.285ZM199.348 448.685C198.58 448.685 197.94 448.439 197.428 447.949C196.916 447.458 196.66 446.829 196.66 446.061C196.66 445.314 196.916 444.695 197.428 444.205C197.961 443.693 198.601 443.437 199.348 443.437C200.095 443.437 200.713 443.693 201.204 444.205C201.716 444.695 201.972 445.314 201.972 446.061C201.972 446.829 201.716 447.458 201.204 447.949C200.713 448.439 200.095 448.685 199.348 448.685ZM201.396 450.765V468.141H197.204V450.765H201.396ZM208.106 443.821V468.141H203.946V443.821H208.106ZM218.465 462.509L222.593 450.765H227.137L220.097 469.261C219.243 471.415 218.251 472.994 217.121 473.997C216.011 475.021 214.646 475.533 213.025 475.533C211.702 475.533 210.635 475.255 209.825 474.701L210.497 471.181C211.307 471.565 212.043 471.757 212.705 471.757C214.113 471.757 215.243 470.818 216.097 468.941L216.513 467.981L208.929 450.765H213.761L218.465 462.509Z" fill="white"/>
<path opacity="0.5" d="M131.38 494.141H129.188V482.317H131.38V487.101H136.564V482.317H138.756V494.141H136.564V489.213H131.38V494.141ZM148.608 489.613C148.608 489.89 148.587 490.199 148.544 490.541H141.92C142.059 491.159 142.352 491.65 142.8 492.013C143.259 492.365 143.851 492.541 144.576 492.541C145.632 492.541 146.587 492.242 147.44 491.645L148.272 493.133C147.195 493.933 145.936 494.333 144.496 494.333C143.707 494.333 143.003 494.205 142.384 493.949C141.776 493.693 141.285 493.351 140.912 492.925C140.539 492.487 140.256 492.007 140.064 491.485C139.883 490.951 139.792 490.386 139.792 489.789C139.792 488.466 140.208 487.383 141.04 486.541C141.883 485.677 142.971 485.245 144.304 485.245C145.552 485.245 146.581 485.639 147.392 486.429C148.203 487.207 148.608 488.269 148.608 489.613ZM144.304 486.989C143.696 486.989 143.179 487.165 142.752 487.517C142.336 487.869 142.059 488.349 141.92 488.957H146.56C146.475 488.349 146.224 487.869 145.808 487.517C145.403 487.165 144.901 486.989 144.304 486.989ZM156.097 486.557V485.453H158.081V494.141H156.097V493.069C155.339 493.922 154.395 494.349 153.265 494.349C152.017 494.349 150.987 493.911 150.177 493.037C149.366 492.162 148.961 491.069 148.961 489.757C148.961 488.445 149.366 487.367 150.177 486.525C150.998 485.671 152.027 485.245 153.265 485.245C154.374 485.245 155.318 485.682 156.097 486.557ZM156.145 489.789C156.145 489.053 155.905 488.429 155.425 487.917C154.945 487.405 154.331 487.149 153.585 487.149C152.838 487.149 152.225 487.405 151.745 487.917C151.275 488.439 151.041 489.063 151.041 489.789C151.041 490.525 151.275 491.154 151.745 491.677C152.225 492.189 152.838 492.445 153.585 492.445C154.331 492.445 154.945 492.189 155.425 491.677C155.905 491.165 156.145 490.535 156.145 489.789ZM161.486 481.981V494.141H159.406V481.981H161.486ZM168.297 491.997L168.953 493.629C168.27 494.109 167.433 494.349 166.441 494.349C164.457 494.349 163.465 493.218 163.465 490.957V487.213H162.025V485.453H163.497V482.381H165.561V485.453H168.473V487.213H165.561V490.877C165.561 491.922 165.982 492.445 166.825 492.445C167.316 492.445 167.806 492.295 168.297 491.997ZM171.339 494.141H169.259V481.981H171.291V486.573C171.547 486.167 171.92 485.842 172.411 485.597C172.902 485.351 173.446 485.229 174.043 485.229C174.971 485.229 175.766 485.543 176.427 486.173C177.088 486.802 177.419 487.693 177.419 488.845V494.141H175.339V489.405C175.339 488.69 175.168 488.135 174.827 487.741C174.486 487.335 174.022 487.133 173.435 487.133C172.816 487.133 172.31 487.346 171.915 487.773C171.531 488.199 171.339 488.754 171.339 489.437V494.141ZM179.607 491.965C179.991 491.965 180.311 492.103 180.567 492.381C180.823 492.647 180.951 492.989 180.951 493.405C180.951 494.535 180.167 495.602 178.599 496.605L177.975 495.757L178.615 495.245C178.999 494.957 179.282 494.647 179.463 494.317H179.415C179.116 494.317 178.86 494.21 178.647 493.997C178.434 493.773 178.327 493.506 178.327 493.197C178.327 492.845 178.45 492.551 178.695 492.317C178.951 492.082 179.255 491.965 179.607 491.965ZM189.605 483.517C189.072 483.517 188.661 483.655 188.373 483.933C188.085 484.199 187.941 484.589 187.941 485.101V485.453H190.661V487.213H187.941V494.141H185.861V487.213H184.485V485.453H185.861V485.053C185.861 483.975 186.171 483.138 186.789 482.541C187.419 481.943 188.261 481.645 189.317 481.645C190.117 481.645 190.896 481.842 191.653 482.237L190.997 483.869C190.464 483.634 190 483.517 189.605 483.517ZM190.329 489.789C190.329 488.509 190.761 487.431 191.625 486.557C192.51 485.671 193.625 485.229 194.969 485.229C196.324 485.229 197.433 485.671 198.297 486.557C199.172 487.431 199.609 488.509 199.609 489.789C199.609 491.09 199.172 492.178 198.297 493.053C197.433 493.927 196.324 494.365 194.969 494.365C193.614 494.365 192.5 493.927 191.625 493.053C190.761 492.178 190.329 491.09 190.329 489.789ZM197.513 489.789C197.513 489.053 197.268 488.434 196.777 487.933C196.276 487.421 195.673 487.165 194.969 487.165C194.265 487.165 193.662 487.421 193.161 487.933C192.67 488.434 192.425 489.053 192.425 489.789C192.425 490.535 192.67 491.159 193.161 491.661C193.662 492.173 194.265 492.429 194.969 492.429C195.673 492.429 196.276 492.173 196.777 491.661C197.268 491.159 197.513 490.535 197.513 489.789ZM202.527 494.141H200.447V485.453H202.447V486.653C202.98 485.703 203.785 485.229 204.863 485.229C205.225 485.229 205.572 485.287 205.903 485.405L205.727 487.405C205.353 487.287 205.017 487.229 204.719 487.229C204.047 487.229 203.513 487.458 203.119 487.917C202.724 488.365 202.527 489.026 202.527 489.901V494.141ZM212.531 491.325L214.595 485.453H216.867L213.347 494.701C212.92 495.778 212.424 496.567 211.859 497.069C211.304 497.581 210.621 497.837 209.811 497.837C209.149 497.837 208.616 497.698 208.211 497.421L208.547 495.661C208.952 495.853 209.32 495.949 209.651 495.949C210.355 495.949 210.92 495.479 211.347 494.541L211.555 494.061L207.763 485.453H210.179L212.531 491.325ZM216.426 489.789C216.426 488.509 216.858 487.431 217.722 486.557C218.607 485.671 219.722 485.229 221.066 485.229C222.421 485.229 223.53 485.671 224.394 486.557C225.269 487.431 225.706 488.509 225.706 489.789C225.706 491.09 225.269 492.178 224.394 493.053C223.53 493.927 222.421 494.365 221.066 494.365C219.711 494.365 218.597 493.927 217.722 493.053C216.858 492.178 216.426 491.09 216.426 489.789ZM223.61 489.789C223.61 489.053 223.365 488.434 222.874 487.933C222.373 487.421 221.77 487.165 221.066 487.165C220.362 487.165 219.759 487.421 219.258 487.933C218.767 488.434 218.522 489.053 218.522 489.789C218.522 490.535 218.767 491.159 219.258 491.661C219.759 492.173 220.362 492.429 221.066 492.429C221.77 492.429 222.373 492.173 222.874 491.661C223.365 491.159 223.61 490.535 223.61 489.789ZM230.352 494.349C229.136 494.349 228.176 494.013 227.472 493.341C226.778 492.658 226.432 491.714 226.432 490.509V485.453H228.528V490.509C228.528 491.095 228.688 491.565 229.008 491.917C229.338 492.269 229.786 492.445 230.352 492.445C230.928 492.445 231.376 492.269 231.696 491.917C232.026 491.565 232.192 491.095 232.192 490.509V485.453H234.288V490.509C234.288 491.714 233.936 492.658 233.232 493.341C232.538 494.013 231.578 494.349 230.352 494.349ZM245.319 486.557V485.453H247.303V494.141H245.319V493.069C244.561 493.922 243.617 494.349 242.487 494.349C241.239 494.349 240.209 493.911 239.399 493.037C238.588 492.162 238.183 491.069 238.183 489.757C238.183 488.445 238.588 487.367 239.399 486.525C240.22 485.671 241.249 485.245 242.487 485.245C243.596 485.245 244.54 485.682 245.319 486.557ZM245.367 489.789C245.367 489.053 245.127 488.429 244.647 487.917C244.167 487.405 243.553 487.149 242.807 487.149C242.06 487.149 241.447 487.405 240.967 487.917C240.497 488.439 240.263 489.063 240.263 489.789C240.263 490.525 240.497 491.154 240.967 491.677C241.447 492.189 242.06 492.445 242.807 492.445C243.553 492.445 244.167 492.189 244.647 491.677C245.127 491.165 245.367 490.535 245.367 489.789ZM250.708 494.141H248.628V485.453H250.676V486.669C250.911 486.221 251.268 485.869 251.748 485.613C252.228 485.357 252.783 485.229 253.412 485.229C254.361 485.229 255.167 485.543 255.828 486.173C256.489 486.802 256.82 487.693 256.82 488.845V494.141H254.724V489.421C254.724 488.706 254.553 488.146 254.212 487.741C253.871 487.335 253.407 487.133 252.82 487.133C252.201 487.133 251.695 487.351 251.3 487.789C250.905 488.215 250.708 488.77 250.708 489.453V494.141ZM264.591 486.557V481.981H266.671V494.141H264.639V493.005C263.914 493.901 262.991 494.349 261.871 494.349C260.623 494.349 259.594 493.917 258.783 493.053C257.962 492.167 257.551 491.079 257.551 489.789C257.551 488.519 257.962 487.442 258.783 486.557C259.615 485.682 260.639 485.245 261.855 485.245C262.965 485.245 263.877 485.682 264.591 486.557ZM262.159 492.445C262.917 492.445 263.53 492.189 263.999 491.677C264.469 491.154 264.703 490.525 264.703 489.789C264.703 489.053 264.463 488.429 263.983 487.917C263.525 487.405 262.917 487.149 262.159 487.149C261.402 487.149 260.794 487.405 260.335 487.917C259.866 488.439 259.631 489.063 259.631 489.789C259.631 490.525 259.866 491.154 260.335 491.677C260.794 492.189 261.402 492.445 262.159 492.445ZM275.662 483.517C275.128 483.517 274.718 483.655 274.43 483.933C274.142 484.199 273.998 484.589 273.998 485.101V485.453H276.718V487.213H273.998V494.141H271.918V487.213H270.542V485.453H271.918V485.053C271.918 483.975 272.227 483.138 272.846 482.541C273.475 481.943 274.318 481.645 275.374 481.645C276.174 481.645 276.952 481.842 277.71 482.237L277.054 483.869C276.52 483.634 276.056 483.517 275.662 483.517ZM283.537 486.557V485.453H285.521V494.141H283.537V493.069C282.78 493.922 281.836 494.349 280.705 494.349C279.457 494.349 278.428 493.911 277.617 493.037C276.807 492.162 276.401 491.069 276.401 489.757C276.401 488.445 276.807 487.367 277.617 486.525C278.439 485.671 279.468 485.245 280.705 485.245C281.815 485.245 282.759 485.682 283.537 486.557ZM283.585 489.789C283.585 489.053 283.345 488.429 282.865 487.917C282.385 487.405 281.772 487.149 281.025 487.149C280.279 487.149 279.665 487.405 279.185 487.917C278.716 488.439 278.481 489.063 278.481 489.789C278.481 490.525 278.716 491.154 279.185 491.677C279.665 492.189 280.279 492.445 281.025 492.445C281.772 492.445 282.385 492.189 282.865 491.677C283.345 491.165 283.585 490.535 283.585 489.789ZM297.247 485.213C298.271 485.213 299.113 485.543 299.775 486.205C300.436 486.866 300.767 487.767 300.767 488.909V494.141H298.671V489.293C298.671 488.599 298.505 488.066 298.175 487.693C297.855 487.319 297.417 487.133 296.863 487.133C296.276 487.133 295.796 487.335 295.423 487.741C295.049 488.146 294.863 488.685 294.863 489.357V494.141H292.783V489.309C292.783 488.637 292.612 488.109 292.271 487.725C291.94 487.33 291.497 487.133 290.943 487.133C290.356 487.133 289.871 487.341 289.487 487.757C289.113 488.162 288.927 488.701 288.927 489.373V494.141H286.847V485.453H288.895V486.701C289.14 486.242 289.497 485.879 289.967 485.613C290.447 485.346 290.969 485.213 291.535 485.213C292.121 485.223 292.644 485.362 293.103 485.629C293.561 485.895 293.903 486.274 294.127 486.765C294.436 486.274 294.868 485.895 295.423 485.629C295.977 485.351 296.585 485.213 297.247 485.213Z" fill="white"/>
<rect x="2.5" y="387.812" width="344.657" height="160.657" rx="16.6858" stroke="white" stroke-opacity="0.2"/>
<path d="M93.3311 62.0628C92.3338 60.6628 90.7125 59.8281 88.9951 59.8281H66.6645C64.9471 59.8281 63.3258 60.6628 62.2191 62.2255L51.5525 79.7748C50.9418 80.7801 51.0591 82.0681 51.8485 82.9428L75.8485 109.609C76.3525 110.175 77.0751 110.495 77.8298 110.495C78.5845 110.495 79.3071 110.175 79.8111 109.612L103.811 82.9455C104.6 82.0708 104.72 80.7801 104.107 79.7775L93.3311 62.0628ZM77.8298 103.841L59.8165 83.8281H95.8405L77.8298 103.841ZM58.5685 78.4948L66.6645 65.1615L88.8831 64.9961L97.0885 78.4948H58.5685Z" fill="white"/>
<path d="M142.052 67.8681C143.481 68.2521 144.58 68.9988 145.348 70.1081C146.137 71.1961 146.532 72.4761 146.532 73.9481C146.532 75.8681 145.86 77.5001 144.516 78.8441C143.151 80.1668 141.337 80.8281 139.076 80.8281H128.548V57.1801H138.596C140.708 57.1801 142.351 57.7668 143.524 58.9401C144.697 60.1135 145.284 61.4895 145.284 63.0681C145.284 64.1561 144.985 65.1481 144.388 66.0441C143.791 66.9188 143.012 67.5268 142.052 67.8681ZM137.892 61.0521H132.868V66.5241H137.732C138.713 66.5241 139.481 66.2575 140.036 65.7241C140.612 65.1908 140.9 64.5188 140.9 63.7081C140.9 62.9615 140.623 62.3321 140.068 61.8201C139.535 61.3081 138.809 61.0521 137.892 61.0521ZM132.868 76.9241H138.244C139.396 76.9241 140.313 76.6041 140.996 75.9641C141.679 75.3241 142.02 74.5455 142.02 73.6281C142.02 72.6468 141.679 71.8361 140.996 71.1961C140.335 70.5561 139.417 70.2361 138.244 70.2361H132.868V76.9241ZM161.653 65.6601V63.4521H165.621V80.8281H161.653V78.6841C160.138 80.3908 158.25 81.2441 155.989 81.2441C153.493 81.2441 151.434 80.3695 149.813 78.6201C148.192 76.8708 147.381 74.6841 147.381 72.0601C147.381 69.4361 148.192 67.2815 149.813 65.5961C151.456 63.8895 153.514 63.0361 155.989 63.0361C158.208 63.0361 160.096 63.9108 161.653 65.6601ZM161.749 72.1241C161.749 70.6521 161.269 69.4041 160.309 68.3801C159.349 67.3561 158.122 66.8441 156.629 66.8441C155.136 66.8441 153.909 67.3561 152.949 68.3801C152.01 69.4255 151.541 70.6735 151.541 72.1241C151.541 73.5961 152.01 74.8548 152.949 75.9001C153.909 76.9241 155.136 77.4361 156.629 77.4361C158.122 77.4361 159.349 76.9241 160.309 75.9001C161.269 74.8761 161.749 73.6175 161.749 72.1241ZM173.871 81.2761C170.863 81.2761 168.527 80.1241 166.863 77.8201L169.231 75.2601C169.807 76.0281 170.511 76.6361 171.343 77.0841C172.197 77.5108 173.05 77.7241 173.903 77.7241C174.65 77.7241 175.258 77.5535 175.727 77.2121C176.218 76.8495 176.463 76.4121 176.463 75.9001C176.463 75.2175 176.026 74.6628 175.151 74.2361C174.874 74.0655 174.17 73.7775 173.039 73.3721C172.037 72.9881 171.301 72.6788 170.831 72.4441C168.89 71.4841 167.919 70.0121 167.919 68.0281C167.919 66.5135 168.495 65.2761 169.647 64.3161C170.799 63.3561 172.325 62.8761 174.223 62.8761C176.677 62.8761 178.661 63.7295 180.175 65.4361L177.999 68.0921C176.869 66.8975 175.567 66.3001 174.095 66.3001C173.455 66.3001 172.943 66.4601 172.559 66.7801C172.175 67.0788 171.983 67.4628 171.983 67.9321C171.983 68.7001 172.485 69.2655 173.487 69.6281C176.026 70.6308 177.423 71.2068 177.679 71.3561C179.642 72.4228 180.623 73.8948 180.623 75.7721C180.623 77.3508 180.005 78.6628 178.767 79.7081C177.53 80.7535 175.898 81.2761 173.871 81.2761ZM184.442 61.3721C183.674 61.3721 183.034 61.1268 182.522 60.6361C182.01 60.1455 181.754 59.5161 181.754 58.7481C181.754 58.0015 182.01 57.3828 182.522 56.8921C183.055 56.3801 183.695 56.1241 184.442 56.1241C185.189 56.1241 185.807 56.3801 186.298 56.8921C186.81 57.3828 187.066 58.0015 187.066 58.7481C187.066 59.5161 186.81 60.1455 186.298 60.6361C185.807 61.1268 185.189 61.3721 184.442 61.3721ZM186.49 63.4521V80.8281H182.298V63.4521H186.49ZM197.296 81.2121C194.629 81.2121 192.421 80.3588 190.672 78.6521C188.965 76.9455 188.112 74.7695 188.112 72.1241C188.112 69.4788 188.976 67.3028 190.704 65.5961C192.453 63.8895 194.693 63.0361 197.424 63.0361C199.216 63.0361 200.827 63.4628 202.256 64.3161C203.707 65.1481 204.784 66.3108 205.488 67.8041L202.096 69.6281C200.987 67.7935 199.451 66.8761 197.488 66.8761C195.995 66.8761 194.747 67.3775 193.744 68.3801C192.763 69.3615 192.272 70.6095 192.272 72.1241C192.272 73.6175 192.752 74.8655 193.712 75.8681C194.672 76.8708 195.888 77.3721 197.36 77.3721C198.32 77.3721 199.227 77.1268 200.08 76.6361C200.955 76.1241 201.605 75.4628 202.032 74.6521L205.424 76.6361C204.656 78.0441 203.547 79.1641 202.096 79.9961C200.667 80.8068 199.067 81.2121 197.296 81.2121Z" fill="white"/>
<path opacity="0.5" d="M133.94 100.348C134.655 100.54 135.204 100.913 135.588 101.468C135.983 102.012 136.18 102.652 136.18 103.388C136.18 104.348 135.844 105.164 135.172 105.836C134.489 106.497 133.583 106.828 132.452 106.828H127.188V95.0041H132.212C133.268 95.0041 134.089 95.2975 134.676 95.8841C135.263 96.4708 135.556 97.1588 135.556 97.9481C135.556 98.4921 135.407 98.9881 135.108 99.4361C134.809 99.8735 134.42 100.177 133.94 100.348ZM131.86 96.9401H129.348V99.6761H131.78C132.271 99.6761 132.655 99.5428 132.932 99.2761C133.22 99.0095 133.364 98.6735 133.364 98.2681C133.364 97.8948 133.225 97.5801 132.948 97.3241C132.681 97.0681 132.319 96.9401 131.86 96.9401ZM129.348 104.876H132.036C132.612 104.876 133.071 104.716 133.412 104.396C133.753 104.076 133.924 103.687 133.924 103.228C133.924 102.737 133.753 102.332 133.412 102.012C133.081 101.692 132.623 101.532 132.036 101.532H129.348V104.876ZM145.42 102.3C145.42 102.577 145.399 102.887 145.357 103.228H138.732C138.871 103.847 139.164 104.337 139.612 104.7C140.071 105.052 140.663 105.228 141.389 105.228C142.445 105.228 143.399 104.929 144.253 104.332L145.085 105.82C144.007 106.62 142.749 107.02 141.309 107.02C140.519 107.02 139.815 106.892 139.197 106.636C138.588 106.38 138.098 106.039 137.724 105.612C137.351 105.175 137.068 104.695 136.876 104.172C136.695 103.639 136.604 103.073 136.604 102.476C136.604 101.153 137.02 100.071 137.852 99.2281C138.695 98.3641 139.783 97.9321 141.116 97.9321C142.365 97.9321 143.394 98.3268 144.205 99.1161C145.015 99.8948 145.42 100.956 145.42 102.3ZM141.116 99.6761C140.509 99.6761 139.991 99.8521 139.565 100.204C139.149 100.556 138.871 101.036 138.732 101.644H143.372C143.287 101.036 143.037 100.556 142.621 100.204C142.215 99.8521 141.714 99.6761 141.116 99.6761ZM149.006 107.052C147.502 107.052 146.334 106.476 145.502 105.324L146.686 104.044C146.974 104.428 147.326 104.732 147.742 104.956C148.169 105.169 148.595 105.276 149.022 105.276C149.395 105.276 149.699 105.191 149.934 105.02C150.179 104.839 150.302 104.62 150.302 104.364C150.302 104.023 150.083 103.745 149.646 103.532C149.507 103.447 149.155 103.303 148.59 103.1C148.089 102.908 147.721 102.753 147.486 102.636C146.515 102.156 146.03 101.42 146.03 100.428C146.03 99.6708 146.318 99.0521 146.894 98.5721C147.47 98.0921 148.233 97.8521 149.182 97.8521C150.409 97.8521 151.401 98.2788 152.158 99.1321L151.07 100.46C150.505 99.8628 149.854 99.5641 149.118 99.5641C148.798 99.5641 148.542 99.6441 148.35 99.8041C148.158 99.9535 148.062 100.145 148.062 100.38C148.062 100.764 148.313 101.047 148.814 101.228C150.083 101.729 150.782 102.017 150.91 102.092C151.891 102.625 152.382 103.361 152.382 104.3C152.382 105.089 152.073 105.745 151.454 106.268C150.835 106.791 150.019 107.052 149.006 107.052ZM158.55 104.684L159.206 106.316C158.524 106.796 157.686 107.036 156.694 107.036C154.71 107.036 153.718 105.905 153.718 103.644V99.9001H152.278V98.1401H153.75V95.0681H155.814V98.1401H158.726V99.9001H155.814V103.564C155.814 104.609 156.236 105.132 157.078 105.132C157.569 105.132 158.06 104.983 158.55 104.684ZM166.428 106.812H164.62L161.66 98.1401H163.836L165.66 104.028L167.724 98.1401H169.18L171.292 104.028L173.068 98.1401H175.244L172.332 106.812H170.524L168.46 101.132L166.428 106.812ZM182.084 99.2441V98.1401H184.068V106.828H182.084V105.756C181.327 106.609 180.383 107.036 179.252 107.036C178.004 107.036 176.975 106.599 176.164 105.724C175.354 104.849 174.948 103.756 174.948 102.444C174.948 101.132 175.354 100.055 176.164 99.2121C176.986 98.3588 178.015 97.9321 179.252 97.9321C180.362 97.9321 181.306 98.3695 182.084 99.2441ZM182.132 102.476C182.132 101.74 181.892 101.116 181.412 100.604C180.932 100.092 180.319 99.8361 179.572 99.8361C178.826 99.8361 178.212 100.092 177.732 100.604C177.263 101.127 177.028 101.751 177.028 102.476C177.028 103.212 177.263 103.841 177.732 104.364C178.212 104.876 178.826 105.132 179.572 105.132C180.319 105.132 180.932 104.876 181.412 104.364C181.892 103.852 182.132 103.223 182.132 102.476ZM189.25 104.012L191.314 98.1401H193.586L190.066 107.388C189.639 108.465 189.143 109.255 188.578 109.756C188.023 110.268 187.34 110.524 186.53 110.524C185.868 110.524 185.335 110.385 184.93 110.108L185.266 108.348C185.671 108.54 186.039 108.636 186.37 108.636C187.074 108.636 187.639 108.167 188.066 107.228L188.274 106.748L184.482 98.1401H186.898L189.25 104.012ZM202.375 104.684L203.031 106.316C202.349 106.796 201.511 107.036 200.519 107.036C198.535 107.036 197.543 105.905 197.543 103.644V99.9001H196.103V98.1401H197.575V95.0681H199.639V98.1401H202.551V99.9001H199.639V103.564C199.639 104.609 200.061 105.132 200.903 105.132C201.394 105.132 201.885 104.983 202.375 104.684ZM202.732 102.476C202.732 101.196 203.164 100.119 204.028 99.2441C204.914 98.3588 206.028 97.9161 207.372 97.9161C208.727 97.9161 209.836 98.3588 210.7 99.2441C211.575 100.119 212.012 101.196 212.012 102.476C212.012 103.777 211.575 104.865 210.7 105.74C209.836 106.615 208.727 107.052 207.372 107.052C206.018 107.052 204.903 106.615 204.028 105.74C203.164 104.865 202.732 103.777 202.732 102.476ZM209.916 102.476C209.916 101.74 209.671 101.121 209.18 100.62C208.679 100.108 208.076 99.8521 207.372 99.8521C206.668 99.8521 206.066 100.108 205.564 100.62C205.074 101.121 204.828 101.74 204.828 102.476C204.828 103.223 205.074 103.847 205.564 104.348C206.066 104.86 206.668 105.116 207.372 105.116C208.076 105.116 208.679 104.86 209.18 104.348C209.671 103.847 209.916 103.223 209.916 102.476ZM222.707 99.1801V98.1401H224.659V105.964C224.659 107.351 224.216 108.455 223.331 109.276C222.446 110.097 221.294 110.508 219.875 110.508C218.403 110.508 217.086 110.092 215.923 109.26L216.771 107.676C217.742 108.359 218.76 108.7 219.827 108.7C220.702 108.7 221.39 108.465 221.891 107.996C222.392 107.537 222.643 106.929 222.643 106.172V105.66C221.939 106.449 221.016 106.844 219.875 106.844C218.606 106.844 217.566 106.423 216.755 105.58C215.944 104.737 215.539 103.676 215.539 102.396C215.539 101.095 215.96 100.028 216.803 99.1961C217.646 98.3535 218.696 97.9321 219.955 97.9321C221.064 97.9321 221.982 98.3481 222.707 99.1801ZM220.179 105.02C220.904 105.02 221.507 104.775 221.987 104.284C222.467 103.783 222.707 103.159 222.707 102.412C222.707 101.665 222.467 101.052 221.987 100.572C221.507 100.081 220.904 99.8361 220.179 99.8361C219.443 99.8361 218.835 100.081 218.355 100.572C217.875 101.052 217.635 101.665 217.635 102.412C217.635 103.159 217.875 103.783 218.355 104.284C218.835 104.775 219.443 105.02 220.179 105.02ZM234.32 102.3C234.32 102.577 234.299 102.887 234.256 103.228H227.632C227.771 103.847 228.064 104.337 228.512 104.7C228.971 105.052 229.563 105.228 230.288 105.228C231.344 105.228 232.299 104.929 233.152 104.332L233.984 105.82C232.907 106.62 231.648 107.02 230.208 107.02C229.419 107.02 228.715 106.892 228.096 106.636C227.488 106.38 226.998 106.039 226.624 105.612C226.251 105.175 225.968 104.695 225.776 104.172C225.595 103.639 225.504 103.073 225.504 102.476C225.504 101.153 225.92 100.071 226.752 99.2281C227.595 98.3641 228.683 97.9321 230.016 97.9321C231.264 97.9321 232.294 98.3268 233.104 99.1161C233.915 99.8948 234.32 100.956 234.32 102.3ZM230.016 99.6761C229.408 99.6761 228.891 99.8521 228.464 100.204C228.048 100.556 227.771 101.036 227.632 101.644H232.272C232.187 101.036 231.936 100.556 231.52 100.204C231.115 99.8521 230.614 99.6761 230.016 99.6761ZM240.5 104.684L241.156 106.316C240.474 106.796 239.636 107.036 238.644 107.036C236.66 107.036 235.668 105.905 235.668 103.644V99.9001H234.228V98.1401H235.7V95.0681H237.764V98.1401H240.676V99.9001H237.764V103.564C237.764 104.609 238.186 105.132 239.028 105.132C239.519 105.132 240.01 104.983 240.5 104.684ZM247.415 107.052C245.911 107.052 244.743 106.476 243.911 105.324L245.095 104.044C245.383 104.428 245.735 104.732 246.151 104.956C246.578 105.169 247.005 105.276 247.431 105.276C247.805 105.276 248.109 105.191 248.343 105.02C248.589 104.839 248.711 104.62 248.711 104.364C248.711 104.023 248.493 103.745 248.055 103.532C247.917 103.447 247.565 103.303 246.999 103.1C246.498 102.908 246.13 102.753 245.895 102.636C244.925 102.156 244.439 101.42 244.439 100.428C244.439 99.6708 244.727 99.0521 245.303 98.5721C245.879 98.0921 246.642 97.8521 247.591 97.8521C248.818 97.8521 249.81 98.2788 250.567 99.1321L249.479 100.46C248.914 99.8628 248.263 99.5641 247.527 99.5641C247.207 99.5641 246.951 99.6441 246.759 99.8041C246.567 99.9535 246.471 100.145 246.471 100.38C246.471 100.764 246.722 101.047 247.223 101.228C248.493 101.729 249.191 102.017 249.319 102.092C250.301 102.625 250.791 103.361 250.791 104.3C250.791 105.089 250.482 105.745 249.863 106.268C249.245 106.791 248.429 107.052 247.415 107.052ZM256.96 104.684L257.616 106.316C256.933 106.796 256.096 107.036 255.104 107.036C253.12 107.036 252.128 105.905 252.128 103.644V99.9001H250.688V98.1401H252.16V95.0681H254.224V98.1401H257.136V99.9001H254.224V103.564C254.224 104.609 254.645 105.132 255.488 105.132C255.978 105.132 256.469 104.983 256.96 104.684ZM264.469 99.2441V98.1401H266.453V106.828H264.469V105.756C263.711 106.609 262.767 107.036 261.637 107.036C260.389 107.036 259.359 106.599 258.549 105.724C257.738 104.849 257.333 103.756 257.333 102.444C257.333 101.132 257.738 100.055 258.549 99.2121C259.37 98.3588 260.399 97.9321 261.637 97.9321C262.746 97.9321 263.69 98.3695 264.469 99.2441ZM264.517 102.476C264.517 101.74 264.277 101.116 263.797 100.604C263.317 100.092 262.703 99.8361 261.957 99.8361C261.21 99.8361 260.597 100.092 260.117 100.604C259.647 101.127 259.413 101.751 259.413 102.476C259.413 103.212 259.647 103.841 260.117 104.364C260.597 104.876 261.21 105.132 261.957 105.132C262.703 105.132 263.317 104.876 263.797 104.364C264.277 103.852 264.517 103.223 264.517 102.476ZM269.858 106.828H267.778V98.1401H269.778V99.3401C270.311 98.3908 271.117 97.9161 272.194 97.9161C272.557 97.9161 272.903 97.9748 273.234 98.0921L273.058 100.092C272.685 99.9748 272.349 99.9161 272.05 99.9161C271.378 99.9161 270.845 100.145 270.45 100.604C270.055 101.052 269.858 101.713 269.858 102.588V106.828ZM279.278 104.684L279.934 106.316C279.252 106.796 278.414 107.036 277.422 107.036C275.438 107.036 274.446 105.905 274.446 103.644V99.9001H273.006V98.1401H274.478V95.0681H276.542V98.1401H279.454V99.9001H276.542V103.564C276.542 104.609 276.964 105.132 277.806 105.132C278.297 105.132 278.788 104.983 279.278 104.684ZM288.467 102.3C288.467 102.577 288.446 102.887 288.403 103.228H281.779C281.918 103.847 282.211 104.337 282.659 104.7C283.118 105.052 283.71 105.228 284.435 105.228C285.491 105.228 286.446 104.929 287.299 104.332L288.131 105.82C287.054 106.62 285.795 107.02 284.355 107.02C283.566 107.02 282.862 106.892 282.243 106.636C281.635 106.38 281.145 106.039 280.771 105.612C280.398 105.175 280.115 104.695 279.923 104.172C279.742 103.639 279.651 103.073 279.651 102.476C279.651 101.153 280.067 100.071 280.899 99.2281C281.742 98.3641 282.83 97.9321 284.163 97.9321C285.411 97.9321 286.441 98.3268 287.251 99.1161C288.062 99.8948 288.467 100.956 288.467 102.3ZM284.163 99.6761C283.555 99.6761 283.038 99.8521 282.611 100.204C282.195 100.556 281.918 101.036 281.779 101.644H286.419C286.334 101.036 286.083 100.556 285.667 100.204C285.262 99.8521 284.761 99.6761 284.163 99.6761ZM295.86 99.2441V94.6681H297.94V106.828H295.908V105.692C295.183 106.588 294.26 107.036 293.14 107.036C291.892 107.036 290.863 106.604 290.052 105.74C289.231 104.855 288.82 103.767 288.82 102.476C288.82 101.207 289.231 100.129 290.052 99.2441C290.884 98.3695 291.908 97.9321 293.124 97.9321C294.233 97.9321 295.145 98.3695 295.86 99.2441ZM293.428 105.132C294.185 105.132 294.799 104.876 295.268 104.364C295.737 103.841 295.972 103.212 295.972 102.476C295.972 101.74 295.732 101.116 295.252 100.604C294.793 100.092 294.185 99.8361 293.428 99.8361C292.671 99.8361 292.063 100.092 291.604 100.604C291.135 101.127 290.9 101.751 290.9 102.476C290.9 103.212 291.135 103.841 291.604 104.364C292.063 104.876 292.671 105.132 293.428 105.132Z" fill="white"/>
<rect x="0.5" y="0.5" width="344.657" height="160.657" rx="16.6858" stroke="white" stroke-opacity="0.2"/>
</svg>
