<svg width="123" height="123" viewBox="0 0 123 123" fill="none" xmlns="http://www.w3.org/2000/svg">
<rect width="123" height="123" rx="22.14" fill="#FF740F"/>
<path d="M61.5387 96.0985C60.4571 94.9162 55.57 88.6656 50.1765 80.2403C48.6031 77.6054 47.5848 75.5516 47.7804 75.0224C48.2924 73.6416 57.4311 72.8851 60.2443 74.1364C61.1015 74.5161 61.0785 75.0195 61.0785 75.3129C61.0785 76.5785 61.0152 79.9699 61.0152 79.9699C61.0155 80.1367 61.0488 80.3018 61.1129 80.4557C61.1771 80.6096 61.271 80.7494 61.3892 80.8671C61.5074 80.9848 61.6476 81.078 61.8018 81.1415C61.956 81.2049 62.1212 81.2374 62.288 81.237C62.4548 81.2366 62.6199 81.2034 62.7738 81.1393C62.9277 81.0751 63.0675 80.9812 63.1852 80.863C63.3028 80.7448 63.3961 80.6046 63.4595 80.4504C63.523 80.2962 63.5555 80.131 63.5551 79.9642L63.5407 71.5101C63.5407 70.7766 62.7411 70.5925 62.5886 70.5638C61.1187 70.558 58.1358 70.5465 54.9343 70.5465C47.8667 70.5465 46.2875 70.837 45.088 70.0518C42.4877 68.3518 38.2333 56.886 38.1355 50.4369C37.9946 41.3414 43.3851 33.4627 50.9762 29.5593C54.2456 27.9137 57.8555 27.0585 61.5157 27.0625C73.5308 27.0625 83.426 36.1321 84.7434 47.7992L84.7463 47.8308C84.9879 50.6527 69.4404 51.251 66.3655 50.4312C65.8937 50.3046 65.7729 49.8214 65.7729 49.6143L65.7556 41.4335C65.7549 41.0963 65.6202 40.7732 65.3812 40.5353C65.1422 40.2974 64.8185 40.1642 64.4813 40.165C64.1441 40.1657 63.8211 40.3004 63.5832 40.5394C63.3453 40.7784 63.2121 41.102 63.2128 41.4392L63.2387 52.5598C63.2414 52.7786 63.3197 52.9897 63.4601 53.1574C63.6006 53.3251 63.7947 53.4392 64.0096 53.4803L73.6574 53.4774C78.8063 53.4774 80.9694 54.0728 82.4077 55.1688C83.3656 55.8994 83.7337 57.2945 83.4116 59.1096C80.5207 75.2582 62.2262 95.2643 61.5387 96.0985Z" fill="white"/>
</svg>
