<svg width="123" height="123" viewBox="0 0 123 123" fill="none" xmlns="http://www.w3.org/2000/svg">
<rect width="123" height="123" rx="22.14" fill="#E23744"/>
<path d="M24.6677 56.1236L24.5729 59.1715L16.6234 67.8126C19.944 67.8126 22.0496 67.7802 23.2638 67.7127C22.9119 69.3526 22.6257 70.6933 22.3375 72.7032C20.7406 72.5683 18.251 72.5346 15.7602 72.5346C12.9837 72.5346 10.5569 72.5679 8.60938 72.7032L8.67428 69.6207L16.6234 61.0141C13.1434 61.0141 11.866 61.047 10.4301 61.0807C10.7483 59.5399 10.9721 57.8326 11.1954 56.1236C13.7174 56.2239 14.707 56.2567 17.9956 56.2567C21.0288 56.2572 22.7517 56.2239 24.6677 56.1236ZM33.7033 55.2183C28.5299 55.2183 24.5729 59.8404 24.5729 65.3686C24.5729 69.5212 26.9667 72.7032 31.6276 72.7032C36.8317 72.7032 40.7584 68.0803 40.7584 62.5196C40.7589 58.4019 38.4274 55.2183 33.7033 55.2183ZM32.1384 68.2606C30.9887 68.2606 30.319 67.2209 30.319 65.1781C30.319 62.1301 31.564 59.6857 33.0972 59.6857C34.2137 59.6857 34.8842 60.6913 34.8842 62.7665C34.8838 65.7808 33.6717 68.2606 32.1384 68.2606ZM106.825 54.989C101.585 54.989 97.5749 59.6722 97.5749 65.27C97.5749 69.4791 100 72.7032 104.722 72.7032C109.994 72.7032 113.973 68.0196 113.973 62.3868C113.973 58.2136 111.613 54.989 106.825 54.989ZM105.141 68.2429C103.991 68.2429 103.321 67.2032 103.321 65.1604C103.321 62.1124 104.567 59.6684 106.1 59.6684C107.216 59.6684 107.887 60.6732 107.887 62.7488C107.887 65.7644 106.673 68.2429 105.141 68.2429ZM67.6069 61.248C68.0224 58.4019 67.799 55.8222 64.639 55.8222C62.3399 55.8222 59.85 57.7651 58.0942 61.0141C58.4777 58.3337 58.2535 55.8222 55.125 55.8222C52.7628 55.8222 50.2087 57.865 48.4521 61.248C48.8993 59.0375 48.804 56.5248 48.6759 55.9891C46.8565 56.2909 45.2608 56.4578 43.0254 56.5248C43.0895 58.066 42.9934 60.0743 42.706 61.9852L41.9718 67.0085C41.6844 68.9855 41.3649 71.2631 41.0454 72.7036H46.9838C47.0162 71.8316 47.24 70.4589 47.3993 69.2532L47.9101 65.804C48.3248 63.5585 50.1122 60.9138 51.4849 60.9138C52.2831 60.9138 52.252 61.6838 52.0282 63.1239L51.4533 67.0081C51.165 68.9851 50.8468 71.2627 50.5269 72.7032H56.5289C56.5613 71.8312 56.7527 70.4585 56.912 69.2527L57.4224 65.8035C57.8379 63.558 59.6266 60.9134 60.9984 60.9134C61.7975 60.9134 61.7659 61.6493 61.6369 62.6549L60.2031 72.7028H65.6808L67.6069 61.248ZM96.2873 67.4447L95.6488 71.3975C94.6588 71.9332 92.807 72.704 90.6681 72.704C87.0284 72.704 86.295 70.7611 86.8686 66.6414L87.795 60.0094H86.0038L86.5096 55.7164L88.4651 55.622L89.1997 52.507L94.722 50.4297L94.0203 55.6216H97.8197C97.6925 56.1573 97.244 59.1058 97.1184 60.009H93.413L92.5827 66.1386C92.3594 67.7127 92.4879 68.2825 93.5719 68.2825C94.3718 68.2817 95.5519 67.8126 96.2873 67.4447ZM75.3393 69.5798C77.3492 69.3307 78.7324 67.3933 79.065 65.4601L79.121 64.9421C78.2575 64.7491 77.0091 64.602 75.7987 64.7499C74.646 64.8903 73.6868 65.3694 73.1709 66.0632C72.7819 66.5613 72.5864 67.1573 72.6732 67.8678C72.8042 68.932 73.9814 69.7454 75.3393 69.5798ZM73.6286 72.6412C70.7918 72.9898 68.9235 71.8637 68.3625 69.3025C68.0106 67.6908 68.4991 65.855 69.3534 64.7596C70.4976 63.3271 72.3621 62.4075 74.6376 62.1297C76.4688 61.9026 78.0117 62.0147 79.4548 62.2878L79.5147 62.0404C79.556 61.6446 79.5977 61.2497 79.5399 60.7768C79.3903 59.5626 78.4328 58.8394 76.0684 59.1302C74.4732 59.3262 72.9555 59.9023 71.7772 60.5581L70.6308 57.0942C72.2281 56.1771 74.2414 55.4791 76.5455 55.1964C80.9468 54.6565 84.0394 56.0599 84.4356 59.2866C84.5405 60.1447 84.5532 61.0542 84.4448 61.8794C83.8797 65.8689 83.5176 68.8709 83.3588 70.8829C83.333 71.1944 83.3352 71.7296 83.363 72.4883L77.9013 72.4832C78.0176 72.1688 78.1218 71.7423 78.2145 71.2075C78.276 70.8555 78.3198 70.4117 78.3472 69.874C77.1929 71.4578 75.6061 72.3985 73.6286 72.6412Z" fill="white"/>
</svg>
