<svg width="123" height="123" viewBox="0 0 123 123" fill="none" xmlns="http://www.w3.org/2000/svg">
<rect width="123" height="123" rx="61.5" fill="#F8C300"/>
<path d="M82.5472 43.4101H80.927V39.1132C80.927 37.9157 80.0113 37 78.8138 37H37.1132C35.9157 37 35 37.9157 35 39.1132V50.3836C35 51.5811 35.9157 52.4969 37.1132 52.4969H78.8138C80.0113 52.4969 80.927 51.5811 80.927 50.3836V46.0164H82.5472C83.8855 46.0164 85.0126 47.1434 85.0126 48.4818V54.8214C85.0126 56.1597 83.8855 57.2868 82.5472 57.2868H57.6113V63.6264H56.273C55.4277 63.6264 54.7937 64.2604 54.7937 65.1057L55.2164 75.1082C55.2868 77.1509 55.2868 79.1937 55.2164 81.2365L54.7937 91.5208C54.7937 92.366 55.4277 93 56.273 93H61.3447C62.1899 93 62.8239 92.366 62.8239 91.5208L62.4013 81.3069C62.3308 79.2642 62.3308 77.2214 62.4013 75.1786L62.8239 65.1761C62.8239 64.3308 62.1899 63.6969 61.3447 63.6969H60.2176V59.9635H82.4767C85.2943 59.9635 87.6189 57.639 87.6189 54.8214V48.4818C87.6893 45.6642 85.3648 43.4101 82.5472 43.4101Z" fill="black"/>
</svg>
