<svg width="123" height="123" viewBox="0 0 123 123" fill="none" xmlns="http://www.w3.org/2000/svg">
<rect width="123" height="123" rx="61.5" fill="#F8C300"/>
<path d="M70.6489 70.1424L66.8514 69.7825C66.5957 68.3038 66.153 66.8489 65.5208 65.4515L68.4607 63.0228C69.2307 62.385 69.339 61.2463 68.7027 60.477L64.9785 55.9733C64.3431 55.2024 63.2044 55.095 62.4343 55.7296L59.4929 58.1622C58.2395 57.2768 56.8922 56.5697 55.4899 56.0401L55.8506 52.2419C55.9446 51.2473 55.2144 50.365 54.223 50.271L48.4038 49.7192C47.4092 49.6245 46.5293 50.3539 46.4322 51.3476L46.0722 55.1475C44.5943 55.4015 43.1387 55.8451 41.7428 56.4789L39.311 53.5366C38.6747 52.7674 37.5352 52.6591 36.7668 53.2953L32.2622 57.0188C31.4938 57.6542 31.3839 58.7953 32.0209 59.5637L34.4512 62.506C33.5673 63.7585 32.8586 65.1043 32.3299 66.5089L28.5308 66.1466C27.537 66.0527 26.654 66.7821 26.56 67.7774L26.0082 73.5943C25.9142 74.588 26.6412 75.4695 27.6374 75.5635L31.4365 75.925C31.6913 77.4029 32.1356 78.8585 32.7663 80.256L29.824 82.6847C29.054 83.3225 28.9481 84.4628 29.5835 85.232L33.3069 89.735C33.9424 90.5058 35.0819 90.6133 35.8519 89.9771L38.7918 87.546C40.0451 88.4299 41.3917 89.1386 42.7963 89.6681L42.4372 93.4664C42.3392 94.461 43.0702 95.3417 44.0648 95.4364L49.8801 95.9883C50.8754 96.083 51.7585 95.3552 51.8525 94.3598L52.2124 90.5616C53.6919 90.3075 55.1459 89.864 56.5442 89.2318L58.9737 92.1724C59.6115 92.9433 60.7494 93.05 61.5202 92.4137L66.0232 88.6895C66.7932 88.0549 66.8999 86.9154 66.2645 86.1454L63.8358 83.2047C64.7181 81.9505 65.4268 80.6032 65.9539 79.2001L69.7546 79.5617C70.7492 79.6564 71.6291 78.927 71.7238 77.9332L72.2781 72.1148C72.372 71.1178 71.6434 70.2363 70.6489 70.1424ZM55.2112 80.1931C51.1573 83.5447 45.1541 82.9753 41.8017 78.9214C38.451 74.8675 39.0203 68.8635 43.0742 65.5136C47.1297 62.1588 53.1329 62.7297 56.4837 66.7852C59.8361 70.8383 59.2667 76.8423 55.2112 80.1931Z" fill="black"/>
<path d="M95.8586 60.8313C96.4049 60.6569 96.7059 60.0724 96.5315 59.5254L95.5075 56.3275C95.3331 55.7812 94.7478 55.4794 94.2024 55.6538L92.1129 56.3243C91.6335 55.5829 91.0674 54.9196 90.4311 54.3384L91.4361 52.3851C91.6996 51.877 91.499 51.2488 90.9893 50.9876L88.0033 49.4499C87.4944 49.1872 86.867 49.3862 86.6058 49.8959L85.5993 51.85C84.7576 51.6692 83.8873 51.5943 83.0081 51.6326L82.3409 49.5439C82.1657 48.9953 81.5804 48.6951 81.0342 48.8703L77.8355 49.8919C77.29 50.0671 76.989 50.6531 77.1618 51.197L77.8323 53.2888C77.0917 53.7682 76.4276 54.3344 75.8463 54.9698L73.8954 53.9641C73.3858 53.6997 72.7599 53.902 72.4972 54.4116L70.9595 57.3953C70.6952 57.9065 70.8966 58.5324 71.407 58.7944L73.3571 59.8001C73.1772 60.6418 73.1015 61.5129 73.1406 62.392L71.0503 63.0601C70.5048 63.2361 70.2023 63.8197 70.3782 64.3668L71.4007 67.5639C71.5751 68.1093 72.1595 68.4119 72.7066 68.2375L74.7968 67.5687C75.2754 68.3068 75.8408 68.9717 76.4778 69.5538L75.4729 71.5031C75.2101 72.0143 75.41 72.6394 75.9196 72.9038L78.9049 74.4414C79.4145 74.7042 80.0412 74.5027 80.3032 73.9939L81.3081 72.043C82.1506 72.223 83.0209 72.297 83.9 72.2588L84.5681 74.3482C84.7441 74.8937 85.3285 75.1963 85.8732 75.0219L89.0711 73.9987C89.6189 73.8243 89.9183 73.2398 89.7455 72.692L89.0759 70.6041C89.8148 70.1247 90.4797 69.5586 91.0618 68.9215L93.0135 69.9288C93.5215 70.1908 94.149 69.9894 94.4118 69.4797L95.9486 66.4953C96.2106 65.9856 96.0123 65.3598 95.5019 65.0962L93.5502 64.0921C93.7294 63.2488 93.805 62.3801 93.7676 61.501L95.8586 60.8313ZM85.1223 67.1578C82.2453 68.0783 79.1637 66.4905 78.244 63.6151C77.3219 60.7341 78.9105 57.6549 81.7882 56.7352C84.6676 55.8131 87.7492 57.4001 88.6674 60.2787C89.5879 63.1548 88.0009 66.2365 85.1223 67.1578Z" fill="black"/>
<path d="M54.4849 47.8413C54.6322 48.3039 55.1267 48.5579 55.5877 48.4106L57.3539 47.8444C57.7584 48.4695 58.237 49.0301 58.7745 49.5222L57.9264 51.1697C57.7035 51.6021 57.8723 52.1317 58.3047 52.353L60.8249 53.6526C61.2557 53.8755 61.7861 53.7067 62.0082 53.2743L62.8571 51.6268C63.5705 51.7781 64.3047 51.8402 65.0492 51.8092L65.613 53.5745C65.7611 54.0364 66.2564 54.292 66.7175 54.1431L69.4201 53.2783C69.8811 53.1302 70.1359 52.6357 69.9878 52.1755L69.424 50.4093C70.0467 50.004 70.6081 49.5254 71.0994 48.9887L72.7493 49.8384C73.1793 50.0613 73.7097 49.8909 73.931 49.4593L75.2306 46.9375C75.4535 46.5059 75.2847 45.9772 74.8531 45.755L73.2048 44.9061C73.3545 44.1935 73.4198 43.4577 73.3872 42.714L75.1525 42.1494C75.6144 42.0029 75.87 41.5076 75.7219 41.0481L74.8571 38.3455C74.7114 37.8837 74.2153 37.6289 73.7543 37.7754L71.9873 38.3432C71.5828 37.7173 71.1066 37.1559 70.5675 36.6638L71.4179 35.0147C71.6385 34.5839 71.4689 34.0559 71.0373 33.833L68.5171 32.5334C68.0863 32.3121 67.556 32.4809 67.333 32.9101L66.4834 34.56C65.7715 34.4087 65.0381 34.3458 64.2936 34.3776L63.729 32.6107C63.5825 32.1488 63.0872 31.894 62.6245 32.0421L59.9235 32.9069C59.4609 33.0558 59.2061 33.5495 59.355 34.0114L59.9204 35.7751C59.2953 36.1828 58.7331 36.6606 58.2426 37.1973L56.5927 36.3485C56.1619 36.1247 55.6315 36.2951 55.4102 36.7267L54.1114 39.2477C53.8901 39.6793 54.0597 40.2097 54.4905 40.431L56.1388 41.2807C55.9867 41.9917 55.9214 42.7275 55.9564 43.4696L54.1887 44.0358C53.7284 44.1839 53.472 44.676 53.6201 45.1379L54.4849 47.8413ZM63.26 38.6879C65.6942 37.9108 68.2957 39.2509 69.0753 41.6836C69.854 44.1154 68.5131 46.7193 66.0796 47.4973C63.6478 48.2752 61.0439 46.9351 60.2675 44.5016C59.488 42.0698 60.8281 39.4659 63.26 38.6879Z" fill="black"/>
</svg>
