<svg width="123" height="123" viewBox="0 0 123 123" fill="none" xmlns="http://www.w3.org/2000/svg">
<rect width="123" height="123" rx="61.5" fill="#F8C300"/>
<g clip-path="url(#clip0_550_1088)">
<path d="M91.24 81.2131L78.4613 59.0051L65.6827 36.8184C64.808 35.3037 63.1867 34.3438 61.4373 34.3438C59.688 34.3438 58.0667 35.2824 57.192 36.7971L31.656 81.1704C30.7813 82.6851 30.7813 84.5837 31.656 86.0984C32.5307 87.6344 34.1307 88.5944 35.9013 88.5944H86.9947C88.744 88.5944 90.3653 87.6344 91.24 86.1198C92.1147 84.6051 92.1147 82.7278 91.24 81.2131ZM58.8773 51.0904C58.8773 49.7251 59.9653 48.6371 61.3307 48.6371C62.696 48.6371 63.784 49.7251 63.784 51.0904V67.9438C63.784 69.3091 62.696 70.3971 61.3307 70.3971C59.9653 70.3971 58.8773 69.3091 58.8773 67.9438V51.0904ZM61.4373 80.5304C59.6667 80.5304 58.2373 79.1011 58.2373 77.3304C58.2373 75.5598 59.6667 74.1304 61.4373 74.1304C63.208 74.1304 64.6373 75.5598 64.6373 77.3304C64.6373 79.1011 63.208 80.5304 61.4373 80.5304Z" fill="black"/>
<path d="M35 52C35.5 52 100.6 76.7467 100.6 76.7467" stroke="black" stroke-width="3"/>
<path d="M34 54L99.6 78.7467" stroke="#F8C300" stroke-width="2"/>
</g>
<defs>
<clipPath id="clip0_550_1088">
<rect width="69" height="55" fill="white" transform="translate(31 34)"/>
</clipPath>
</defs>
</svg>
