<svg width="123" height="123" viewBox="0 0 123 123" fill="none" xmlns="http://www.w3.org/2000/svg">
<rect width="123" height="123" rx="61.5" fill="#F8C300"/>
<path fill-rule="evenodd" clip-rule="evenodd" d="M59.3212 33.892C59.3212 31.322 60.8402 30.003 62.3482 30C63.8562 30.003 65.3752 31.322 65.3752 33.892V35.25C66.4192 35.908 67.2312 36.9 67.6622 38.075H82.9452C83.7432 38.075 84.4332 38.565 84.7272 39.259L84.7312 39.268L93.2112 63.651C93.2572 63.782 93.2562 63.914 93.1802 64.03C93.1042 64.147 92.9842 64.211 92.8452 64.211H89.5142C89.3522 64.211 89.1972 64.126 89.1482 63.972L82.9622 44.873L76.8362 63.971C76.7862 64.125 76.6312 64.211 76.4692 64.211H73.1402C73.0012 64.211 72.8812 64.147 72.8052 64.031C72.7292 63.915 72.7292 63.784 72.7732 63.652L80.0312 41.946H67.6622C67.2312 43.122 66.4192 44.114 65.3752 44.772V84.881C65.3752 85.63 65.5752 86.273 65.9982 86.89C68.3582 90.333 72.1202 89.62 76.4902 90.255C79.4882 90.69 79.3552 94 76.9902 94H62.3792H62.3482H62.3172H47.7062C45.3412 94 45.2082 90.69 48.2062 90.255C52.5762 89.62 56.3382 90.333 58.6982 86.89C59.1212 86.273 59.3212 85.63 59.3212 84.881V44.772C58.2772 44.114 57.4652 43.122 57.0342 41.946H44.6652L51.9442 63.652C51.9892 63.783 51.9882 63.914 51.9122 64.031C51.8362 64.147 51.7172 64.211 51.5782 64.211H48.2512C48.0882 64.211 47.9342 64.126 47.8842 63.971L41.7342 44.873L35.6092 63.971C35.5602 64.125 35.4052 64.211 35.2422 64.211H31.9132C31.7752 64.211 31.6552 64.147 31.5792 64.031C31.5032 63.915 31.5012 63.783 31.5462 63.652L39.9652 39.268L39.9692 39.259C40.2632 38.565 40.9532 38.075 41.7512 38.075H57.0342C57.4652 36.9 58.2772 35.908 59.3212 35.25V33.892ZM53.0932 68.963C51.9822 74.153 47.3692 78.045 41.8482 78.045C36.3262 78.045 31.7132 74.153 30.6022 68.963C30.4722 68.353 30.6102 67.773 31.0032 67.287C31.3952 66.802 31.9332 66.545 32.5582 66.545H51.1372C51.7622 66.545 52.3002 66.802 52.6932 67.287C53.0852 67.773 53.2242 68.353 53.0932 68.963ZM94.0932 68.963C92.9832 74.153 88.3702 78.045 82.8482 78.045C77.3272 78.045 72.7142 74.153 71.6032 68.963C71.4722 68.353 71.6112 67.773 72.0042 67.287C72.3962 66.802 72.9342 66.545 73.5592 66.545H92.1382C92.7632 66.545 93.3002 66.802 93.6932 67.287C94.0862 67.773 94.2242 68.353 94.0932 68.963ZM62.3482 37.773L62.3172 37.772C61.0812 37.772 60.0792 38.775 60.0792 40.011C60.0792 41.247 61.0812 42.25 62.3172 42.25L62.3482 42.249L62.3792 42.25C63.6152 42.25 64.6172 41.247 64.6172 40.011C64.6172 38.775 63.6152 37.772 62.3792 37.772L62.3482 37.773Z" fill="black"/>
</svg>
