<svg width="123" height="123" viewBox="0 0 123 123" fill="none" xmlns="http://www.w3.org/2000/svg">
<rect width="123" height="123" rx="61.5" fill="#F8C300"/>
<path d="M61.9375 29C48.7375 29 38 39.7375 38 52.9375C38 57.2375 40.025 62.6625 44.175 69.525C47.625 75.225 51.9 80.8875 55.6625 85.875C57.4 88.175 59.0375 90.35 60.3 92.15C60.675 92.6875 61.2875 93 61.9375 93C62.5875 93 63.2 92.6875 63.575 92.15C64.8375 90.35 66.475 88.175 68.2125 85.875C71.975 80.8875 76.2375 75.225 79.7 69.525C83.85 62.6625 85.875 57.2375 85.875 52.9375C85.875 39.7375 75.1375 29 61.9375 29ZM61.9375 64C55.8375 64 50.875 59.0375 50.875 52.9375C50.875 46.8375 55.8375 41.875 61.9375 41.875C68.0375 41.875 73 46.8375 73 52.9375C73 59.0375 68.0375 64 61.9375 64Z" fill="black"/>
</svg>
