<svg width="123" height="123" viewBox="0 0 123 123" fill="none" xmlns="http://www.w3.org/2000/svg">
<rect width="123" height="123" rx="61.5" fill="#F8C300"/>
<path fill-rule="evenodd" clip-rule="evenodd" d="M60.6898 93V75.3394L45.4037 66.515V84.1756L53.3836 88.7819C53.3978 88.7876 53.4121 88.7962 53.4264 88.8047L60.6898 93ZM59.3427 51.4715V36.4397H56.189C55.8893 36.4397 55.6154 36.2599 55.4955 35.983C55.3756 35.7062 55.4327 35.3866 55.6382 35.1668L61.2149 29.239L61.2491 29.2076V29.2048C61.5516 28.9194 62.0283 28.9337 62.3165 29.239L67.8589 35.1297H67.8561C68.0872 35.3409 68.1643 35.6719 68.053 35.963C67.9388 36.2541 67.6563 36.4453 67.3452 36.4453H64.1858V51.4713C64.183 52.7099 63.1812 53.7145 61.9426 53.7145H61.5887C60.3501 53.7145 59.3455 52.7101 59.3427 51.4715ZM36.5962 42.2043V45.3636C36.5962 45.6633 36.4164 45.9344 36.1396 46.0543C35.8628 46.1742 35.5431 46.1171 35.3233 45.9116L29.3927 40.3349C29.3813 40.3235 29.3699 40.3149 29.3614 40.3007C29.076 39.9981 29.0902 39.5215 29.3927 39.2361L35.2834 33.6937C35.4946 33.4625 35.8256 33.3855 36.1167 33.4997C36.4078 33.611 36.5991 33.8935 36.5991 34.2046V37.3611H40.626C45.3208 37.3697 49.1224 41.1711 49.1312 45.8663V51.9995V51.9966C49.1283 53.3066 48.0695 54.3683 46.7595 54.3711H46.6625C45.3525 54.3683 44.2908 53.3066 44.2908 51.9966V45.8691C44.2794 43.8485 42.6469 42.216 40.6263 42.2046L36.5962 42.2043ZM87.4716 37.3611V34.2074C87.4716 33.8963 87.6628 33.6138 87.9539 33.5025C88.245 33.3883 88.5761 33.4654 88.7873 33.6965L94.6779 39.239C94.9804 39.5244 94.9947 40.001 94.7093 40.3035C94.6979 40.3149 94.6893 40.3263 94.6779 40.3377L88.7473 45.9116C88.5276 46.117 88.2079 46.1741 87.9311 46.0543C87.6542 45.9344 87.4744 45.6633 87.4744 45.3636V42.2042H83.4446C81.4268 42.2157 79.7915 43.8481 79.7801 45.8687V52.0019V51.9991C79.7801 53.3091 78.7184 54.3708 77.4084 54.3736H77.3114C76.0042 54.3708 74.9426 53.3091 74.9397 51.9991V45.8687C74.9511 41.1739 78.7527 37.3723 83.4449 37.3636L87.4716 37.3611ZM52.7956 61.3715L53.4263 61.0062L55.0503 60.0701L70.3422 68.9004L68.019 70.2389L52.7956 61.3715ZM68.4038 71.7602L68.3867 71.7716L62.205 75.3391V92.9996L77.494 84.1723L77.4911 66.5146L68.4038 71.7602ZM66.5117 71.1095L61.4458 74.032L46.1539 65.2046L51.2882 62.2393L66.5144 71.1098L66.5117 71.1095ZM56.554 59.1996L61.4486 56.377L69.4708 61.009L69.5136 61.0318L76.7428 65.2072L71.8482 68.0298L56.554 59.1996Z" fill="black"/>
</svg>
