<svg width="123" height="123" viewBox="0 0 123 123" fill="none" xmlns="http://www.w3.org/2000/svg">
<rect width="123" height="123" rx="61.5" fill="#F8C300"/>
<path d="M70.9791 51.0114L69.2404 56.9432H36.104L37.8427 51.0114H70.9791ZM55.4336 91L36.7177 68.0909L36.6154 63.7955H45.9222C48.3427 63.7955 50.4052 63.4545 52.1097 62.7727C53.8143 62.0739 55.1183 61.0341 56.0217 59.6534C56.9251 58.2557 57.3768 56.5 57.3768 54.3864C57.3768 51.267 56.4393 48.821 54.5643 47.0483C52.6893 45.2585 49.8086 44.3636 45.9222 44.3636H36.104L37.8427 38.6364H45.9222C50.0813 38.6364 53.4904 39.3267 56.1495 40.7074C58.8256 42.071 60.8029 43.946 62.0813 46.3324C63.3768 48.7017 64.0245 51.3864 64.0245 54.3864C64.0245 57.0966 63.4279 59.5937 62.2347 61.8778C61.0586 64.1449 59.1665 65.9687 56.5586 67.3494C53.9677 68.7301 50.5415 69.4205 46.2802 69.4205H46.1268L63.4109 90.5909V91H55.4336ZM70.9791 38.6364L69.2404 44.5682L43.1609 44.3636L44.8995 38.6364H70.9791Z" fill="black"/>
<path d="M66 72.8125L73 79.8125L80 72.8125" stroke="black" stroke-width="3.5"/>
<path d="M66 80.6875L73 87.6875L80 80.6875" stroke="black" stroke-width="3.5"/>
</svg>
