<svg width="509" height="512" viewBox="0 0 509 512" fill="none" xmlns="http://www.w3.org/2000/svg">
<path fill-rule="evenodd" clip-rule="evenodd" d="M230.132 31.136C230.132 10.576 242.284 0.024 254.348 0C266.412 0.024 278.564 10.576 278.564 31.136V42C286.916 47.264 293.412 55.2 296.86 64.6H419.124C425.508 64.6 431.028 68.52 433.38 74.072L433.412 74.144L501.252 269.208C501.62 270.256 501.612 271.312 501.004 272.24C500.396 273.176 499.436 273.688 498.324 273.688H471.676C470.38 273.688 469.14 273.008 468.748 271.776L419.26 118.984L370.252 271.768C369.852 273 368.612 273.688 367.316 273.688H340.684C339.572 273.688 338.612 273.176 338.004 272.248C337.396 271.32 337.396 270.272 337.748 269.216L395.812 95.568H296.86C293.412 104.976 286.916 112.912 278.564 118.176V439.048C278.564 445.04 280.164 450.184 283.548 455.12C302.428 482.664 332.524 476.96 367.484 482.04C391.468 485.52 390.404 512 371.484 512H254.596H254.348H254.1H137.212C118.292 512 117.228 485.52 141.212 482.04C176.172 476.96 206.268 482.664 225.148 455.12C228.532 450.184 230.132 445.04 230.132 439.048V118.176C221.78 112.912 215.284 104.976 211.836 95.568H112.884L171.116 269.216C171.476 270.264 171.468 271.312 170.86 272.248C170.252 273.176 169.3 273.688 168.188 273.688H141.572C140.268 273.688 139.036 273.008 138.636 271.768L89.4358 118.984L40.4359 271.768C40.0439 273 38.8039 273.688 37.4999 273.688H10.8679C9.76385 273.688 8.80385 273.176 8.19585 272.248C7.58785 271.32 7.57185 270.264 7.93185 269.216L75.2838 74.144L75.3158 74.072C77.6678 68.52 83.1878 64.6 89.5718 64.6H211.836C215.284 55.2 221.78 47.264 230.132 42V31.136ZM180.308 311.704C171.42 353.224 134.516 384.36 90.3478 384.36C46.1718 384.36 9.26785 353.224 0.379855 311.704C-0.660145 306.824 0.443855 302.184 3.58785 298.296C6.72385 294.416 11.0279 292.36 16.0279 292.36H164.66C169.66 292.36 173.964 294.416 177.108 298.296C180.244 302.184 181.356 306.824 180.308 311.704ZM508.308 311.704C499.428 353.224 462.524 384.36 418.348 384.36C374.18 384.36 337.276 353.224 328.388 311.704C327.34 306.824 328.452 302.184 331.596 298.296C334.732 294.416 339.036 292.36 344.036 292.36H492.668C497.668 292.36 501.964 294.416 505.108 298.296C508.252 302.184 509.356 306.824 508.308 311.704ZM254.348 62.184L254.1 62.176C244.212 62.176 236.196 70.2 236.196 80.088C236.196 89.976 244.212 98 254.1 98L254.348 97.992L254.596 98C264.484 98 272.5 89.976 272.5 80.088C272.5 70.2 264.484 62.176 254.596 62.176L254.348 62.184Z" fill="black"/>
</svg>
