<svg width="123" height="123" viewBox="0 0 123 123" fill="none" xmlns="http://www.w3.org/2000/svg">
<rect width="123" height="123" rx="61.5" fill="#F8C300"/>
<path fill-rule="evenodd" clip-rule="evenodd" d="M60.6838 87.5117C61.496 88.3992 62.6376 88.9072 63.8387 88.9166H70.575V75.9395H63.961C62.7284 75.9364 61.5462 76.4288 60.6775 77.2975C59.8057 78.1693 59.3165 79.3516 59.3165 80.5841V84.0244C59.3165 85.3197 59.8057 86.5646 60.6838 87.5117ZM69.352 97.7663L68.2889 91.1743H65.2751L66.9435 97.989L66.9654 98.0706V98.0674C67.1128 98.6821 67.7056 99.0804 68.3296 98.9863C68.6338 98.9424 68.9129 98.7856 69.1105 98.5504C69.2861 98.3277 69.3739 98.0517 69.352 97.7695L69.352 97.7663ZM52.5863 48.122H65.8613C64.4971 43.5151 62.2202 39.2314 59.1625 35.5271C56.2209 39.2873 53.9911 43.5555 52.5862 48.1188L52.5863 48.122ZM64.4121 72.2168C64.1989 72.7091 63.9731 73.1984 63.7348 73.6845C60.0122 73.8068 57.058 76.8582 57.058 80.5839V81.1797C55.2767 78.3855 53.8498 75.378 52.8181 72.2297L64.4121 72.2168ZM74.1217 72.2074L66.8553 72.2136C66.6578 72.706 66.4477 73.1921 66.225 73.6782H71.4215L74.1186 72.2043L74.1217 72.2074ZM52.1536 69.9808L65.3033 69.9682C67.1536 64.7467 67.7463 59.1644 67.0312 53.6698C66.887 52.5659 66.6925 51.4683 66.4479 50.3769L51.9623 50.38C50.3912 56.8278 50.4539 63.5645 52.1536 69.9808ZM95.7895 83.5568H95.7863C95.1623 83.5568 94.6574 83.0519 94.6574 82.4278C94.6574 81.8038 95.1623 81.2989 95.7863 81.2989H105.126C105.75 81.2989 106.255 81.8038 106.255 82.4278C106.255 83.0519 105.75 83.5568 105.126 83.5568H95.7895ZM94.1305 77.0808C93.6914 77.5229 92.9764 77.5229 92.5342 77.0808C92.0952 76.6417 92.0952 75.9267 92.5342 75.4845L99.1702 68.8485V68.8517C99.6123 68.4095 100.327 68.4126 100.766 68.8548C101.205 69.297 101.205 70.012 100.763 70.4511L94.1305 77.0808ZM92.5499 89.3835C92.1014 88.9507 92.0857 88.2388 92.5185 87.7903C92.9482 87.3419 93.6632 87.3293 94.1085 87.7589L100.744 94.1503C101.193 94.5799 101.209 95.2918 100.776 95.7403C100.346 96.1887 99.6311 96.2044 99.1827 95.7716L92.5467 89.3803L92.5499 89.3835ZM37.0537 72.2445C41.1086 79.7523 48.6852 84.7013 57.1872 85.3974L57.1622 85.2625H57.1653C54.1797 81.3455 51.9123 76.9363 50.4572 72.2324L37.0538 72.2481L37.0537 72.2445ZM35.9812 50.38C35.7679 50.8943 35.5672 51.4149 35.3853 51.9417V51.9386C33.6416 56.9877 33.5413 62.4574 35.0999 67.5658C35.3508 68.3906 35.6425 69.2029 35.9781 69.9963L49.8302 69.9837C48.2277 63.5548 48.1681 56.8373 49.6546 50.38L35.9812 50.38ZM56.7201 35.0257C53.8004 38.9709 51.6051 43.4057 50.2409 48.1216H37.0631C41.0491 40.7738 48.4067 35.8719 56.7201 35.0257ZM81.5422 48.1216H68.2015C66.8843 43.361 64.6514 38.905 61.6282 35C70.0331 35.7903 77.4971 40.7077 81.5394 48.1216H81.5422ZM83.4898 67.5559C82.8594 67.6061 82.2447 67.7848 81.6865 68.0796L78.2525 69.955L67.684 69.9675C69.4464 64.6299 69.9859 58.9662 69.2646 53.3929C69.136 52.3831 68.9635 51.3796 68.7534 50.3823H82.6272C84.9291 55.8265 85.2333 61.9102 83.4897 67.559L83.4898 67.5559ZM84.2393 69.817C85.4279 69.9989 86.306 71.0244 86.3028 72.2255V72.2976L86.1836 77.7356C86.1711 78.3565 86.6666 78.8678 87.2875 78.8803H87.3064V78.8866V78.8834C89.1943 78.8834 90.7247 80.4138 90.7247 82.3017C90.7247 84.1897 89.1943 85.7169 87.3064 85.7169C86.6854 85.7201 86.1837 86.2281 86.1837 86.8491C86.1837 86.8899 86.1837 86.9306 86.1899 86.9714L86.3091 92.378H86.306C86.3091 93.2342 85.8607 94.0276 85.1268 94.4667C84.7536 94.6768 84.3333 94.7834 83.9069 94.7803C83.4396 94.7834 82.9754 94.6737 82.5583 94.4573L72.8335 89.3675V75.4743L82.7374 70.0677C83.1043 69.8733 83.5151 69.7792 83.9291 69.7886C83.9855 69.7886 84.0389 69.7949 84.0953 69.798C84.1424 69.8074 84.1922 69.8139 84.2393 69.817Z" fill="black"/>
</svg>
