<svg width="123" height="123" viewBox="0 0 123 123" fill="none" xmlns="http://www.w3.org/2000/svg">
<rect width="123" height="123" rx="61.5" fill="#F8C300"/>
<path d="M77.4121 38H46.4727C44.4154 38 42.7422 39.6731 42.7422 41.7296L42.7687 86.4348C42.7687 87.307 43.3753 88.0642 44.2276 88.2522L69.9758 93.9559C70.5267 94.0781 71.1034 93.9431 71.5442 93.591C71.9838 93.2371 72.2402 92.7024 72.2402 92.1386V87.7886H77.4121C79.4694 87.7886 81.1426 86.1154 81.1426 84.059V41.7296C81.1426 39.6731 79.4694 38 77.4121 38ZM65.9759 64.9428L48.4289 60.5194C47.8927 60.3842 47.5171 59.9021 47.5171 59.3492V53.5449C47.5171 52.7588 48.2567 52.1825 49.019 52.3746L66.566 56.7979C67.1022 56.9331 67.4778 57.4154 67.4778 57.9682V63.7725C67.4777 64.5586 66.738 65.1349 65.9759 64.9428ZM72.2401 84.0531V47.4187C72.2401 46.5338 71.6179 45.7711 70.7513 45.594L51.8853 41.7355L77.4057 41.7296L77.4077 84.0517L72.2401 84.0531ZM77.4121 84.0517H77.4141Z" fill="black"/>
</svg>
