<svg width="123" height="123" viewBox="0 0 123 123" fill="none" xmlns="http://www.w3.org/2000/svg">
<rect width="123" height="123" rx="61.5" fill="#F8C300"/>
<g clip-path="url(#clip0_550_1089)">
<path d="M83.5597 90.3125H40.4297V94.7925H83.5597V90.3125Z" fill="black"/>
<path d="M94 51.8288C94 57.7588 90.02 63.0088 84.32 64.5988C83.87 64.7288 83.56 65.1287 83.56 65.5987V88.2388H40.43V65.6088C40.43 65.1388 40.12 64.7388 39.67 64.6088C33.98 63.0088 30 57.7488 30 51.8288C30 44.5188 35.96 38.5688 43.27 38.5688C45.8 38.5688 48.27 39.2788 50.4 40.6388C50.85 40.9188 51.44 40.8188 51.77 40.3988C54.31 37.0988 58.15 35.2188 62.3 35.2188C66.33 35.2188 70.1 37.0287 72.64 40.1687C72.96 40.5687 73.52 40.6687 73.97 40.4087C76 39.2087 78.33 38.5787 80.71 38.5787C88.04 38.5687 94 44.5188 94 51.8288Z" fill="black"/>
<path d="M25.0781 56C25.6157 56 95.6031 80.7467 95.6031 80.7467" stroke="black" stroke-width="3"/>
<path d="M24 58L94.5249 82.7467" stroke="#F8C300" stroke-width="2"/>
</g>
<defs>
<clipPath id="clip0_550_1089">
<rect width="75" height="60" fill="white" transform="translate(19 35)"/>
</clipPath>
</defs>
</svg>
