<svg width="123" height="123" viewBox="0 0 123 123" fill="none" xmlns="http://www.w3.org/2000/svg">
<rect width="123" height="123" rx="61.5" fill="#F8C300"/>
<path d="M38.9551 53.2711C42.9731 53.2711 46.3087 50.0109 46.3087 45.9168C46.3087 41.8985 43.0489 38.5625 38.9551 38.5625C34.9372 38.5625 31.6016 41.8226 31.6016 45.9168C31.6016 50.0109 34.9372 53.2711 38.9551 53.2711Z" fill="black"/>
<path d="M48.1365 57.0535C47.0752 56.1437 45.8622 55.3097 44.4976 54.7789L44.2702 54.7031L44.0428 54.8548C40.8588 56.6744 36.9924 56.6744 33.8842 54.8548L33.6568 54.7031L33.4294 54.7789C28.9566 56.5227 26 60.7685 26 65.6208V67.4404C26 68.2744 26.6823 68.9568 27.5162 68.9568H42.1475C42.6024 64.2561 44.7251 60.0103 48.1365 57.0535Z" fill="black"/>
<path d="M84.6036 53.2711C88.6215 53.2711 91.9571 50.0109 91.9571 45.9168C91.9571 41.8985 88.6973 38.5625 84.6036 38.5625C80.5856 38.5625 77.25 41.8226 77.25 45.9168C77.25 50.0109 80.5856 53.2711 84.6036 53.2711Z" fill="black"/>
<path d="M90.1368 54.7789L89.9094 54.7031L89.682 54.8548C86.4979 56.6744 82.6316 56.6744 79.5234 54.8548L79.296 54.7031L79.0686 54.7789C77.704 55.3097 76.491 56.0678 75.4297 57.0535C78.8411 60.0862 80.9638 64.2561 81.3429 68.9568H95.9742C96.8081 68.9568 97.4904 68.2744 97.4904 67.4404V65.6208C97.5662 60.7685 94.6096 56.5227 90.1368 54.7789Z" fill="black"/>
<path d="M61.7809 35.5938C56.55 35.5938 52.3047 39.8395 52.3047 45.0709C52.3047 50.3023 56.55 54.5481 61.7809 54.5481C67.0118 54.5481 71.2572 50.3023 71.2572 45.0709C71.2572 39.8395 67.0118 35.5938 61.7809 35.5938Z" fill="black"/>
<path d="M68.9059 56.4508L68.6027 56.375L68.2994 56.5266C64.2057 58.877 59.2022 58.877 55.1843 56.5266L54.9569 56.375L54.6536 56.5266C48.8163 58.7253 45.1016 64.1842 45.1016 70.4012V72.6757C45.1016 73.7372 46.0113 74.647 47.0726 74.647H56.0182L57.9135 70.0221C58.5957 68.43 60.0361 67.4443 61.7798 67.4443C63.4476 67.4443 64.9638 68.43 65.6461 70.0221L67.5413 74.647H76.4869C77.5482 74.647 78.458 73.7372 78.458 72.6757V70.4012C78.458 64.1842 74.7433 58.7253 68.9059 56.4508Z" fill="black"/>
<path d="M74.0668 79.2657L66.0309 78.5834L62.9227 71.1533C62.5436 70.1677 61.1032 70.1677 60.6484 71.1533L57.5402 78.5834L49.5043 79.2657C48.443 79.3416 47.9881 80.7063 48.822 81.3886L54.9626 86.62L53.0674 94.505C52.84 95.5665 53.9771 96.4005 54.8868 95.7939L61.7855 91.624L68.6842 95.7939C69.594 96.3246 70.7311 95.4907 70.5037 94.505L68.6084 86.6958L74.749 81.4644C75.583 80.7063 75.1281 79.3416 74.0668 79.2657Z" fill="black"/>
</svg>
