<svg width="123" height="123" viewBox="0 0 123 123" fill="none" xmlns="http://www.w3.org/2000/svg">
<rect width="123" height="123" rx="61.5" fill="#F8C300"/>
<path d="M55.1283 68.7351C55.1283 69.3521 54.8832 69.9439 54.4469 70.3802C54.0106 70.8165 53.4188 71.0616 52.8018 71.0616H26.3265C25.7095 71.0616 25.1177 70.8165 24.6814 70.3802C24.2451 69.9439 24 69.3521 24 68.7351C24 68.1181 24.2451 67.5263 24.6814 67.09C25.1177 66.6537 25.7095 66.4086 26.3265 66.4086H52.8018C53.4188 66.4086 54.0106 66.6537 54.4469 67.09C54.8832 67.5263 55.1283 68.1181 55.1283 68.7351ZM52.8018 75.7146H33.3059C32.6889 75.7146 32.0971 75.9597 31.6608 76.396C31.2246 76.8323 30.9794 77.424 30.9794 78.041C30.9794 78.6581 31.2246 79.2498 31.6608 79.6861C32.0971 80.1224 32.6889 80.3675 33.3059 80.3675H52.7553C53.3723 80.3675 53.9641 80.1224 54.4004 79.6861C54.8367 79.2498 55.0818 78.6581 55.0818 78.041C55.0818 77.424 54.8367 76.8323 54.4004 76.396C53.9641 75.9597 53.3723 75.7146 52.7553 75.7146H52.8018ZM52.8018 85.0205H40.2854C39.6683 85.0205 39.0766 85.2656 38.6403 85.7019C38.204 86.1382 37.9589 86.7299 37.9589 87.347C37.9589 87.964 38.204 88.5557 38.6403 88.992C39.0766 89.4283 39.6683 89.6734 40.2854 89.6734H52.7553C53.3723 89.6734 53.9641 89.4283 54.4004 88.992C54.8367 88.5557 55.0818 87.964 55.0818 87.347C55.0818 86.7299 54.8367 86.1382 54.4004 85.7019C53.9641 85.2656 53.3723 85.0205 52.7553 85.0205H52.8018ZM89.0949 66.4086C89.0949 73.1959 86.3987 79.7051 81.5994 84.5044C76.8001 89.3037 70.2909 91.9999 63.5036 91.9999C61.778 92.0043 60.056 91.8407 58.3621 91.5114C59.3434 90.2179 59.8431 88.6229 59.7751 87.0008C59.7072 85.3787 59.0759 83.831 57.9899 82.6242C59.148 81.3501 59.7943 79.693 59.8045 77.9712C59.8077 76.247 59.1596 74.5851 57.9899 73.3183C58.886 72.3164 59.4738 71.0771 59.6825 69.7492C59.8913 68.4214 59.7122 67.0615 59.1667 65.833C58.6213 64.6045 57.7327 63.5596 56.6077 62.8239C55.4827 62.0882 54.1692 61.6931 52.8251 61.6859H38.3311C39.0995 57.61 40.8392 53.7794 43.4028 50.5188L40.2854 47.4013C39.852 46.9654 39.6088 46.3758 39.6088 45.7611C39.6088 45.1465 39.852 44.5569 40.2854 44.121C40.5016 43.9029 40.7589 43.7298 41.0424 43.6117C41.326 43.4936 41.63 43.4328 41.9372 43.4328C42.2443 43.4328 42.5484 43.4936 42.8319 43.6117C43.1154 43.7298 43.3727 43.9029 43.589 44.121L46.6599 47.1919C50.7375 43.6293 55.8327 41.4398 61.2237 40.9337V36.653H58.8972C58.2802 36.653 57.6884 36.4078 57.2521 35.9715C56.8158 35.5353 56.5707 34.9435 56.5707 34.3265C56.5707 33.7095 56.8158 33.1177 57.2521 32.6814C57.6884 32.2451 58.2802 32 58.8972 32H67.9472C68.5642 32 69.156 32.2451 69.5923 32.6814C70.0286 33.1177 70.2737 33.7095 70.2737 34.3265C70.2737 34.9435 70.0286 35.5353 69.5923 35.9715C69.156 36.4078 68.5642 36.653 67.9472 36.653H65.8766V41.0965C72.213 41.6749 78.1066 44.5929 82.408 49.2814C86.7094 53.9699 89.1099 60.0926 89.1414 66.4552L89.0949 66.4086ZM74.4846 55.4742C74.2683 55.2561 74.011 55.083 73.7275 54.9649C73.444 54.8468 73.1399 54.786 72.8328 54.786C72.5257 54.786 72.2216 54.8468 71.9381 54.9649C71.6546 55.083 71.3973 55.2561 71.181 55.4742L61.8751 64.7801C61.5563 65.1053 61.3399 65.5169 61.2528 65.9639C61.1657 66.4109 61.2117 66.8736 61.3851 67.2947C61.5585 67.7158 61.8516 68.0767 62.2282 68.3328C62.6048 68.5888 63.0483 68.7287 63.5036 68.7351C63.8098 68.7369 64.1133 68.6782 64.3968 68.5624C64.6802 68.4466 64.938 68.2761 65.1554 68.0604L74.4613 58.7545C74.8978 58.3217 75.1452 57.7338 75.1495 57.1191C75.1539 56.5045 74.9148 55.9131 74.4846 55.4742Z" fill="black"/>
</svg>
