<svg width="123" height="123" viewBox="0 0 123 123" fill="none" xmlns="http://www.w3.org/2000/svg">
<rect width="123" height="123" rx="61.5" fill="#F8C300"/>
<path fill-rule="evenodd" clip-rule="evenodd" d="M47.2915 33H76.1102C76.6271 33 77.1228 33.2053 77.4883 33.5708C77.8538 33.9363 78.0591 34.4321 78.0591 34.9489V62.2987C77.4305 62.6895 76.9118 63.2341 76.552 63.8809C76.1922 64.5278 76.0031 65.2557 76.0027 65.996V66.6337C75.6874 66.7555 75.3793 66.8845 75.0784 67.0278L74.6126 66.5692C73.7959 65.754 72.6891 65.2962 71.5352 65.2962C70.3812 65.2962 69.2744 65.754 68.4577 66.5692L67.4116 67.6081C66.596 68.4261 66.138 69.5341 66.138 70.6892C66.138 71.8443 66.596 72.9523 67.4116 73.7703L67.9561 74.3148C67.8343 74.5943 67.7197 74.8737 67.6122 75.1603H66.8383C65.6835 75.1622 64.5765 75.6218 63.7599 76.4384C62.9433 77.255 62.4838 78.362 62.4819 79.5168V80.9498C62.4819 82.1053 62.9408 83.2133 63.7578 84.0303C64.5748 84.8473 65.6829 85.3063 66.8383 85.3063H67.6122C67.7197 85.5929 67.8343 85.8724 67.9561 86.1518L67.4116 86.6964C66.6051 87.503 66.1472 88.5938 66.1361 89.7344H35.9418C35.4274 89.7325 34.9346 89.5274 34.5708 89.1636C34.2071 88.7999 34.0019 88.3071 34 87.7927V45.9978H43.4653C43.9671 45.9996 44.4643 45.9024 44.9285 45.7117C45.3926 45.521 45.8145 45.2405 46.17 44.8864C46.5255 44.5322 46.8075 44.1113 47 43.6479C47.1925 43.1845 47.2915 42.6876 47.2915 42.1858V33ZM84.3359 67.9879V65.996C84.334 65.3352 84.0707 64.7021 83.6035 64.2349C83.1362 63.7677 82.5031 63.5044 81.8424 63.5025H80.4093C79.7486 63.5044 79.1154 63.7677 78.6482 64.2349C78.181 64.7021 77.9177 65.3352 77.9158 65.996V67.9879C76.7977 68.2761 75.7247 68.7173 74.7273 69.2991L73.2942 67.8661C72.8269 67.401 72.1945 67.1399 71.5352 67.1399C70.8758 67.1399 70.2434 67.401 69.7761 67.8661L68.73 68.9122C68.2648 69.3795 68.0037 70.012 68.0037 70.6713C68.0037 71.3306 68.2648 71.9631 68.73 72.4304L70.2203 73.9494C69.675 74.9165 69.256 75.9496 68.9736 77.0233H66.824C66.1639 77.0252 65.5315 77.2887 65.0655 77.7561C64.5994 78.2236 64.3377 78.8567 64.3377 79.5168V80.9498C64.3377 81.6099 64.5994 82.2431 65.0655 82.7105C65.5315 83.1779 66.1639 83.4414 66.824 83.4433H68.9736C69.2531 84.5294 69.6722 85.5747 70.2203 86.5531L68.7228 88.0506C68.2572 88.5191 67.9959 89.1528 67.9959 89.8133C67.9959 90.4737 68.2572 91.1074 68.7228 91.5759L69.7689 92.6149C70.2362 93.08 70.8687 93.3411 71.528 93.3411C72.1873 93.3411 72.8198 93.08 73.2871 92.6149L74.7201 91.1818C75.7007 91.7669 76.7566 92.2153 77.8585 92.5146V94.5065C77.8585 95.1678 78.1212 95.802 78.5888 96.2697C79.0564 96.7373 79.6907 97 80.352 97H81.785C82.4464 97 83.0806 96.7373 83.5482 96.2697C84.0158 95.802 84.2786 95.1678 84.2786 94.5065V92.5146C85.3814 92.2179 86.4376 91.7693 87.4169 91.1818L88.85 92.6149C89.3185 93.0804 89.9521 93.3417 90.6126 93.3417C91.2731 93.3417 91.9068 93.0804 92.3753 92.6149L93.4142 91.5759C93.8798 91.1074 94.1411 90.4737 94.1411 89.8133C94.1411 89.1528 93.8798 88.5191 93.4142 88.0506L91.9167 86.5531C92.468 85.5888 92.8873 84.555 93.1635 83.4792H95.313C95.6405 83.4792 95.9647 83.4147 96.2673 83.2894C96.5698 83.1641 96.8447 82.9804 97.0762 82.7488C97.3077 82.5173 97.4914 82.2424 97.6167 81.9399C97.742 81.6374 97.8065 81.3131 97.8065 80.9857V79.5526C97.8065 79.2252 97.742 78.9009 97.6167 78.5984C97.4914 78.2959 97.3077 78.021 97.0762 77.7894C96.8447 77.5579 96.5698 77.3742 96.2673 77.2489C95.9647 77.1236 95.6405 77.0591 95.313 77.0591H93.1635C92.8873 75.9833 92.468 74.9494 91.9167 73.9852L93.4142 72.4877C93.8794 72.0204 94.1405 71.3879 94.1405 70.7286C94.1405 70.0693 93.8794 69.4368 93.4142 68.9695L92.4326 67.8661C91.9641 67.4005 91.3304 67.1392 90.67 67.1392C90.0095 67.1392 89.3758 67.4005 88.9073 67.8661L87.4743 69.2991C86.4949 68.7116 85.4387 68.2631 84.3359 67.9664V67.9879ZM81.1115 71.9288C79.4642 71.926 77.853 72.4119 76.4819 73.325C75.1108 74.2382 74.0414 75.5375 73.4091 77.0586C72.7767 78.5798 72.6098 80.2543 72.9294 81.8703C73.249 83.4864 74.0409 84.9713 75.2047 86.1371C76.3686 87.303 77.8521 88.0974 79.4676 88.4198C81.0831 88.7422 82.7579 88.5782 84.2801 87.9484C85.8023 87.3187 87.1035 86.2515 88.019 84.882C88.9345 83.5125 89.4232 81.9022 89.4232 80.2548C89.4232 78.0466 88.546 75.9289 86.9846 74.3674C85.4231 72.806 83.3054 71.9288 81.0972 71.9288H81.1115ZM45.4071 33L34 44.1348H43.4653C43.9809 44.1329 44.4748 43.9267 44.8388 43.5614C45.2027 43.1961 45.4071 42.7015 45.4071 42.1858V33ZM82.8455 37.6646H79.9221V61.661C80.0677 61.6537 80.2136 61.6537 80.3592 61.661H81.7922C82.3703 61.6604 82.9427 61.7749 83.476 61.9978V38.3524C83.476 38.1757 83.4058 38.0062 83.2809 37.8812C83.1559 37.7563 82.9864 37.6861 82.8097 37.6861L82.8455 37.6646ZM66.5374 91.6404C66.7526 92.1066 67.0485 92.5311 67.4116 92.8943L68.4577 93.9333C68.7214 94.2126 69.0229 94.4538 69.3533 94.6498H39.768C39.5913 94.6498 39.4218 94.5796 39.2968 94.4546C39.1719 94.3297 39.1017 94.1602 39.1017 93.9834V91.6404H66.5374ZM41.4948 81.4801L42.7273 82.7053C42.8138 82.792 42.9165 82.8607 43.0297 82.9076C43.1428 82.9546 43.264 82.9787 43.3865 82.9787C43.5089 82.9787 43.6302 82.9546 43.7433 82.9076C43.8564 82.8607 43.9592 82.792 44.0457 82.7053L46.704 80.047C46.8788 79.8722 46.977 79.6351 46.977 79.3878C46.977 79.1406 46.8788 78.9034 46.704 78.7286C46.5292 78.5538 46.292 78.4556 46.0448 78.4556C45.7975 78.4556 45.5604 78.5538 45.3856 78.7286L43.3865 80.7635L42.8133 80.1903C42.6354 80.0537 42.4142 79.9859 42.1903 79.9993C41.9664 80.0127 41.7548 80.1064 41.5945 80.2632C41.4342 80.4201 41.3358 80.6295 41.3175 80.853C41.2992 81.0766 41.3622 81.2992 41.4948 81.4801ZM41.4948 67.5078L42.7273 68.7403C42.9038 68.9118 43.1403 69.0078 43.3865 69.0078C43.6327 69.0078 43.8691 68.9118 44.0457 68.7403L46.704 66.0819C46.8788 65.9071 46.977 65.67 46.977 65.4227C46.977 65.1755 46.8788 64.9384 46.704 64.7635C46.5292 64.5887 46.292 64.4905 46.0448 64.4905C45.7975 64.4905 45.5604 64.5887 45.3856 64.7635L43.3865 66.7555L42.8133 66.1894C42.6384 66.0146 42.4013 65.9164 42.1541 65.9164C41.9068 65.9164 41.6697 66.0146 41.4948 66.1894C41.32 66.3643 41.2218 66.6014 41.2218 66.8486C41.2218 67.0959 41.32 67.333 41.4948 67.5078ZM41.4948 53.5428L42.7273 54.768C42.8138 54.8547 42.9165 54.9234 43.0297 54.9703C43.1428 55.0172 43.264 55.0414 43.3865 55.0414C43.5089 55.0414 43.6302 55.0172 43.7433 54.9703C43.8564 54.9234 43.9592 54.8547 44.0457 54.768L46.704 52.1026C46.8788 51.9277 46.977 51.6906 46.977 51.4433C46.977 51.1961 46.8788 50.959 46.704 50.7841C46.5292 50.6093 46.292 50.5111 46.0448 50.5111C45.7975 50.5111 45.5604 50.6093 45.3856 50.7841L43.3865 52.8191L42.8133 52.253C42.6356 52.1208 42.4167 52.0562 42.1958 52.0708C41.9748 52.0854 41.7663 52.1782 41.6076 52.3326C41.4489 52.487 41.3504 52.6929 41.3297 52.9133C41.3091 53.1338 41.3676 53.3544 41.4948 53.5356V53.5428ZM53.991 79.3305H58.8276C59.0746 79.3305 59.3116 79.2324 59.4862 79.0577C59.6609 78.883 59.7591 78.6461 59.7591 78.399C59.7591 78.152 59.6609 77.915 59.4862 77.7404C59.3116 77.5657 59.0746 77.4675 58.8276 77.4675H53.991C53.744 77.4675 53.5071 77.5657 53.3324 77.7404C53.1577 77.915 53.0596 78.152 53.0596 78.399C53.0596 78.6461 53.1577 78.883 53.3324 79.0577C53.5071 79.2324 53.744 79.3305 53.991 79.3305ZM53.991 83.9091H61.0846C61.3185 83.8886 61.5362 83.7812 61.6948 83.6081C61.8534 83.435 61.9414 83.2088 61.9414 82.974C61.9414 82.7393 61.8534 82.513 61.6948 82.3399C61.5362 82.1668 61.3185 82.0594 61.0846 82.039H53.991C53.8614 82.0276 53.7307 82.0433 53.6075 82.0852C53.4842 82.127 53.371 82.194 53.275 82.2819C53.179 82.3699 53.1024 82.4768 53.05 82.596C52.9975 82.7151 52.9705 82.8439 52.9705 82.974C52.9705 83.1042 52.9975 83.2329 53.05 83.3521C53.1024 83.4712 53.179 83.5782 53.275 83.6661C53.371 83.754 53.4842 83.8211 53.6075 83.8629C53.7307 83.9047 53.8614 83.9205 53.991 83.9091ZM53.991 65.3654H58.8276C59.0746 65.3654 59.3116 65.2673 59.4862 65.0926C59.6609 64.9179 59.7591 64.681 59.7591 64.4339C59.7591 64.1869 59.6609 63.95 59.4862 63.7753C59.3116 63.6006 59.0746 63.5025 58.8276 63.5025H53.991C53.744 63.5025 53.5071 63.6006 53.3324 63.7753C53.1577 63.95 53.0596 64.1869 53.0596 64.4339C53.0596 64.681 53.1577 64.9179 53.3324 65.0926C53.5071 65.2673 53.744 65.3654 53.991 65.3654ZM53.991 69.944H63.9794C64.1091 69.9554 64.2397 69.9396 64.363 69.8978C64.4862 69.856 64.5994 69.789 64.6954 69.701C64.7914 69.6131 64.868 69.5062 64.9205 69.387C64.9729 69.2679 65 69.1391 65 69.009C65 68.8788 64.9729 68.75 64.9205 68.6309C64.868 68.5117 64.7914 68.4048 64.6954 68.3169C64.5994 68.2289 64.4862 68.1619 64.363 68.1201C64.2397 68.0783 64.1091 68.0625 63.9794 68.0739H53.991C53.8614 68.0625 53.7307 68.0783 53.6075 68.1201C53.4842 68.1619 53.371 68.2289 53.275 68.3169C53.179 68.4048 53.1024 68.5117 53.05 68.6309C52.9975 68.75 52.9705 68.8788 52.9705 69.009C52.9705 69.1391 52.9975 69.2679 53.05 69.387C53.1024 69.5062 53.179 69.6131 53.275 69.701C53.371 69.789 53.4842 69.856 53.6075 69.8978C53.7307 69.9396 53.8614 69.9554 53.991 69.944ZM53.991 51.4004H63.6713C63.9052 51.3799 64.1229 51.2725 64.2814 51.0994C64.44 50.9263 64.528 50.7001 64.528 50.4653C64.528 50.2305 64.44 50.0043 64.2814 49.8312C64.1229 49.6581 63.9052 49.5507 63.6713 49.5302H53.991C53.8614 49.5189 53.7307 49.5346 53.6075 49.5764C53.4842 49.6183 53.371 49.6853 53.275 49.7732C53.179 49.8611 53.1024 49.9681 53.05 50.0872C52.9975 50.2064 52.9705 50.3351 52.9705 50.4653C52.9705 50.5955 52.9975 50.7242 53.05 50.8434C53.1024 50.9625 53.179 51.0694 53.275 51.1574C53.371 51.2453 53.4842 51.3123 53.6075 51.3542C53.7307 51.396 53.8614 51.4117 53.991 51.4004ZM53.991 55.9718H70.2203C70.4674 55.9718 70.7043 55.8736 70.879 55.699C71.0537 55.5243 71.1518 55.2873 71.1518 55.0403C71.1518 54.7933 71.0537 54.5563 70.879 54.3816C70.7043 54.207 70.4674 54.1088 70.2203 54.1088H53.991C53.744 54.1088 53.5071 54.207 53.3324 54.3816C53.1577 54.5563 53.0596 54.7933 53.0596 55.0403C53.0596 55.2873 53.1577 55.5243 53.3324 55.699C53.5071 55.8736 53.744 55.9718 53.991 55.9718ZM40.8428 76.4214C40.5659 76.4233 40.3009 76.5341 40.1052 76.7299C39.9094 76.9257 39.7986 77.1907 39.7967 77.4675V83.9664C39.7986 84.2433 39.9094 84.5083 40.1052 84.7041C40.3009 84.8998 40.5659 85.0107 40.8428 85.0125H47.3417C47.6186 85.0107 47.8836 84.8998 48.0793 84.7041C48.2751 84.5083 48.3859 84.2433 48.3878 83.9664V77.4675C48.3859 77.1907 48.2751 76.9257 48.0793 76.7299C47.8836 76.5341 47.6186 76.4233 47.3417 76.4214H40.8428ZM40.8428 62.4563C40.5654 62.4563 40.2993 62.5666 40.1031 62.7627C39.9069 62.9589 39.7967 63.225 39.7967 63.5025V70.0157C39.8023 70.2894 39.915 70.55 40.1106 70.7415C40.3062 70.9331 40.569 71.0404 40.8428 71.0403H47.3417C47.6167 71.0422 47.8814 70.9358 48.0785 70.7441C48.2757 70.5523 48.3893 70.2906 48.395 70.0157V63.5025C48.395 63.3651 48.3679 63.229 48.3154 63.1021C48.2628 62.9752 48.1857 62.8599 48.0886 62.7627C47.9914 62.6656 47.8761 62.5885 47.7492 62.536C47.6223 62.4834 47.4862 62.4563 47.3489 62.4563H40.8428ZM40.8428 48.5199C40.5666 48.5199 40.3016 48.6292 40.1056 48.8238C39.9096 49.0184 39.7986 49.2827 39.7967 49.5589V56.0578C39.8059 56.3296 39.92 56.5874 40.115 56.777C40.31 56.9667 40.5708 57.0735 40.8428 57.0752H47.3417C47.6186 57.0734 47.8836 56.9625 48.0793 56.7668C48.2751 56.571 48.3859 56.306 48.3878 56.0291V49.5302C48.3786 49.2603 48.2653 49.0043 48.0716 48.816C47.878 48.6277 47.619 48.5216 47.3489 48.5199H40.8428Z" fill="black"/>
</svg>
