<svg width="511" height="512" viewBox="0 0 511 512" fill="none" xmlns="http://www.w3.org/2000/svg">
<path fill-rule="evenodd" clip-rule="evenodd" d="M106.332 0H336.881C341.016 0 344.982 1.64268 347.906 4.56667C350.83 7.49066 352.473 11.4564 352.473 15.5916V234.39C347.444 237.516 343.294 241.872 340.416 247.048C337.537 252.223 336.025 258.046 336.021 263.968V269.069C333.499 270.044 331.034 271.076 328.627 272.222L324.901 268.553C318.367 262.032 309.513 258.37 300.281 258.37C291.05 258.37 282.195 262.032 275.661 268.553L267.292 276.865C260.768 283.409 257.104 292.273 257.104 301.514C257.104 310.754 260.768 319.618 267.292 326.162L271.649 330.519C270.674 332.754 269.757 334.99 268.897 337.283H262.707C253.468 337.298 244.612 340.974 238.079 347.507C231.547 354.04 227.87 362.896 227.855 372.134V383.599C227.855 392.842 231.527 401.707 238.063 408.243C244.599 414.779 253.463 418.45 262.707 418.45H268.897C269.757 420.743 270.674 422.979 271.649 425.214L267.292 429.571C260.841 436.024 257.177 444.751 257.089 453.875H15.5343C11.419 453.86 7.47653 452.219 4.56656 449.309C1.65659 446.399 0.0151021 442.456 0 438.341V103.982H75.7223C79.7367 103.997 83.7145 103.22 87.4276 101.694C91.1407 100.168 94.516 97.9241 97.3599 95.0908C100.204 92.2576 102.46 88.8907 104 85.1834C105.54 81.476 106.332 77.5011 106.332 73.4868V0ZM402.687 279.903V263.968C402.672 258.682 400.565 253.617 396.828 249.879C393.09 246.141 388.025 244.035 382.739 244.02H371.275C365.989 244.035 360.924 246.141 357.186 249.879C353.448 253.617 351.342 258.682 351.326 263.968V279.903C342.381 282.209 333.797 285.739 325.818 290.393L314.354 278.929C310.615 275.208 305.556 273.119 300.281 273.119C295.007 273.119 289.947 275.208 286.209 278.929L277.84 287.298C274.119 291.036 272.03 296.096 272.03 301.37C272.03 306.645 274.119 311.705 277.84 315.443L289.763 327.595C285.4 335.332 282.048 343.596 279.789 352.186H262.592C257.311 352.201 252.252 354.31 248.524 358.049C244.795 361.788 242.701 366.854 242.701 372.134V383.599C242.701 388.879 244.795 393.945 248.524 397.684C252.252 401.423 257.311 403.532 262.592 403.547H279.789C282.025 412.235 285.377 420.598 289.763 428.425L277.782 440.405C274.058 444.153 271.967 449.222 271.967 454.506C271.967 459.79 274.058 464.859 277.782 468.607L286.151 476.919C289.89 480.64 294.949 482.729 300.224 482.729C305.498 482.729 310.558 480.64 314.296 476.919L325.761 465.455C333.605 470.135 342.052 473.722 350.868 476.116V492.052C350.868 497.342 352.97 502.416 356.711 506.157C360.452 509.898 365.525 512 370.816 512H382.28C387.571 512 392.645 509.898 396.386 506.157C400.127 502.416 402.228 497.342 402.228 492.052V476.116C411.051 473.743 419.501 470.155 427.335 465.455L438.8 476.919C442.548 480.643 447.617 482.734 452.901 482.734C458.185 482.734 463.254 480.643 467.002 476.919L475.314 468.607C479.038 464.859 481.129 459.79 481.129 454.506C481.129 449.222 479.038 444.153 475.314 440.405L463.334 428.425C467.744 420.711 471.098 412.44 473.308 403.833H490.504C493.124 403.833 495.718 403.317 498.138 402.315C500.558 401.312 502.757 399.843 504.61 397.991C506.462 396.138 507.931 393.939 508.934 391.519C509.936 389.099 510.452 386.505 510.452 383.885V372.421C510.452 369.801 509.936 367.207 508.934 364.787C507.931 362.367 506.462 360.168 504.61 358.316C502.757 356.463 500.558 354.994 498.138 353.991C495.718 352.989 493.124 352.473 490.504 352.473H473.308C471.098 343.866 467.744 335.596 463.334 327.882L475.314 315.901C479.035 312.163 481.124 307.103 481.124 301.829C481.124 296.554 479.035 291.495 475.314 287.756L467.461 278.929C463.713 275.204 458.643 273.114 453.36 273.114C448.076 273.114 443.006 275.204 439.258 278.929L427.794 290.393C419.959 285.693 411.51 282.105 402.687 279.731V279.903ZM376.892 311.43C363.713 311.408 350.824 315.295 339.855 322.6C328.887 329.905 320.331 340.3 315.272 352.469C310.213 364.638 308.878 378.034 311.435 390.963C313.992 403.891 320.327 415.77 329.638 425.097C338.949 434.424 350.817 440.779 363.741 443.358C376.664 445.938 390.063 444.625 402.241 439.587C414.418 434.549 424.828 426.012 432.152 415.056C439.476 404.1 443.386 391.217 443.386 378.039C443.386 360.373 436.368 343.431 423.877 330.939C411.385 318.448 394.443 311.43 376.777 311.43H376.892ZM91.2566 0L0 89.0784H75.7223C79.8475 89.0632 83.7986 87.4138 86.7102 84.4915C89.6218 81.5691 91.2566 77.612 91.2566 73.4868V0ZM390.764 37.3166H367.377V229.288C368.541 229.229 369.708 229.229 370.873 229.288H382.338C386.962 229.283 391.541 230.199 395.808 231.982V42.8195C395.808 41.4057 395.247 40.0497 394.247 39.05C393.247 38.0502 391.891 37.4886 390.477 37.4886L390.764 37.3166ZM260.299 469.123C262.021 472.853 264.388 476.249 267.292 479.154L275.661 487.466C277.771 489.701 280.183 491.63 282.827 493.198H46.1442C44.7303 493.198 43.3744 492.637 42.3747 491.637C41.3749 490.637 40.8133 489.281 40.8133 487.867V469.123H260.299ZM59.9588 387.841L69.8182 397.643C70.5103 398.336 71.3323 398.886 72.2372 399.261C73.1422 399.636 74.1122 399.83 75.0918 399.83C76.0714 399.83 77.0414 399.636 77.9464 399.261C78.8513 398.886 79.6733 398.336 80.3654 397.643L101.632 376.376C103.031 374.978 103.816 373.081 103.816 371.103C103.816 369.125 103.031 367.228 101.632 365.829C100.233 364.43 98.3362 363.644 96.3583 363.644C94.3803 363.644 92.4833 364.43 91.0846 365.829L75.0918 382.108L70.506 377.523C69.083 376.43 67.3133 375.887 65.5222 375.994C63.7311 376.101 62.0388 376.851 60.7561 378.106C59.4735 379.361 58.6867 381.036 58.5402 382.824C58.3937 384.613 58.8974 386.394 59.9588 387.841ZM59.9588 276.063L69.8182 285.922C71.2305 287.295 73.1223 288.063 75.0918 288.063C77.0613 288.063 78.9531 287.295 80.3654 285.922L101.632 264.656C103.031 263.257 103.816 261.36 103.816 259.382C103.816 257.404 103.031 255.507 101.632 254.108C100.233 252.71 98.3362 251.924 96.3583 251.924C94.3803 251.924 92.4833 252.71 91.0846 254.108L75.0918 270.044L70.506 265.515C69.1074 264.117 67.2104 263.331 65.2324 263.331C63.2544 263.331 61.3575 264.117 59.9588 265.515C58.5601 266.914 57.7744 268.811 57.7744 270.789C57.7744 272.767 58.5601 274.664 59.9588 276.063ZM59.9588 164.342L69.8182 174.144C70.5103 174.837 71.3323 175.387 72.2372 175.763C73.1422 176.138 74.1122 176.331 75.0918 176.331C76.0714 176.331 77.0414 176.138 77.9464 175.763C78.8513 175.387 79.6733 174.837 80.3654 174.144L101.632 152.82C103.031 151.422 103.816 149.525 103.816 147.547C103.816 145.569 103.031 143.672 101.632 142.273C100.233 140.875 98.3362 140.089 96.3583 140.089C94.3803 140.089 92.4833 140.875 91.0846 142.273L75.0918 158.553L70.506 154.024C69.085 152.967 67.3338 152.45 65.5663 152.567C63.7988 152.683 62.1306 153.426 60.861 154.661C59.5913 155.896 58.8032 157.543 58.6378 159.307C58.4725 161.07 58.9408 162.835 59.9588 164.285V164.342ZM159.928 370.644H198.621C200.597 370.644 202.492 369.859 203.89 368.461C205.287 367.064 206.073 365.168 206.073 363.192C206.073 361.216 205.287 359.32 203.89 357.923C202.492 356.525 200.597 355.74 198.621 355.74H159.928C157.952 355.74 156.057 356.525 154.659 357.923C153.262 359.32 152.476 361.216 152.476 363.192C152.476 365.168 153.262 367.064 154.659 368.461C156.057 369.859 157.952 370.644 159.928 370.644ZM159.928 407.273H216.677C218.548 407.109 220.29 406.25 221.558 404.865C222.827 403.48 223.531 401.67 223.531 399.792C223.531 397.914 222.827 396.104 221.558 394.719C220.29 393.335 218.548 392.476 216.677 392.312H159.928C158.891 392.221 157.846 392.347 156.86 392.681C155.874 393.016 154.968 393.552 154.2 394.256C153.432 394.959 152.819 395.815 152.4 396.768C151.98 397.721 151.764 398.751 151.764 399.792C151.764 400.834 151.98 401.864 152.4 402.817C152.819 403.77 153.432 404.625 154.2 405.329C154.968 406.032 155.874 406.568 156.86 406.903C157.846 407.238 158.891 407.364 159.928 407.273ZM159.928 258.923H198.621C200.597 258.923 202.492 258.138 203.89 256.741C205.287 255.343 206.073 253.448 206.073 251.472C206.073 249.495 205.287 247.6 203.89 246.202C202.492 244.805 200.597 244.02 198.621 244.02H159.928C157.952 244.02 156.057 244.805 154.659 246.202C153.262 247.6 152.476 249.495 152.476 251.472C152.476 253.448 153.262 255.343 154.659 256.741C156.057 258.138 157.952 258.923 159.928 258.923ZM159.928 295.552H239.835C240.873 295.643 241.918 295.517 242.904 295.183C243.89 294.848 244.796 294.312 245.563 293.608C246.331 292.905 246.944 292.049 247.364 291.096C247.783 290.143 248 289.113 248 288.072C248 287.03 247.783 286 247.364 285.047C246.944 284.094 246.331 283.238 245.563 282.535C244.796 281.831 243.89 281.295 242.904 280.961C241.918 280.626 240.873 280.5 239.835 280.591H159.928C158.891 280.5 157.846 280.626 156.86 280.961C155.874 281.295 154.968 281.831 154.2 282.535C153.432 283.238 152.819 284.094 152.4 285.047C151.98 286 151.764 287.03 151.764 288.072C151.764 289.113 151.98 290.143 152.4 291.096C152.819 292.049 153.432 292.905 154.2 293.608C154.968 294.312 155.874 294.848 156.86 295.183C157.846 295.517 158.891 295.643 159.928 295.552ZM159.928 147.203H237.37C239.241 147.039 240.983 146.18 242.252 144.795C243.52 143.41 244.224 141.6 244.224 139.722C244.224 137.844 243.52 136.034 242.252 134.65C240.983 133.265 239.241 132.406 237.37 132.242H159.928C158.891 132.151 157.846 132.277 156.86 132.611C155.874 132.946 154.968 133.482 154.2 134.186C153.432 134.889 152.819 135.745 152.4 136.698C151.98 137.651 151.764 138.681 151.764 139.722C151.764 140.764 151.98 141.794 152.4 142.747C152.819 143.7 153.432 144.556 154.2 145.259C154.968 145.962 155.874 146.499 156.86 146.833C157.846 147.168 158.891 147.294 159.928 147.203ZM159.928 183.774H289.763C291.739 183.774 293.634 182.989 295.032 181.592C296.429 180.194 297.214 178.299 297.214 176.322C297.214 174.346 296.429 172.451 295.032 171.053C293.634 169.656 291.739 168.871 289.763 168.871H159.928C157.952 168.871 156.057 169.656 154.659 171.053C153.262 172.451 152.476 174.346 152.476 176.322C152.476 178.299 153.262 180.194 154.659 181.592C156.057 182.989 157.952 183.774 159.928 183.774ZM54.7425 347.371C52.5275 347.386 50.4076 348.273 48.8413 349.839C47.2751 351.405 46.3885 353.525 46.3735 355.74V407.731C46.3885 409.946 47.2751 412.066 48.8413 413.632C50.4076 415.199 52.5275 416.085 54.7425 416.1H106.734C108.948 416.085 111.068 415.199 112.635 413.632C114.201 412.066 115.088 409.946 115.103 407.731V355.74C115.088 353.525 114.201 351.405 112.635 349.839C111.068 348.273 108.948 347.386 106.734 347.371H54.7425ZM54.7425 235.651C52.5229 235.651 50.3942 236.532 48.8247 238.102C47.2552 239.671 46.3735 241.8 46.3735 244.02V296.125C46.4185 298.315 47.3201 300.4 48.8847 301.932C50.4493 303.465 52.5524 304.323 54.7425 304.322H106.734C108.934 304.338 111.051 303.487 112.628 301.952C114.205 300.418 115.115 298.325 115.16 296.125V244.02C115.16 242.921 114.943 241.832 114.523 240.817C114.102 239.802 113.486 238.879 112.709 238.102C111.932 237.325 111.009 236.708 109.994 236.288C108.978 235.867 107.89 235.651 106.791 235.651H54.7425ZM54.7425 124.159C52.5328 124.159 50.4127 125.033 48.8449 126.59C47.277 128.147 46.3886 130.261 46.3735 132.471V184.462C46.4475 186.637 47.36 188.699 48.92 190.216C50.4799 191.733 52.5664 192.588 54.7425 192.602H106.734C108.948 192.587 111.068 191.7 112.635 190.134C114.201 188.568 115.088 186.448 115.103 184.233V132.242C115.029 130.082 114.122 128.035 112.573 126.528C111.024 125.022 108.952 124.173 106.791 124.159H54.7425Z" fill="black"/>
</svg>
