<svg width="123" height="123" viewBox="0 0 123 123" fill="none" xmlns="http://www.w3.org/2000/svg">
<rect width="123" height="123" rx="61.5" fill="#F8C300"/>
<path d="M88.8367 56.521C88.8367 56.2094 88.7329 55.9186 88.5875 55.6694L87.2996 51.3907L87.2789 51.37L82.626 36H41.083L36.451 51.3076L36.4302 51.3284L35.537 54.3193L35.5163 54.3401L35.1216 55.6694C34.9762 55.9186 34.8723 56.2094 34.8723 56.521L34.8516 56.5833V56.6871C34.8516 57.1648 35.0177 57.6218 35.3293 57.9749C35.3709 58.0372 35.4124 58.0995 35.4747 58.1618C35.8486 58.5357 36.3679 58.7641 36.9287 58.7641C37.3026 58.7641 37.6557 58.6603 37.9673 58.4734C38.5904 58.1203 39.0059 57.4349 39.0059 56.6871C39.0059 57.4349 39.4213 58.1203 40.0444 58.4734C40.356 58.6603 40.7091 58.7641 41.083 58.7641C42.2254 58.7641 43.1602 57.8087 43.1602 56.6871C43.1602 57.8087 44.0949 58.7641 45.2373 58.7641C46.3798 58.7641 47.3145 57.8087 47.3145 56.6871C47.3145 57.8087 48.2492 58.7641 49.3916 58.7641C50.5341 58.7641 51.4688 57.8087 51.4688 56.6871C51.4688 57.8087 52.4035 58.7641 53.5459 58.7641C54.6884 58.7641 55.6231 57.8087 55.6231 56.6871C55.6231 57.8087 56.5578 58.7641 57.7002 58.7641C58.8427 58.7641 59.7774 57.8087 59.7774 56.6871C59.7774 57.8087 60.7121 58.7641 61.8545 58.7641C62.997 58.7641 63.9317 57.8087 63.9317 56.6871C63.9317 57.8087 64.8664 58.7641 66.0088 58.7641C67.1513 58.7641 68.086 57.8087 68.086 56.6871C68.086 57.8087 69.0207 58.7641 70.1631 58.7641C71.3056 58.7641 72.2403 57.8087 72.2403 56.6871C72.2403 57.8087 73.175 58.7641 74.3174 58.7641C75.4599 58.7641 76.3946 57.8087 76.3946 56.6871C76.3946 57.8087 77.3293 58.7641 78.4717 58.7641C79.6142 58.7641 80.5489 57.8087 80.5489 56.6871C80.5489 57.8087 81.4836 58.7641 82.626 58.7641C82.9999 58.7641 83.353 58.6603 83.6646 58.4734C84.2878 58.1203 84.7032 57.4349 84.7032 56.6871C84.7032 57.4349 85.1186 58.1203 85.7418 58.4734C86.0533 58.6603 86.4065 58.7641 86.7803 58.7641C87.3412 58.7641 87.8605 58.5357 88.2344 58.1618C88.6082 57.7879 88.8575 57.2479 88.8575 56.6871V56.5833C88.8575 56.5625 88.8575 56.5625 88.8367 56.521Z" fill="black"/>
<path d="M37.9688 59.6153V91.9753H40.0459V59.5738C39.6512 59.4491 39.2981 59.2622 39.0073 58.9922C38.6958 59.2622 38.3634 59.4699 37.9688 59.6153Z" fill="black"/>
<path d="M83.6641 59.5738V80.5517H85.7412V59.6153C85.3466 59.4699 85.0142 59.2622 84.7026 58.9922C84.4118 59.2622 84.0587 59.4491 83.6641 59.5738Z" fill="black"/>
<path d="M58.7339 86.7891H57.6953V92.0024H84.6983V91.9816V86.7891H83.6597H58.7339Z" fill="black"/>
<path d="M63.9297 79.5319V80.5497H64.9683H75.354H76.3926V79.5319C76.3926 76.8941 74.7932 74.6717 72.5083 73.7578C71.8021 74.1109 71.0128 74.3186 70.1611 74.3186C69.3095 74.3186 68.5202 74.1109 67.814 73.7578C65.5291 74.6717 63.9297 76.8941 63.9297 79.5319Z" fill="black"/>
<path d="M70.1621 73.3081C70.993 73.3081 71.7823 73.0588 72.447 72.6227C73.5686 71.8749 74.3164 70.608 74.3164 69.154C74.3164 66.8485 72.447 65 70.1621 65C67.8772 65 66.0078 66.8485 66.0078 69.154C66.0078 70.608 66.7556 71.8749 67.8772 72.6227C68.5419 73.0588 69.3313 73.3081 70.1621 73.3081Z" fill="black"/>
<path d="M77.4351 81.6094H62.895H57.7022C56.5597 81.6094 55.625 82.544 55.625 83.6864C55.625 84.4341 56.0404 85.1195 56.6636 85.4726C56.9751 85.6596 57.3283 85.7634 57.7022 85.7634H83.6665H84.7051V85.7426V84.7041V82.6271V81.6094H83.6665H77.4351Z" fill="black"/>
</svg>
