<svg width="236" height="86" viewBox="0 0 236 86" fill="none" xmlns="http://www.w3.org/2000/svg">
<path fill-rule="evenodd" clip-rule="evenodd" d="M66.9705 5.12997V26.4129C60.08 18.8282 49.7643 15.7714 39.8984 18.8282C30.8481 21.3564 22.7348 30.7738 22.0407 40.2339C21.0209 50.2627 25.9545 59.2316 34.5176 64.4508C42.2224 69.4672 54.2908 69.0988 61.7526 63.7994C63.588 62.6181 65.3807 61.0283 66.9719 59.2729V80.8001C55.8419 86.5093 39.6955 86.835 28.157 81.7772C17.027 77.6192 6.05851 66.7762 2.67466 55.3178C1.53336 51.7297 0.799193 47.9787 0.757812 43.9008L0.799193 40.4769C1.32913 25.3917 12.3377 11.1221 26.1174 5.0472C37.9415 -0.782099 55.1878 -0.984991 66.9705 5.12997ZM93.2271 83.2082H72.5155V2.27605H93.2271V83.2082ZM135.22 2.3161C142.969 2.60176 150.877 7.49399 153.569 14.9972C156.463 22.8248 155.728 33.0591 148.921 38.807L147.086 40.2753C155.609 45.0448 158.541 54.342 157.237 63.758C156.176 71.0584 151.57 79.0074 144.069 81.5356C141.214 82.5554 138.117 83.084 134.856 83.2069H99.9548V2.27605L135.22 2.3161ZM235.356 83.2082H213.583L207.876 68.0002L180.03 67.9588L174.281 83.2082H152.509L182.801 2.27605H205.064L235.356 83.2082Z" fill="white"/>
<path fill-rule="evenodd" clip-rule="evenodd" d="M133.632 22.6781C134.894 25.8591 134.529 30.0986 131.838 32.504C128.331 35.5621 122.989 34.0938 118.383 34.4609V18.2344C123.928 18.6428 131.023 16.7674 133.632 22.6781ZM182.842 54.0311L191.365 30.8327L199.885 53.9898L182.842 54.0311ZM128.209 49.4246C130.941 49.6275 133.631 51.1759 134.855 53.8282C136.526 57.3349 136.323 62.5128 133.755 65.5709C132.165 67.4878 129.961 68.262 127.555 68.4649H118.383V49.3832L128.209 49.4246Z" fill="#1A1C1E"/>
</svg>
