<svg width="209" height="88" viewBox="0 0 209 88" fill="none" xmlns="http://www.w3.org/2000/svg">
<rect width="94" height="37" fill="white"/>
<path d="M11.7216 27V9.54545H14.8835V24.3494H22.571V27H11.7216ZM29.5153 27V9.54545H40.8676V12.196H32.6773V16.9347H40.2795V19.5852H32.6773V24.3494H40.9358V27H29.5153ZM50.5349 27H47.1599L53.3048 9.54545H57.2082L63.3616 27H59.9866L55.3247 13.125H55.1884L50.5349 27ZM50.6457 20.1562H59.8503V22.696H50.6457V20.1562ZM69.8607 27V9.54545H76.4061C77.747 9.54545 78.872 9.79545 79.7811 10.2955C80.6959 10.7955 81.3862 11.483 81.8521 12.358C82.3237 13.2273 82.5595 14.2159 82.5595 15.3239C82.5595 16.4432 82.3237 17.4375 81.8521 18.3068C81.3805 19.1761 80.6845 19.8608 79.7641 20.3608C78.8436 20.8551 77.7101 21.1023 76.3635 21.1023H72.0254V18.5028H75.9374C76.7214 18.5028 77.3635 18.3665 77.8635 18.0938C78.3635 17.821 78.7328 17.446 78.9714 16.9688C79.2158 16.4915 79.3379 15.9432 79.3379 15.3239C79.3379 14.7045 79.2158 14.1591 78.9714 13.6875C78.7328 13.2159 78.3607 12.8494 77.855 12.5881C77.355 12.321 76.7101 12.1875 75.9203 12.1875H73.0226V27H69.8607Z" fill="#1A1C1E"/>
<path d="M106.955 12.196V9.54545H120.881V12.196H115.486V27H112.349V12.196H106.955ZM138.388 18.2727C138.388 20.1534 138.036 21.7642 137.332 23.1051C136.633 24.4403 135.678 25.4631 134.468 26.1733C133.263 26.8835 131.897 27.2386 130.369 27.2386C128.84 27.2386 127.471 26.8835 126.261 26.1733C125.056 25.4574 124.102 24.4318 123.397 23.0966C122.698 21.7557 122.349 20.1477 122.349 18.2727C122.349 16.392 122.698 14.7841 123.397 13.4489C124.102 12.108 125.056 11.0824 126.261 10.3722C127.471 9.66193 128.84 9.30682 130.369 9.30682C131.897 9.30682 133.263 9.66193 134.468 10.3722C135.678 11.0824 136.633 12.108 137.332 13.4489C138.036 14.7841 138.388 16.392 138.388 18.2727ZM135.21 18.2727C135.21 16.9489 135.002 15.8324 134.587 14.9233C134.178 14.0085 133.61 13.3182 132.883 12.8523C132.156 12.3807 131.317 12.1449 130.369 12.1449C129.42 12.1449 128.582 12.3807 127.854 12.8523C127.127 13.3182 126.556 14.0085 126.141 14.9233C125.732 15.8324 125.528 16.9489 125.528 18.2727C125.528 19.5966 125.732 20.7159 126.141 21.6307C126.556 22.5398 127.127 23.2301 127.854 23.7017C128.582 24.1676 129.42 24.4006 130.369 24.4006C131.317 24.4006 132.156 24.1676 132.883 23.7017C133.61 23.2301 134.178 22.5398 134.587 21.6307C135.002 20.7159 135.21 19.5966 135.21 18.2727Z" fill="white"/>
<path d="M13.692 78.588C10.416 78.588 7.728 77.664 5.628 75.816C3.528 73.968 2.478 71.49 2.478 68.382V48.6H8.232V67.92C8.232 69.46 8.666 70.678 9.534 71.574C10.43 72.47 11.816 72.918 13.692 72.918C15.568 72.918 16.94 72.47 17.808 71.574C18.704 70.678 19.152 69.46 19.152 67.92V48.6H24.948V68.382C24.948 71.49 23.898 73.968 21.798 75.816C19.698 77.664 16.996 78.588 13.692 78.588ZM47.1795 48.6H52.9755V78H48.5655L35.9655 60.024V78H30.1695V48.6H34.5795L47.1795 66.534V48.6ZM58.4292 48.6H64.2252V78H58.4292V48.6ZM83.6115 78.588C79.1875 78.588 75.5335 77.118 72.6495 74.178C69.7655 71.238 68.3235 67.612 68.3235 63.3C68.3235 58.96 69.7655 55.334 72.6495 52.422C75.5335 49.482 79.1875 48.012 83.6115 48.012C86.2715 48.012 88.7215 48.642 90.9615 49.902C93.2295 51.134 94.9935 52.814 96.2535 54.942L91.2555 57.84C90.5275 56.524 89.4915 55.502 88.1475 54.774C86.8035 54.018 85.2915 53.64 83.6115 53.64C80.7555 53.64 78.4455 54.536 76.6815 56.328C74.9455 58.12 74.0775 60.444 74.0775 63.3C74.0775 66.128 74.9455 68.438 76.6815 70.23C78.4455 72.022 80.7555 72.918 83.6115 72.918C85.2915 72.918 86.8035 72.554 88.1475 71.826C89.5195 71.07 90.5555 70.048 91.2555 68.76L96.2535 71.658C94.9935 73.786 93.2435 75.48 91.0035 76.74C88.7635 77.972 86.2995 78.588 83.6115 78.588Z" fill="white"/>
<path d="M172.858 78L166.936 67.794H162.526V78H156.73V48.6H168.49C171.206 48.6 173.516 49.552 175.42 51.456C177.324 53.36 178.276 55.656 178.276 58.344C178.276 60.164 177.758 61.858 176.722 63.426C175.686 64.966 174.314 66.128 172.606 66.912L179.116 78H172.858ZM162.526 54.018V62.712H168.49C169.582 62.712 170.52 62.292 171.304 61.452C172.088 60.584 172.48 59.548 172.48 58.344C172.48 57.14 172.088 56.118 171.304 55.278C170.52 54.438 169.582 54.018 168.49 54.018H162.526ZM199.539 48.6H205.335V78H200.925L188.325 60.024V78H182.529V48.6H186.939L199.539 66.534V48.6Z" fill="white"/>
<circle cx="126" cy="64" r="24" fill="white"/>
<path d="M128.5 86.5L131.5 87.5H126H123L120.5 87L117 86L114.5 85L111 82.5L108 79.5L105.5 76L104 73L103.5 71L102.5 68L102 65V63L102.5 59L103.5 57.5L104.5 55.5L105.5 54L107 52L108.734 50L110.5 49L112 48.5L113.5 50.5V47.5L114.5 47L117 46L119.5 45.5L120 47.5H121L121.5 45.5L128.5 46L127.5 49.5L131 53L144.5 50L133 57L139 67.5V70L138.5 72L137.5 73.5L136 74H134L133 73.5L130.5 72.5L129 72L127.5 71.5L126 70.5L124.5 69.5L123 71L122 72.5V74.5V76.5V78.5L122.5 80L123.5 82L124.5 84L125.5 85L127 86L128.5 86.5Z" fill="#1A1D1F" stroke="#1A1D1F"/>
<path d="M126 56.5L123 56V56.5L123.5 58.5L124.5 60L126 61L127.5 61.5L128.5 61V59.5C128.5 59.1 127.833 58.3333 127.5 58L126 56.5Z" fill="white" stroke="black"/>
</svg>
