<svg width="305" height="58" viewBox="0 0 305 58" fill="none" xmlns="http://www.w3.org/2000/svg">
<path d="M23.1733 36V16.3636H28.3636V19.8281H28.5938C29.0028 18.6776 29.6847 17.7699 30.6392 17.1051C31.5938 16.4403 32.7358 16.108 34.0653 16.108C35.4119 16.108 36.5582 16.4446 37.5043 17.1179C38.4503 17.7827 39.081 18.6861 39.3963 19.8281H39.6009C40.0014 18.7031 40.7259 17.804 41.7741 17.1307C42.831 16.4489 44.0795 16.108 45.5199 16.108C47.3523 16.108 48.8395 16.6918 49.9815 17.8594C51.1321 19.0185 51.7074 20.6634 51.7074 22.794V36H46.2741V23.8679C46.2741 22.777 45.9844 21.9588 45.4048 21.4134C44.8253 20.8679 44.1009 20.5952 43.2315 20.5952C42.2429 20.5952 41.4716 20.9105 40.9176 21.5412C40.3636 22.1634 40.0866 22.9858 40.0866 24.0085V36H34.8068V23.7528C34.8068 22.7898 34.5298 22.0227 33.9759 21.4517C33.4304 20.8807 32.7102 20.5952 31.8153 20.5952C31.2102 20.5952 30.6648 20.7486 30.179 21.0554C29.7017 21.3537 29.3224 21.7756 29.0412 22.321C28.7599 22.858 28.6193 23.4886 28.6193 24.2131V36H23.1733ZM63.0814 36.3835C61.0956 36.3835 59.3783 35.9616 57.9294 35.1179C56.4891 34.2656 55.3768 33.081 54.5928 31.5639C53.8087 30.0384 53.4166 28.2699 53.4166 26.2585C53.4166 24.2301 53.8087 22.4574 54.5928 20.9403C55.3768 19.4148 56.4891 18.2301 57.9294 17.3864C59.3783 16.5341 61.0956 16.108 63.0814 16.108C65.0672 16.108 66.7803 16.5341 68.2206 17.3864C69.6695 18.2301 70.7859 19.4148 71.57 20.9403C72.3541 22.4574 72.7462 24.2301 72.7462 26.2585C72.7462 28.2699 72.3541 30.0384 71.57 31.5639C70.7859 33.081 69.6695 34.2656 68.2206 35.1179C66.7803 35.9616 65.0672 36.3835 63.0814 36.3835ZM63.107 32.1648C64.0104 32.1648 64.7646 31.9091 65.3697 31.3977C65.9749 30.8778 66.4308 30.1705 66.7376 29.2756C67.053 28.3807 67.2107 27.3622 67.2107 26.2202C67.2107 25.0781 67.053 24.0597 66.7376 23.1648C66.4308 22.2699 65.9749 21.5625 65.3697 21.0426C64.7646 20.5227 64.0104 20.2628 63.107 20.2628C62.195 20.2628 61.428 20.5227 60.8058 21.0426C60.1922 21.5625 59.7277 22.2699 59.4124 23.1648C59.1055 24.0597 58.9521 25.0781 58.9521 26.2202C58.9521 27.3622 59.1055 28.3807 59.4124 29.2756C59.7277 30.1705 60.1922 30.8778 60.8058 31.3977C61.428 31.9091 62.195 32.1648 63.107 32.1648ZM79.9334 24.6477V36H74.4874V16.3636H79.6777V19.8281H79.9078C80.3425 18.6861 81.0712 17.7827 82.0939 17.1179C83.1166 16.4446 84.3567 16.108 85.8141 16.108C87.1777 16.108 88.3666 16.4062 89.3808 17.0028C90.395 17.5994 91.1834 18.4517 91.7459 19.5597C92.3084 20.6591 92.5896 21.9716 92.5896 23.4972V36H87.1436V24.4688C87.1521 23.267 86.8453 22.3295 86.2232 21.6562C85.601 20.9744 84.7445 20.6335 83.6536 20.6335C82.9206 20.6335 82.2729 20.7912 81.7104 21.1065C81.1564 21.4219 80.7217 21.8821 80.4064 22.4872C80.0996 23.0838 79.9419 23.804 79.9334 24.6477ZM104.031 36.3835C102.011 36.3835 100.272 35.9744 98.8148 35.1562C97.366 34.3295 96.2495 33.1619 95.4654 31.6534C94.6813 30.1364 94.2893 28.3423 94.2893 26.2713C94.2893 24.2514 94.6813 22.4787 95.4654 20.9531C96.2495 19.4276 97.3532 18.2386 98.7765 17.3864C100.208 16.5341 101.887 16.108 103.813 16.108C105.109 16.108 106.315 16.3168 107.431 16.7344C108.556 17.1435 109.536 17.7614 110.372 18.5881C111.215 19.4148 111.872 20.4545 112.34 21.7074C112.809 22.9517 113.044 24.4091 113.044 26.0795V27.5753H96.4626V24.2003H107.917C107.917 23.4162 107.747 22.7216 107.406 22.1165C107.065 21.5114 106.592 21.0384 105.987 20.6974C105.39 20.348 104.696 20.1733 103.903 20.1733C103.076 20.1733 102.343 20.3651 101.704 20.7486C101.073 21.1236 100.579 21.6307 100.221 22.2699C99.8631 22.9006 99.6799 23.6037 99.6714 24.3793V27.5881C99.6714 28.5597 99.8504 29.3991 100.208 30.1065C100.575 30.8139 101.09 31.3594 101.755 31.7429C102.42 32.1264 103.208 32.3182 104.12 32.3182C104.725 32.3182 105.279 32.233 105.782 32.0625C106.285 31.892 106.715 31.6364 107.073 31.2955C107.431 30.9545 107.704 30.5369 107.892 30.0426L112.928 30.375C112.673 31.5852 112.149 32.642 111.356 33.5455C110.572 34.4403 109.558 35.1392 108.313 35.642C107.078 36.1364 105.65 36.3835 104.031 36.3835ZM117.632 43.3636C116.942 43.3636 116.294 43.3082 115.689 43.1974C115.093 43.0952 114.598 42.9631 114.206 42.8011L115.434 38.7358C116.073 38.9318 116.648 39.0384 117.159 39.0554C117.679 39.0724 118.127 38.9531 118.502 38.6974C118.885 38.4418 119.196 38.0071 119.435 37.3935L119.755 36.5625L112.711 16.3636H118.438L122.503 30.7841H122.708L126.811 16.3636H132.577L124.945 38.1222C124.578 39.179 124.08 40.0994 123.449 40.8835C122.827 41.6761 122.039 42.2855 121.084 42.7116C120.13 43.1463 118.979 43.3636 117.632 43.3636Z" fill="white"/>
<rect width="154" height="42" transform="translate(151)" fill="white"/>
<path d="M173.886 36.4474C171.54 36.4474 169.521 35.9503 167.831 34.956C166.151 33.9517 164.858 32.5597 163.953 30.7798C163.058 29 162.611 26.9517 162.611 24.6349C162.611 22.2884 163.063 20.2301 163.968 18.4602C164.883 16.6804 166.18 15.2933 167.861 14.299C169.541 13.2947 171.54 12.7926 173.857 12.7926C175.855 12.7926 177.605 13.1555 179.107 13.8814C180.608 14.6072 181.796 15.6264 182.671 16.9389C183.546 18.2514 184.028 19.7926 184.118 21.5625H178.122C177.953 20.419 177.506 19.4993 176.78 18.8033C176.064 18.0973 175.124 17.7443 173.961 17.7443C172.977 17.7443 172.116 18.0128 171.381 18.5497C170.655 19.0767 170.088 19.8473 169.68 20.8615C169.273 21.8757 169.069 23.1037 169.069 24.5455C169.069 26.0071 169.268 27.25 169.665 28.2741C170.073 29.2983 170.645 30.0788 171.381 30.6158C172.116 31.1527 172.977 31.4212 173.961 31.4212C174.687 31.4212 175.338 31.272 175.915 30.9737C176.501 30.6754 176.984 30.2429 177.362 29.6761C177.749 29.0994 178.003 28.4084 178.122 27.603H184.118C184.018 29.353 183.541 30.8942 182.686 32.2266C181.841 33.549 180.673 34.5831 179.181 35.3288C177.69 36.0746 175.925 36.4474 173.886 36.4474ZM196.437 36.4474C194.12 36.4474 192.116 35.9553 190.426 34.9709C188.746 33.9766 187.448 32.5945 186.533 30.8246C185.619 29.0447 185.161 26.9815 185.161 24.6349C185.161 22.2685 185.619 20.2003 186.533 18.4304C187.448 16.6506 188.746 15.2685 190.426 14.2841C192.116 13.2898 194.12 12.7926 196.437 12.7926C198.754 12.7926 200.752 13.2898 202.432 14.2841C204.123 15.2685 205.425 16.6506 206.34 18.4304C207.255 20.2003 207.712 22.2685 207.712 24.6349C207.712 26.9815 207.255 29.0447 206.34 30.8246C205.425 32.5945 204.123 33.9766 202.432 34.9709C200.752 35.9553 198.754 36.4474 196.437 36.4474ZM196.467 31.5256C197.521 31.5256 198.401 31.2273 199.106 30.6307C199.812 30.0241 200.344 29.1989 200.702 28.1548C201.07 27.1108 201.254 25.9226 201.254 24.5902C201.254 23.2578 201.07 22.0696 200.702 21.0256C200.344 19.9815 199.812 19.1562 199.106 18.5497C198.401 17.9432 197.521 17.6399 196.467 17.6399C195.403 17.6399 194.508 17.9432 193.782 18.5497C193.066 19.1562 192.524 19.9815 192.156 21.0256C191.798 22.0696 191.619 23.2578 191.619 24.5902C191.619 25.9226 191.798 27.1108 192.156 28.1548C192.524 29.1989 193.066 30.0241 193.782 30.6307C194.508 31.2273 195.403 31.5256 196.467 31.5256ZM216.097 22.7557V36H209.744V13.0909H215.799V17.1328H216.068C216.575 15.8004 217.425 14.7464 218.618 13.9709C219.811 13.1854 221.258 12.7926 222.958 12.7926C224.549 12.7926 225.936 13.1406 227.119 13.8366C228.303 14.5327 229.222 15.527 229.879 16.8196C230.535 18.1023 230.863 19.6335 230.863 21.4134V36H224.509V22.5469C224.519 21.1449 224.161 20.0511 223.435 19.2656C222.71 18.4702 221.71 18.0724 220.438 18.0724C219.582 18.0724 218.827 18.2564 218.171 18.6243C217.524 18.9922 217.017 19.5291 216.649 20.2351C216.291 20.9311 216.107 21.7713 216.097 22.7557ZM245.956 13.0909V17.8636H232.16V13.0909H245.956ZM235.292 7.60227H241.646V28.9602C241.646 29.5469 241.735 30.0043 241.914 30.3324C242.093 30.6506 242.342 30.8743 242.66 31.0036C242.988 31.1328 243.366 31.1974 243.793 31.1974C244.092 31.1974 244.39 31.1726 244.688 31.1229C244.987 31.0632 245.215 31.0185 245.374 30.9886L246.374 35.7166C246.055 35.8161 245.608 35.9304 245.031 36.0597C244.455 36.1989 243.754 36.2834 242.928 36.3132C241.397 36.3729 240.055 36.169 238.901 35.7017C237.758 35.2344 236.868 34.5085 236.232 33.5241C235.595 32.5398 235.282 31.2969 235.292 29.7955V7.60227ZM247.995 36V13.0909H254.155V17.0881H254.393C254.811 15.6662 255.512 14.5923 256.496 13.8665C257.481 13.1307 258.614 12.7628 259.897 12.7628C260.215 12.7628 260.558 12.7827 260.926 12.8224C261.294 12.8622 261.617 12.9169 261.895 12.9865V18.6243C261.597 18.5348 261.185 18.4553 260.658 18.3857C260.131 18.3161 259.648 18.2812 259.211 18.2812C258.276 18.2812 257.441 18.4851 256.705 18.8928C255.979 19.2905 255.403 19.8473 254.975 20.5632C254.557 21.2791 254.349 22.1044 254.349 23.0391V36H247.995ZM272.365 36.4474C270.048 36.4474 268.045 35.9553 266.354 34.9709C264.674 33.9766 263.376 32.5945 262.461 30.8246C261.547 29.0447 261.089 26.9815 261.089 24.6349C261.089 22.2685 261.547 20.2003 262.461 18.4304C263.376 16.6506 264.674 15.2685 266.354 14.2841C268.045 13.2898 270.048 12.7926 272.365 12.7926C274.682 12.7926 276.68 13.2898 278.361 14.2841C280.051 15.2685 281.354 16.6506 282.268 18.4304C283.183 20.2003 283.64 22.2685 283.64 24.6349C283.64 26.9815 283.183 29.0447 282.268 30.8246C281.354 32.5945 280.051 33.9766 278.361 34.9709C276.68 35.9553 274.682 36.4474 272.365 36.4474ZM272.395 31.5256C273.449 31.5256 274.329 31.2273 275.035 30.6307C275.741 30.0241 276.273 29.1989 276.631 28.1548C276.998 27.1108 277.182 25.9226 277.182 24.5902C277.182 23.2578 276.998 22.0696 276.631 21.0256C276.273 19.9815 275.741 19.1562 275.035 18.5497C274.329 17.9432 273.449 17.6399 272.395 17.6399C271.331 17.6399 270.436 17.9432 269.71 18.5497C268.994 19.1562 268.452 19.9815 268.084 21.0256C267.726 22.0696 267.547 23.2578 267.547 24.5902C267.547 25.9226 267.726 27.1108 268.084 28.1548C268.452 29.1989 268.994 30.0241 269.71 30.6307C270.436 31.2273 271.331 31.5256 272.395 31.5256ZM292.026 5.45454V36H285.672V5.45454H292.026Z" fill="#1A1D1F"/>
<path d="M0.5 14.5002C16 -7.00289 73 4.99927 106 7.49964C139 10 147 0.510891 151.5 0.507812" stroke="white"/>
<path d="M151.5 41.5078C147 41.5109 139 51 106 48.4996C73 45.9993 16 33.9971 0.5 55.5002V14" stroke="white"/>
</svg>
