<svg width="354" height="90" viewBox="0 0 354 90" fill="none" xmlns="http://www.w3.org/2000/svg">
<path d="M0.0105598 0.4375C28.6069 0.449148 57.2033 0.4375 85.7997 0.443324C85.8288 9.06883 85.7415 17.6943 85.8463 26.314C77.6343 26.4771 69.4107 26.3257 61.1928 26.3897C61.2103 47.4497 61.1812 68.5097 61.2103 89.5697C49.3932 89.6396 37.5761 89.5813 25.7648 89.5988C25.759 68.8708 25.7648 48.137 25.759 27.409C17.2849 27.4264 8.80497 27.3857 0.330886 27.4264C-0.0768018 21.4742 0.278469 15.4986 0.0862733 9.54058C-0.0651536 6.50622 0.0338562 3.47186 0.0105598 0.4375Z" fill="white"/>
<path d="M110.12 0.31726C122.438 0.323085 134.756 0.299788 147.074 0.323085C158.489 30.0901 169.916 59.8513 181.372 89.6009C169.869 89.6125 158.367 89.5834 146.864 89.6184C140.708 72.0587 134.604 54.4757 128.471 36.9043C122.444 54.4698 116.649 72.1285 110.469 89.6475C99.3044 89.6533 88.1512 89.4553 76.9922 89.4553C88.0463 59.7465 99.0889 30.0319 110.12 0.31726Z" fill="white"/>
<path d="M172.677 0.00873617C201.227 -0.00291206 229.777 -0.00291206 258.326 0.00873617C258.321 8.66336 258.326 17.318 258.321 25.9784C250.184 25.9551 242.042 26.0309 233.906 25.9377C233.807 47.0093 233.888 68.0809 233.865 89.1526C222.071 89.1526 210.283 89.1351 198.489 89.1642C198.449 68.4304 198.484 47.7024 198.472 26.9685C189.928 26.9685 181.39 26.9685 172.846 26.9685C172.962 17.9761 172.537 9.00116 172.677 0.00873617Z" fill="white"/>
<path d="M282.761 0.44379C295.084 0.461262 307.408 0.403021 319.732 0.472911C331.118 30.2341 342.568 59.9662 354.001 89.7099C342.493 89.7565 330.99 89.7158 319.482 89.7274C313.425 72.2725 307.268 54.8468 301.264 37.3745C300.932 37.7356 300.693 38.1549 300.565 38.6325C294.776 55.6622 289.027 72.7094 283.203 89.7332C272.027 89.8264 260.856 89.5119 249.68 89.6051C260.623 59.8555 271.753 30.1701 282.761 0.44379Z" fill="white"/>
</svg>
