<svg width="121" height="68" viewBox="0 0 121 68" fill="none" xmlns="http://www.w3.org/2000/svg">
<path d="M11.8535 33H6.2959V7.91895H0.553711V3.01758H17.5957V7.91895H11.8535V33ZM27.2672 9.72363C27.9371 9.72363 28.5934 9.82617 29.2359 10.0312L28.6002 15.3223C28.2174 15.1855 27.7184 15.1172 27.1031 15.1172C25.777 15.1172 24.7584 15.6436 24.0475 16.6963C23.3365 17.7354 22.9811 19.2529 22.9811 21.249V33H17.526V10.1543H22.0172L22.6324 13.7227H22.817C23.4186 12.2871 24.0748 11.2617 24.7857 10.6465C25.4967 10.0312 26.3238 9.72363 27.2672 9.72363ZM40.7736 33L39.6867 29.8828H39.5637C38.757 31.2227 37.923 32.1455 37.0617 32.6514C36.2004 33.1572 35.1135 33.4102 33.801 33.4102C32.1193 33.4102 30.7932 32.7812 29.8225 31.5234C28.8654 30.2656 28.3869 28.5156 28.3869 26.2734C28.3869 23.8672 29.0432 22.083 30.3557 20.9209C31.6818 19.7451 33.6574 19.0957 36.2824 18.9727L39.3176 18.8496V17.209C39.3176 15.0762 38.3947 14.0098 36.549 14.0098C35.1818 14.0098 33.6096 14.543 31.8322 15.6094L29.9455 11.8359C32.215 10.4004 34.6828 9.68262 37.3488 9.68262C39.7687 9.68262 41.6076 10.3799 42.8654 11.7744C44.1369 13.1553 44.7727 15.1172 44.7727 17.6602V33H40.7736ZM36.0363 29.1445C37.0344 29.1445 37.8273 28.7002 38.4152 27.8115C39.0168 26.9092 39.3176 25.7129 39.3176 24.2227V22.2949L37.6359 22.377C36.3918 22.4453 35.4758 22.8008 34.8879 23.4434C34.3137 24.0859 34.0266 25.043 34.0266 26.3145C34.0266 28.2012 34.6965 29.1445 36.0363 29.1445ZM57.2332 14.4814H53.4598V33H48.0047V14.4814H45.3592V11.7539L48.0047 10.1133V8.39062C48.0047 5.84766 48.5311 3.96094 49.5838 2.73047C50.6365 1.48633 52.3318 0.864258 54.6697 0.864258C56.1463 0.864258 57.5203 1.17188 58.7918 1.78711L57.3563 5.9502C56.6727 5.62207 55.9754 5.45801 55.2645 5.45801C54.6355 5.45801 54.1775 5.7041 53.8904 6.19629C53.6033 6.68848 53.4598 7.44727 53.4598 8.47266V10.1543H57.2332V14.4814ZM70.1326 14.4814H66.3592V33H60.9041V14.4814H58.2586V11.7539L60.9041 10.1133V8.39062C60.9041 5.84766 61.4305 3.96094 62.4832 2.73047C63.5359 1.48633 65.2313 0.864258 67.5691 0.864258C69.0457 0.864258 70.4197 1.17188 71.6912 1.78711L70.2557 5.9502C69.5721 5.62207 68.8748 5.45801 68.1639 5.45801C67.535 5.45801 67.077 5.7041 66.7898 6.19629C66.5027 6.68848 66.3592 7.44727 66.3592 8.47266V10.1543H70.1326V14.4814ZM78.0281 33H72.573V10.1543H78.0281V33ZM72.3475 4.18652C72.3475 3.28418 72.6072 2.57324 73.1268 2.05371C73.66 1.52051 74.3982 1.25391 75.3416 1.25391C76.2303 1.25391 76.9412 1.52051 77.4744 2.05371C78.0076 2.57324 78.2742 3.28418 78.2742 4.18652C78.2742 5.11621 78.0008 5.84082 77.4539 6.36035C76.907 6.86621 76.2029 7.11914 75.3416 7.11914C74.4393 7.11914 73.7146 6.86621 73.1678 6.36035C72.6209 5.84082 72.3475 5.11621 72.3475 4.18652ZM88.1713 33.4102C85.4506 33.4102 83.3793 32.4189 81.9574 30.4365C80.5355 28.4541 79.8246 25.542 79.8246 21.7002C79.8246 17.6807 80.4945 14.6797 81.8344 12.6973C83.1879 10.7148 85.2729 9.72363 88.0893 9.72363C88.9369 9.72363 89.8256 9.84668 90.7553 10.0928C91.685 10.3389 92.5189 10.6943 93.2572 11.1592L91.6986 15.4043C90.5639 14.7344 89.559 14.3994 88.684 14.3994C87.5219 14.3994 86.6811 15.0078 86.1615 16.2246C85.6557 17.4277 85.4027 19.2393 85.4027 21.6592C85.4027 24.0244 85.6557 25.7949 86.1615 26.9707C86.6674 28.1328 87.4945 28.7139 88.643 28.7139C90.0102 28.7139 91.4389 28.2354 92.9291 27.2783V32.0771C91.4936 32.9658 89.9076 33.4102 88.1713 33.4102Z" fill="white"/>
<path d="M12.0586 43.7236C12.7285 43.7236 13.3848 43.8262 14.0273 44.0312L13.3916 49.3223C13.0088 49.1855 12.5098 49.1172 11.8945 49.1172C10.5684 49.1172 9.5498 49.6436 8.83887 50.6963C8.12793 51.7354 7.77246 53.2529 7.77246 55.249V67H2.31738V44.1543H6.80859L7.42383 47.7227H7.6084C8.20996 46.2871 8.86621 45.2617 9.57715 44.6465C10.2881 44.0312 11.1152 43.7236 12.0586 43.7236ZM22.7965 67.4102C19.9391 67.4102 17.6832 66.3984 16.0289 64.375C14.3883 62.3379 13.568 59.46 13.568 55.7412C13.568 51.9678 14.3131 49.0215 15.8033 46.9023C17.2936 44.7832 19.3717 43.7236 22.0377 43.7236C24.526 43.7236 26.4879 44.6328 27.9234 46.4512C29.359 48.2559 30.0768 50.792 30.0768 54.0596V56.9717H19.1051C19.1461 59.0088 19.5631 60.5264 20.3561 61.5244C21.149 62.5088 22.2428 63.001 23.6373 63.001C25.4146 63.001 27.233 62.4473 29.0924 61.3398V65.8311C27.3424 66.8838 25.2437 67.4102 22.7965 67.4102ZM21.9967 47.9277C21.2174 47.9277 20.5748 48.3447 20.0689 49.1787C19.5631 49.999 19.2691 51.2773 19.1871 53.0137H24.7242C24.6969 51.3457 24.4439 50.0811 23.9654 49.2197C23.4869 48.3584 22.8307 47.9277 21.9967 47.9277ZM47.5002 67L45.2238 53.7314L44.424 48.1328H44.342C44.1369 49.9512 43.9729 51.2705 43.8498 52.0908C43.7268 52.8975 42.8586 57.8672 41.2453 67H34.2316L29.6789 44.1543H35.1545L37.2463 56.7461C37.4924 58.1406 37.718 60.1846 37.923 62.8779H38.0461C38.0734 62.1533 38.1691 61.0527 38.3332 59.5762C38.4973 58.0859 38.6135 57.1289 38.6818 56.7051L40.9377 44.1543H47.9514L50.1867 56.7461C50.4465 58.0859 50.6721 60.1299 50.8635 62.8779H50.9455C51.1369 60.4307 51.3762 58.3867 51.6633 56.7461L53.8371 44.1543H59.1691L54.5959 67H47.5002ZM71.035 67L69.948 63.8828H69.825C69.0184 65.2227 68.1844 66.1455 67.323 66.6514C66.4617 67.1572 65.3748 67.4102 64.0623 67.4102C62.3807 67.4102 61.0545 66.7812 60.0838 65.5234C59.1268 64.2656 58.6482 62.5156 58.6482 60.2734C58.6482 57.8672 59.3045 56.083 60.617 54.9209C61.9432 53.7451 63.9188 53.0957 66.5438 52.9727L69.5789 52.8496V51.209C69.5789 49.0762 68.6561 48.0098 66.8104 48.0098C65.4432 48.0098 63.8709 48.543 62.0936 49.6094L60.2068 45.8359C62.4764 44.4004 64.9441 43.6826 67.6102 43.6826C70.0301 43.6826 71.8689 44.3799 73.1268 45.7744C74.3982 47.1553 75.034 49.1172 75.034 51.6602V67H71.035ZM66.2977 63.1445C67.2957 63.1445 68.0887 62.7002 68.6766 61.8115C69.2781 60.9092 69.5789 59.7129 69.5789 58.2227V56.2949L67.8973 56.377C66.6531 56.4453 65.7371 56.8008 65.1492 57.4434C64.575 58.0859 64.2879 59.043 64.2879 60.3145C64.2879 62.2012 64.9578 63.1445 66.2977 63.1445ZM87.0844 43.7236C87.7543 43.7236 88.4105 43.8262 89.0531 44.0312L88.4174 49.3223C88.0346 49.1855 87.5355 49.1172 86.9203 49.1172C85.5941 49.1172 84.5756 49.6436 83.8646 50.6963C83.1537 51.7354 82.7982 53.2529 82.7982 55.249V67H77.3432V44.1543H81.8344L82.4496 47.7227H82.6342C83.2357 46.2871 83.892 45.2617 84.6029 44.6465C85.3139 44.0312 86.141 43.7236 87.0844 43.7236ZM95.4023 67.4102C93.2969 67.4102 91.6357 66.3711 90.4189 64.293C89.2021 62.2148 88.5938 59.3232 88.5938 55.6182C88.5938 51.8994 89.1885 48.9873 90.3779 46.8818C91.5674 44.7764 93.208 43.7236 95.2998 43.7236C96.3389 43.7236 97.2344 43.9834 97.9863 44.5029C98.752 45.0088 99.4561 45.8701 100.099 47.0869H100.427C100.263 45.0088 100.181 43.5527 100.181 42.7188V35.0898H105.636V67H101.575L100.652 64.0264H100.468C99.3057 66.2822 97.6172 67.4102 95.4023 67.4102ZM97.166 62.7959C98.1777 62.7959 98.916 62.3379 99.3809 61.4219C99.8457 60.4922 100.099 58.8105 100.14 56.377V55.6592C100.14 53.0068 99.9004 51.1406 99.4219 50.0605C98.957 48.9805 98.1846 48.4404 97.1045 48.4404C96.0928 48.4404 95.3545 49.0625 94.8896 50.3066C94.4385 51.5371 94.2129 53.335 94.2129 55.7002C94.2129 58.0654 94.4453 59.8428 94.9102 61.0322C95.375 62.208 96.127 62.7959 97.166 62.7959ZM120.393 60.3145C120.393 62.543 119.737 64.2861 118.424 65.5439C117.126 66.7881 115.205 67.4102 112.662 67.4102C110.406 67.4102 108.54 66.9658 107.063 66.0771V61.3398C107.815 61.8594 108.69 62.29 109.688 62.6318C110.7 62.9736 111.588 63.1445 112.354 63.1445C113.202 63.1445 113.844 62.9395 114.282 62.5293C114.733 62.1055 114.959 61.5518 114.959 60.8682C114.959 60.1709 114.726 59.5625 114.261 59.043C113.796 58.5234 112.942 57.8877 111.698 57.1357C110.044 56.1514 108.854 55.1055 108.129 53.998C107.419 52.877 107.063 51.5576 107.063 50.04C107.063 48.0986 107.726 46.5605 109.052 45.4258C110.392 44.291 112.224 43.7236 114.548 43.7236C116.572 43.7236 118.479 44.2568 120.27 45.3232L118.486 49.2402C117.023 48.4473 115.738 48.0508 114.63 48.0508C113.933 48.0508 113.407 48.2354 113.051 48.6045C112.71 48.9736 112.539 49.4248 112.539 49.958C112.539 50.5732 112.751 51.1201 113.174 51.5986C113.612 52.0771 114.419 52.6719 115.594 53.3828C117.016 54.2441 118.014 54.9756 118.588 55.5771C119.163 56.1787 119.607 56.8623 119.921 57.6279C120.236 58.3936 120.393 59.2891 120.393 60.3145Z" fill="white" fill-opacity="0.5"/>
</svg>
